<svg xmlns="http://www.w3.org/2000/svg" xmlns:xlink="http://www.w3.org/1999/xlink" width="48" zoomAndPan="magnify" viewBox="0 0 36 37.5" height="50" preserveAspectRatio="xMidYMid meet" version="1.0"><defs><g/><clipPath id="be22c99cdd"><path d="M 3.082031 7.8125 L 32.160156 7.8125 L 32.160156 33.800781 L 3.082031 33.800781 Z M 3.082031 7.8125 " clip-rule="nonzero"/></clipPath><clipPath id="ef03929ad2"><path d="M 13.707031 14.738281 C 5.269531 20.214844 4.605469 20.140625 4.085938 19.769531 C 3.566406 19.328125 2.976562 18.289062 3.199219 17.476562 C 3.566406 15.847656 8.15625 12.441406 9.710938 11.777344 C 10.300781 11.480469 10.746094 11.40625 11.191406 11.554688 C 11.707031 11.628906 12.226562 11.851562 12.523438 12.367188 C 13.113281 13.332031 13.113281 16.070312 12.597656 17.992188 C 12.003906 20.214844 10.007812 24.210938 8.601562 24.878906 C 7.859375 25.246094 6.675781 24.953125 6.15625 24.507812 C 5.714844 24.0625 5.417969 22.953125 5.714844 22.066406 C 6.15625 20.511719 9.636719 18.585938 11.265625 16.660156 C 12.894531 14.8125 14.226562 11.703125 15.484375 10.890625 C 16.148438 10.445312 16.742188 10.371094 17.261719 10.445312 C 17.703125 10.519531 18.222656 10.816406 18.445312 11.257812 C 18.667969 11.777344 18.738281 12.515625 18.371094 13.480469 C 17.554688 16.070312 11.636719 25.320312 9.488281 26.136719 C 8.601562 26.429688 7.710938 25.988281 7.269531 25.542969 C 6.898438 25.023438 6.824219 24.210938 7.046875 23.25 C 7.636719 20.878906 12.523438 13.847656 14.300781 12.367188 C 14.964844 11.777344 15.484375 11.554688 16 11.554688 C 16.519531 11.554688 17.039062 11.777344 17.332031 12.148438 C 17.703125 12.589844 18 13.183594 17.925781 13.996094 C 17.703125 15.996094 14.078125 22.65625 12.226562 23.914062 C 11.265625 24.582031 9.933594 24.730469 9.339844 24.285156 C 8.75 23.914062 8.453125 22.730469 8.675781 21.546875 C 9.042969 18.957031 14.152344 11.332031 16 9.851562 C 16.667969 9.335938 17.261719 9.113281 17.777344 9.1875 C 18.371094 9.261719 19.109375 9.703125 19.332031 10.296875 C 19.703125 11.332031 18.960938 13.183594 18.148438 15.179688 C 16.742188 18.882812 12.152344 29.242188 9.933594 30.207031 C 9.042969 30.578125 8.082031 30.132812 7.636719 29.613281 C 7.195312 29.171875 7.121094 28.429688 7.34375 27.320312 C 8.082031 24.136719 16 11.480469 18.738281 9.554688 C 19.703125 8.890625 20.589844 8.742188 21.183594 8.964844 C 21.699219 9.261719 22.144531 10 22.21875 10.890625 C 22.367188 12.664062 20.21875 17.773438 19.035156 19.179688 C 18.371094 19.917969 17.628906 20.289062 16.964844 20.289062 C 16.445312 20.214844 15.707031 19.695312 15.410156 19.253906 C 15.1875 18.734375 15.113281 18.066406 15.410156 17.328125 C 16.074219 15.699219 20.21875 12.222656 21.996094 10.890625 C 23.105469 10.074219 23.996094 9.113281 24.808594 9.261719 C 25.476562 9.335938 26.511719 10.148438 26.585938 11.183594 C 26.957031 14.070312 19.628906 26.800781 17.113281 28.578125 C 16.148438 29.171875 15.113281 29.242188 14.59375 28.949219 C 14.078125 28.578125 13.78125 27.542969 13.929688 26.503906 C 14.375 23.914062 20.367188 15.476562 22.367188 14.144531 C 23.03125 13.703125 23.550781 13.628906 24.070312 13.773438 C 24.511719 13.921875 25.105469 14.515625 25.328125 14.960938 C 25.476562 15.328125 25.476562 15.625 25.253906 16.292969 C 24.660156 18.289062 20.144531 25.617188 18.222656 27.984375 C 17.332031 29.171875 16.59375 30.207031 15.78125 30.429688 C 15.261719 30.503906 14.519531 30.207031 14.226562 29.761719 C 13.855469 29.316406 13.78125 28.578125 14.003906 27.691406 C 14.519531 25.246094 19.554688 16.957031 21.035156 15.402344 C 21.550781 14.886719 21.773438 14.738281 22.21875 14.664062 C 22.738281 14.589844 23.550781 14.8125 23.921875 15.179688 C 24.292969 15.550781 24.511719 16.144531 24.511719 16.957031 C 24.363281 18.808594 22.144531 24.65625 20.589844 26.0625 C 19.851562 26.800781 18.667969 27.246094 18.074219 26.949219 C 17.40625 26.726562 16.816406 25.617188 16.890625 24.507812 C 17.039062 22.140625 24.511719 14.070312 24.070312 13.628906 C 23.402344 13.109375 10.820312 27.394531 7.859375 28.355469 C 6.972656 28.652344 6.230469 28.503906 5.789062 28.132812 C 5.417969 27.835938 5.195312 27.246094 5.195312 26.578125 C 5.269531 25.246094 6.824219 22.878906 8.304688 21.027344 C 10.449219 18.289062 15.484375 13.109375 17.703125 12.515625 C 18.667969 12.296875 19.628906 12.664062 20.074219 13.109375 C 20.367188 13.40625 20.367188 13.773438 20.367188 14.367188 C 20.292969 15.550781 19.480469 17.773438 18.667969 19.769531 C 17.628906 22.507812 15.707031 28.28125 14.152344 29.171875 C 13.410156 29.539062 12.449219 29.171875 12.003906 28.800781 C 11.636719 28.503906 11.414062 27.910156 11.414062 27.171875 C 11.414062 25.691406 12.894531 21.398438 14.078125 20.289062 C 14.742188 19.695312 15.707031 19.472656 16.296875 19.621094 C 16.742188 19.695312 17.1875 20.066406 17.40625 20.511719 C 17.628906 20.953125 17.777344 21.84375 17.480469 22.433594 C 17.113281 23.101562 15.78125 23.25 14.816406 24.0625 C 13.261719 25.394531 11.339844 29.316406 9.785156 30.058594 C 8.96875 30.429688 8.007812 30.429688 7.488281 30.058594 C 6.898438 29.613281 6.453125 28.503906 6.824219 27.394531 C 7.710938 24.136719 19.851562 12.960938 23.179688 11.777344 C 24.292969 11.40625 25.253906 11.554688 25.699219 12 C 26.140625 12.367188 26.289062 13.109375 26.140625 14.144531 C 25.550781 16.957031 19.332031 28.207031 17.039062 29.023438 C 16.296875 29.316406 15.410156 28.875 15.039062 28.429688 C 14.667969 27.984375 14.59375 27.246094 14.890625 26.285156 C 15.707031 23.691406 23.328125 14.589844 25.476562 13.257812 C 26.214844 12.8125 26.660156 12.738281 27.105469 12.886719 C 27.621094 12.960938 28.214844 13.332031 28.363281 13.996094 C 28.804688 16.292969 22.144531 29.539062 19.703125 31.390625 C 18.886719 32.054688 17.851562 32.128906 17.332031 31.835938 C 16.816406 31.539062 16.371094 30.503906 16.519531 29.539062 C 16.964844 27.320312 22.292969 20.734375 24.292969 19.621094 C 25.179688 19.179688 25.992188 19.105469 26.511719 19.398438 C 27.105469 19.769531 27.472656 20.804688 27.398438 21.84375 C 27.25 23.839844 24.363281 28.726562 23.105469 30.28125 C 22.441406 31.09375 21.996094 31.6875 21.332031 31.761719 C 20.664062 31.835938 19.628906 31.390625 19.257812 30.871094 C 18.960938 30.429688 18.886719 29.910156 19.109375 29.023438 C 19.777344 26.652344 25.699219 17.921875 27.695312 16.515625 C 28.4375 15.996094 28.953125 15.847656 29.472656 15.996094 C 29.988281 16.070312 30.730469 16.515625 30.878906 17.179688 C 31.25 18.214844 30.285156 20.585938 29.621094 22.285156 C 28.878906 24.0625 27.546875 26.875 26.4375 27.542969 C 25.84375 27.910156 25.03125 27.910156 24.585938 27.691406 C 24.070312 27.394531 23.476562 26.875 23.402344 26.210938 C 23.179688 24.65625 25.253906 20.363281 26.289062 18.511719 C 27.03125 17.328125 27.621094 16.070312 28.4375 15.773438 C 29.101562 15.550781 30.285156 15.773438 30.730469 16.21875 C 31.175781 16.660156 31.394531 17.625 31.175781 18.511719 C 30.582031 20.585938 25.625 26.429688 23.699219 27.171875 C 22.8125 27.46875 21.847656 27.246094 21.332031 26.875 C 20.886719 26.503906 20.664062 25.988281 20.664062 25.097656 C 20.8125 22.359375 26.734375 10.59375 28.65625 8.667969 C 29.25 8.078125 29.769531 7.929688 30.285156 7.929688 C 30.804688 7.929688 31.542969 8.296875 31.765625 8.816406 C 32.210938 9.703125 31.691406 11.332031 31.394531 13.109375 C 30.730469 16.367188 28.730469 24.582031 27.175781 26.503906 C 26.585938 27.246094 25.84375 27.617188 25.253906 27.542969 C 24.585938 27.394531 23.699219 26.359375 23.550781 25.617188 C 23.402344 24.878906 23.996094 24.0625 24.585938 23.101562 C 25.476562 21.472656 27.695312 17.847656 29.175781 17.253906 C 29.988281 16.882812 31.027344 17.105469 31.542969 17.550781 C 31.988281 17.992188 32.210938 18.808594 32.136719 19.84375 C 31.839844 22.140625 28.289062 28.652344 26.882812 30.429688 C 26.363281 31.167969 25.992188 31.539062 25.402344 31.6875 C 24.808594 31.910156 23.996094 31.835938 23.550781 31.464844 C 23.03125 31.09375 22.664062 30.355469 22.738281 29.316406 C 22.8125 26.949219 26.511719 19.03125 28.363281 17.253906 C 29.175781 16.441406 30.136719 15.996094 30.804688 16.21875 C 31.394531 16.441406 32.0625 17.402344 32.0625 18.4375 C 32.136719 21.175781 26.660156 31.539062 24.4375 33.09375 C 23.625 33.683594 22.515625 33.757812 21.996094 33.460938 C 21.480469 33.09375 21.257812 31.910156 21.40625 31.019531 C 21.550781 29.835938 22.738281 27.691406 23.625 27.097656 C 24.144531 26.652344 24.882812 26.578125 25.328125 26.726562 C 25.84375 26.875 26.4375 27.46875 26.660156 27.910156 C 26.808594 28.429688 26.660156 29.242188 26.289062 29.6875 C 25.992188 30.132812 25.253906 30.429688 24.734375 30.429688 C 24.21875 30.355469 23.476562 29.910156 23.179688 29.464844 C 22.957031 29.023438 22.886719 28.132812 23.105469 27.691406 C 23.402344 27.171875 24.585938 26.578125 25.179688 26.652344 C 25.769531 26.726562 26.660156 27.617188 26.734375 28.355469 C 26.882812 29.539062 24.808594 33.09375 23.699219 33.609375 C 23.179688 33.90625 22.441406 33.757812 21.996094 33.460938 C 21.550781 33.09375 21.183594 32.425781 21.183594 31.464844 C 21.332031 28.875 26.511719 19.253906 28.363281 17.253906 C 29.101562 16.515625 29.695312 16.070312 30.285156 16.144531 C 30.878906 16.144531 31.617188 16.515625 31.839844 17.105469 C 32.210938 17.921875 31.765625 19.546875 31.25 21.101562 C 30.433594 23.765625 27.992188 29.910156 26.214844 31.167969 C 25.328125 31.761719 24.144531 31.835938 23.550781 31.464844 C 22.957031 31.167969 22.664062 30.355469 22.738281 29.316406 C 22.8125 27.023438 26.511719 19.472656 28.4375 17.921875 C 29.324219 17.179688 30.507812 16.957031 31.101562 17.253906 C 31.691406 17.550781 32.285156 18.808594 32.136719 19.84375 C 31.839844 21.695312 28.066406 26.359375 26.585938 27.171875 C 25.917969 27.617188 25.328125 27.617188 24.808594 27.394531 C 24.292969 27.171875 23.699219 26.578125 23.550781 25.617188 C 23.105469 22.953125 26.734375 11.257812 28.4375 9.039062 C 29.027344 8.296875 29.695312 7.929688 30.285156 7.929688 C 30.804688 7.929688 31.542969 8.371094 31.765625 8.816406 C 32.0625 9.261719 32.0625 9.777344 31.914062 10.59375 C 31.394531 13.257812 26.511719 24.582031 24.363281 26.503906 C 23.625 27.246094 22.8125 27.542969 22.21875 27.320312 C 21.550781 27.097656 20.664062 26.0625 20.664062 25.097656 C 20.738281 23.101562 26.066406 17.03125 27.992188 15.996094 C 28.878906 15.550781 29.84375 15.550781 30.359375 15.921875 C 30.953125 16.292969 31.25 17.402344 31.175781 18.511719 C 31.027344 20.511719 28.582031 25.542969 27.105469 26.875 C 26.289062 27.542969 25.179688 27.910156 24.585938 27.691406 C 23.921875 27.394531 23.402344 26.285156 23.476562 25.246094 C 23.476562 23.25 25.917969 18.140625 27.398438 16.808594 C 28.214844 16.144531 29.324219 15.847656 29.917969 16.144531 C 30.507812 16.441406 31.027344 17.550781 30.953125 18.511719 C 30.804688 20.4375 28.066406 23.914062 26.363281 26.136719 C 24.808594 28.28125 22.738281 31.464844 21.332031 31.761719 C 20.515625 31.910156 19.628906 31.390625 19.257812 30.871094 C 18.960938 30.429688 18.960938 29.835938 19.109375 29.023438 C 19.480469 27.097656 22.367188 21.25 23.996094 19.992188 C 24.808594 19.328125 25.917969 19.179688 26.511719 19.398438 C 27.03125 19.621094 27.398438 20.4375 27.546875 20.953125 C 27.621094 21.398438 27.472656 21.695312 27.175781 22.285156 C 26.289062 24.0625 21.480469 30.796875 19.40625 31.6875 C 18.445312 32.128906 17.40625 31.984375 16.964844 31.613281 C 16.519531 31.167969 16.371094 30.503906 16.519531 29.539062 C 16.964844 26.652344 23.253906 15.476562 25.179688 13.554688 C 25.769531 13.035156 26.214844 12.8125 26.734375 12.8125 C 27.105469 12.8125 27.621094 12.960938 27.917969 13.257812 C 28.214844 13.773438 28.4375 14.664062 28.140625 15.625 C 27.324219 18.363281 20.144531 27.171875 17.851562 28.578125 C 16.964844 29.097656 16.222656 29.242188 15.707031 28.949219 C 15.1875 28.726562 14.667969 27.765625 14.667969 26.726562 C 14.816406 23.914062 21.109375 13.257812 23.179688 11.777344 C 23.847656 11.332031 24.4375 11.332031 24.957031 11.480469 C 25.476562 11.628906 26.066406 12.222656 26.214844 12.738281 C 26.363281 13.257812 26.289062 13.773438 25.84375 14.515625 C 24.660156 16.808594 18.222656 22.878906 15.039062 25.691406 C 12.746094 27.691406 10.449219 30.28125 8.894531 30.429688 C 8.007812 30.503906 7.121094 29.910156 6.824219 29.316406 C 6.527344 28.875 6.527344 28.132812 6.824219 27.394531 C 7.195312 26.210938 8.96875 24.507812 10.230469 23.25 C 11.5625 21.992188 13.261719 20.4375 14.449219 19.917969 C 15.113281 19.621094 15.78125 19.398438 16.296875 19.621094 C 16.890625 19.917969 17.628906 20.953125 17.628906 21.917969 C 17.777344 23.617188 15.78125 27.984375 14.519531 28.875 C 13.855469 29.316406 12.894531 29.390625 12.375 29.097656 C 11.855469 28.726562 11.488281 27.835938 11.5625 26.726562 C 11.636719 24.0625 15.632812 14.292969 17.332031 12.8125 C 17.925781 12.296875 18.519531 12.222656 18.960938 12.367188 C 19.480469 12.515625 20.074219 13.035156 20.21875 13.480469 C 20.441406 13.996094 20.441406 14.441406 20.074219 15.179688 C 19.035156 17.253906 11.191406 22.878906 9.488281 25.320312 C 8.675781 26.429688 8.894531 27.691406 8.230469 28.132812 C 7.636719 28.503906 6.304688 28.503906 5.789062 28.132812 C 5.34375 27.765625 5.046875 27.023438 5.34375 26.136719 C 6.15625 23.324219 17.40625 14.21875 21.183594 11.628906 C 23.03125 10.371094 24.511719 9.484375 25.699219 9.410156 C 26.585938 9.335938 27.472656 9.554688 27.84375 10.148438 C 28.4375 11.035156 27.917969 13.554688 27.175781 15.625 C 26.066406 18.808594 21.996094 25.765625 19.925781 26.800781 C 19.109375 27.246094 18.148438 27.023438 17.628906 26.726562 C 17.1875 26.429688 16.816406 25.839844 16.816406 25.023438 C 16.742188 23.175781 19.628906 17.328125 20.8125 15.773438 C 21.332031 15.109375 21.699219 14.8125 22.21875 14.664062 C 22.664062 14.589844 23.253906 14.589844 23.550781 14.886719 C 24.070312 15.328125 24.4375 16.367188 24.363281 17.402344 C 24.144531 19.328125 21.40625 23.324219 19.925781 25.617188 C 18.667969 27.46875 17.40625 29.910156 16.222656 30.28125 C 15.558594 30.503906 14.59375 30.207031 14.226562 29.761719 C 13.855469 29.316406 13.78125 28.578125 14.003906 27.691406 C 14.519531 25.097656 20.21875 16.144531 22.070312 14.441406 C 22.664062 13.921875 23.105469 13.703125 23.625 13.703125 C 24.144531 13.703125 24.882812 14.070312 25.105469 14.515625 C 25.402344 15.035156 25.328125 15.699219 25.03125 16.660156 C 24.292969 19.105469 19.257812 27.171875 17.113281 28.578125 C 16.148438 29.171875 15.113281 29.242188 14.59375 28.949219 C 14.078125 28.578125 13.78125 27.617188 13.929688 26.503906 C 14.300781 23.691406 21.257812 15.179688 22.441406 12.367188 C 22.886719 11.332031 22.589844 10.519531 23.03125 10 C 23.402344 9.484375 24.21875 9.1875 24.808594 9.261719 C 25.402344 9.335938 26.363281 10.148438 26.511719 10.742188 C 26.734375 11.257812 26.511719 11.925781 26.140625 12.589844 C 25.625 13.554688 24.4375 14.515625 23.253906 15.550781 C 21.550781 17.03125 18.296875 20.140625 16.964844 20.289062 C 16.445312 20.289062 16 19.992188 15.707031 19.621094 C 15.410156 19.179688 15.1875 18.585938 15.261719 17.847656 C 15.410156 15.996094 17.554688 10.296875 19.035156 9.335938 C 19.851562 8.816406 21.035156 8.890625 21.550781 9.261719 C 22.070312 9.628906 22.292969 10.296875 22.144531 11.332031 C 21.625 14.515625 12.523438 28.949219 9.933594 30.207031 C 9.117188 30.578125 8.453125 30.28125 8.007812 29.984375 C 7.5625 29.6875 7.121094 29.023438 7.121094 28.28125 C 7.046875 26.875 8.824219 24.285156 9.933594 21.84375 C 11.5625 18.4375 14.300781 11.40625 16 9.851562 C 16.667969 9.335938 17.261719 9.113281 17.777344 9.1875 C 18.371094 9.261719 19.109375 9.777344 19.332031 10.296875 C 19.628906 10.816406 19.554688 11.480469 19.332031 12.222656 C 18.960938 13.628906 17.40625 16.070312 16.148438 17.992188 C 14.742188 20.140625 12.820312 23.988281 11.339844 24.507812 C 10.523438 24.804688 9.488281 24.433594 8.96875 23.988281 C 8.527344 23.546875 8.378906 22.878906 8.453125 22.066406 C 8.75 19.992188 12.449219 13.628906 14.300781 12.367188 C 15.1875 11.703125 16.371094 11.480469 16.964844 11.851562 C 17.554688 12.222656 17.925781 13.332031 17.777344 14.441406 C 17.332031 17.03125 11.5625 25.394531 9.488281 26.136719 C 8.601562 26.429688 7.710938 25.988281 7.269531 25.542969 C 6.898438 25.023438 6.824219 24.210938 7.046875 23.25 C 7.710938 20.734375 13.707031 12.222656 15.484375 10.890625 C 16 10.445312 16.371094 10.371094 16.816406 10.371094 C 17.332031 10.445312 18.148438 10.816406 18.445312 11.257812 C 18.738281 11.703125 18.8125 12.367188 18.59375 13.109375 C 18.222656 14.589844 15.925781 17.476562 14.226562 19.472656 C 12.597656 21.398438 10.230469 24.359375 8.601562 24.878906 C 7.710938 25.171875 6.675781 24.953125 6.15625 24.507812 C 5.714844 24.0625 5.566406 23.101562 5.714844 22.066406 C 5.9375 20.4375 8.230469 17.402344 8.824219 15.476562 C 9.191406 14.21875 8.75 12.738281 9.265625 12.074219 C 9.5625 11.628906 10.15625 11.480469 10.671875 11.480469 C 11.265625 11.480469 12.226562 11.851562 12.523438 12.367188 C 12.894531 12.960938 13.042969 13.996094 12.671875 14.886719 C 11.929688 16.367188 8.230469 19.105469 6.601562 19.769531 C 5.640625 20.066406 4.675781 20.140625 4.085938 19.769531 C 3.492188 19.398438 2.976562 18.289062 3.199219 17.476562 C 3.492188 15.996094 6.972656 13.480469 8.75 12.296875 C 9.933594 11.480469 11.265625 10.742188 12.226562 10.59375 C 12.820312 10.445312 13.335938 10.519531 13.78125 10.816406 C 14.226562 11.035156 14.667969 11.554688 14.816406 12 C 14.964844 12.441406 14.964844 13.109375 14.816406 13.554688 C 14.59375 13.996094 13.707031 14.738281 13.707031 14.738281 " clip-rule="nonzero"/></clipPath></defs><g fill="#000000" fill-opacity="1"><g transform="translate(15.827713, 17.007131)"><g><path d="M 1.03125 -0.71875 C 1.03125 -1.019531 1.097656 -1.242188 1.234375 -1.390625 C 1.367188 -1.546875 1.566406 -1.625 1.828125 -1.625 C 2.085938 -1.625 2.289062 -1.546875 2.4375 -1.390625 C 2.582031 -1.242188 2.65625 -1.019531 2.65625 -0.71875 C 2.65625 -0.425781 2.578125 -0.195312 2.421875 -0.03125 C 2.273438 0.125 2.078125 0.203125 1.828125 0.203125 C 1.597656 0.203125 1.40625 0.128906 1.25 -0.015625 C 1.101562 -0.160156 1.03125 -0.394531 1.03125 -0.71875 Z M 1.03125 -0.71875 "/></g></g></g><g clip-path="url(#be22c99cdd)"><g clip-path="url(#ef03929ad2)"><path fill="#000000" d="M 0.238281 4.96875 L 35.132812 4.96875 L 35.132812 36.644531 L 0.238281 36.644531 Z M 0.238281 4.96875 " fill-opacity="1" fill-rule="nonzero"/></g></g></svg>