<svg xmlns="http://www.w3.org/2000/svg" xmlns:xlink="http://www.w3.org/1999/xlink" width="222" zoomAndPan="magnify" viewBox="0 0 166.5 234.749994" height="313" preserveAspectRatio="xMidYMid meet" version="1.0"><defs><clipPath id="8a4e4a587e"><path d="M 6.097656 3.0625 L 154 3.0625 L 154 29.070312 L 6.097656 29.070312 Z M 6.097656 3.0625 " clip-rule="nonzero"/></clipPath><clipPath id="9ac3c4c9d8"><path d="M 6.65625 24.15625 C 15.328125 10.546875 16.152344 9.796875 17.347656 9.574219 C 18.695312 9.425781 20.414062 9.871094 21.910156 10.996094 C 24.300781 12.863281 27.441406 21.988281 28.640625 21.6875 C 29.386719 21.539062 28.714844 18.097656 29.609375 16.304688 C 30.808594 13.835938 34.171875 9.871094 36.492188 8.902344 C 37.984375 8.226562 39.855469 8.453125 41.050781 9.050781 C 42.171875 9.5 42.773438 10.546875 43.742188 11.816406 C 45.089844 13.6875 47.183594 19.59375 48.304688 19.519531 C 48.976562 19.519531 48.902344 17.199219 49.800781 15.929688 C 51.445312 13.6875 55.933594 9.796875 58.25 8.300781 C 59.519531 7.332031 60.492188 6.65625 61.691406 6.582031 C 62.960938 6.433594 64.230469 6.808594 65.578125 7.628906 C 67.820312 9.050781 70.960938 15.707031 72.683594 15.480469 C 74.027344 15.332031 74.253906 11.667969 75.597656 9.949219 C 77.167969 8.003906 79.859375 5.761719 81.953125 4.714844 C 83.671875 3.742188 85.691406 2.84375 87.1875 3.21875 C 88.757812 3.515625 90.03125 5.011719 91.226562 6.507812 C 92.796875 8.453125 94.066406 14.359375 95.113281 14.359375 C 95.863281 14.359375 95.863281 11.59375 96.984375 10.320312 C 98.703125 8.378906 102.890625 5.835938 105.507812 4.863281 C 107.378906 4.191406 109.246094 3.589844 110.742188 4.039062 C 112.238281 4.488281 113.359375 5.683594 114.480469 7.332031 C 116.199219 10.023438 119.640625 18.546875 118.59375 19.816406 C 117.996094 20.492188 114.707031 19.816406 114.480469 19.070312 C 114.105469 17.648438 123.003906 10.996094 126.445312 9.273438 C 128.613281 8.226562 130.78125 7.40625 132.351562 8.003906 C 133.921875 8.527344 135.042969 10.996094 135.941406 12.566406 C 136.691406 13.984375 138.035156 16.003906 137.585938 16.902344 C 137.136719 17.875 133.625 18.621094 133.398438 18.324219 C 133.101562 17.722656 139.53125 12.640625 142.296875 10.472656 C 144.617188 8.601562 147.15625 6.359375 148.953125 5.910156 C 150.074219 5.609375 151.046875 5.910156 151.867188 6.285156 C 152.46875 6.582031 152.914062 7.03125 153.289062 7.628906 C 153.738281 8.300781 154.113281 9.574219 153.960938 10.472656 C 153.8125 11.367188 153.289062 12.9375 152.617188 13.011719 C 151.421875 13.089844 146.785156 7.703125 147.082031 6.507812 C 147.308594 5.835938 148.953125 5.535156 149.851562 5.535156 C 150.746094 5.535156 151.945312 6.058594 152.542969 6.582031 C 153.066406 7.03125 153.4375 7.628906 153.664062 8.226562 C 153.886719 8.824219 154.039062 9.5 153.886719 10.171875 C 153.738281 10.996094 153.289062 11.964844 152.46875 12.714844 C 151.34375 13.910156 148.355469 15.628906 146.710938 15.929688 C 145.738281 16.078125 144.914062 15.855469 144.167969 15.480469 C 143.417969 15.105469 142.671875 14.359375 142.371094 13.535156 C 142 12.566406 142 10.621094 142.597656 9.722656 C 143.195312 8.75 144.839844 7.777344 145.960938 7.703125 C 147.082031 7.703125 148.726562 8.601562 149.476562 9.425781 C 150 10.097656 150.296875 11.070312 150.222656 11.890625 C 150.222656 12.714844 149.925781 13.761719 149.402344 14.359375 C 148.878906 15.03125 147.980469 15.628906 147.15625 15.855469 C 146.410156 16.078125 145.363281 16.078125 144.539062 15.628906 C 143.570312 15.183594 142.296875 13.835938 142.074219 12.714844 C 141.847656 11.59375 142.371094 10.023438 143.195312 8.976562 C 144.242188 7.554688 147.234375 5.984375 148.878906 5.609375 C 149.925781 5.386719 150.972656 5.683594 151.71875 5.984375 C 152.390625 6.285156 152.839844 6.730469 153.214844 7.332031 C 153.664062 8.078125 154.039062 9.273438 153.886719 10.171875 C 153.738281 11.070312 153.214844 12.640625 152.46875 12.714844 C 151.34375 12.863281 146.933594 7.929688 147.234375 6.808594 C 147.382812 6.132812 149.027344 5.761719 149.925781 5.761719 C 150.820312 5.835938 151.945312 6.285156 152.617188 6.882812 C 153.289062 7.480469 153.886719 8.527344 153.960938 9.425781 C 154.039062 10.320312 153.960938 11.144531 153.214844 12.265625 C 151.34375 15.257812 140.953125 24.15625 137.214844 25.203125 C 135.566406 25.652344 134.371094 25.277344 133.25 24.679688 C 131.980469 23.929688 130.632812 22.210938 130.257812 20.789062 C 129.886719 19.519531 131.230469 17.050781 130.558594 16.753906 C 129.285156 16.078125 121.210938 26.097656 117.769531 26.699219 C 115.675781 27.144531 113.734375 26.398438 112.3125 25.128906 C 110.441406 23.40625 108.949219 18.621094 108.722656 16.152344 C 108.574219 14.433594 110.21875 12.191406 109.621094 11.816406 C 108.5 11.070312 99.824219 19.21875 96.683594 20.789062 C 95.113281 21.539062 94.140625 22.210938 92.796875 22.0625 C 91.226562 21.835938 89.28125 20.339844 88.160156 19.070312 C 87.113281 17.949219 86.289062 16.527344 86.214844 15.183594 C 86.066406 13.6875 88.160156 10.769531 87.710938 10.472656 C 86.890625 9.871094 78.960938 19.292969 75.671875 21.3125 C 73.878906 22.433594 72.53125 23.183594 70.960938 23.183594 C 69.464844 23.109375 68.046875 22.285156 66.550781 21.164062 C 64.382812 19.59375 59.597656 14.507812 60.042969 13.6875 C 60.34375 13.164062 63.632812 13.460938 63.859375 14.136719 C 64.308594 15.554688 54.660156 23.929688 50.773438 25.652344 C 48.378906 26.699219 45.914062 26.847656 44.265625 26.324219 C 42.921875 25.875 42.171875 24.902344 41.125 23.632812 C 39.554688 21.761719 35.742188 16.601562 36.339844 15.480469 C 36.789062 14.734375 40.453125 14.734375 40.828125 15.480469 C 41.425781 16.753906 33.351562 25.128906 30.433594 27.070312 C 28.863281 28.117188 27.515625 28.640625 26.171875 28.492188 C 24.675781 28.269531 23.03125 26.773438 21.910156 25.652344 C 20.789062 24.453125 19.890625 22.957031 19.441406 21.464844 C 19.066406 19.96875 19.890625 16.976562 19.292969 16.753906 C 18.246094 16.453125 13.386719 27.59375 10.769531 28.789062 C 9.496094 29.3125 8 28.867188 7.179688 28.34375 C 6.582031 27.894531 6.207031 26.996094 6.132812 26.324219 C 6.058594 25.652344 6.65625 24.15625 6.65625 24.15625 " clip-rule="nonzero"/></clipPath><clipPath id="ecde8f064d"><path d="M 2.964844 24.277344 L 13.1875 24.277344 L 13.1875 226.171875 L 2.964844 226.171875 Z M 2.964844 24.277344 " clip-rule="nonzero"/></clipPath><clipPath id="057e6c7d75"><path d="M 11.292969 26.921875 C 13.160156 42.847656 13.160156 50.476562 13.011719 60.347656 C 12.710938 76.871094 10.320312 109.625 10.09375 126.597656 C 9.945312 137.140625 10.09375 143.644531 10.46875 152.246094 C 10.84375 160.917969 11.890625 169.070312 12.261719 178.265625 C 12.636719 188.4375 12.785156 203.617188 12.636719 210.644531 C 12.5625 214.011719 12.785156 216.402344 12.1875 218.195312 C 11.816406 219.320312 11.214844 220.066406 10.46875 220.589844 C 9.722656 221.113281 8.449219 221.414062 7.550781 221.335938 C 6.878906 221.261719 6.207031 221.113281 5.683594 220.589844 C 4.933594 219.917969 3.441406 217.824219 3.886719 217.148438 C 4.488281 216.101562 11.664062 216.179688 12.339844 217.148438 C 12.710938 217.75 11.964844 219.242188 11.214844 219.917969 C 10.46875 220.738281 8.675781 221.335938 7.550781 221.261719 C 6.582031 221.261719 5.535156 220.589844 4.933594 219.917969 C 4.335938 219.167969 3.515625 217.671875 3.886719 217.074219 C 4.5625 216.101562 11.664062 216.328125 12.339844 217.375 C 12.710938 217.972656 11.890625 219.46875 11.214844 220.140625 C 10.617188 220.8125 9.570312 221.488281 8.597656 221.488281 C 7.476562 221.5625 5.683594 220.890625 4.933594 220.140625 C 4.261719 219.394531 3.441406 217.898438 3.886719 217.300781 C 4.5625 216.328125 11.738281 216.253906 12.339844 217.226562 C 12.710938 217.898438 11.367188 219.992188 10.46875 220.664062 C 9.722656 221.261719 8.523438 221.488281 7.550781 221.414062 C 6.65625 221.261719 5.535156 220.664062 4.933594 219.992188 C 4.335938 219.242188 3.515625 217.75 3.886719 217.148438 C 4.5625 216.179688 10.691406 215.730469 12.113281 216.851562 C 13.234375 217.671875 13.160156 220.214844 13.160156 221.636719 C 13.085938 222.609375 13.011719 223.507812 12.488281 224.253906 C 11.816406 225.078125 10.09375 226.046875 8.972656 226.125 C 8.074219 226.273438 7.105469 225.824219 6.429688 225.375 C 5.757812 224.851562 5.011719 224.03125 4.859375 223.132812 C 4.636719 222.085938 5.011719 220.140625 5.609375 219.242188 C 6.132812 218.496094 7.027344 217.972656 7.925781 217.824219 C 8.972656 217.597656 10.917969 217.972656 11.738281 218.796875 C 12.636719 219.542969 13.234375 221.335938 13.085938 222.535156 C 12.9375 223.65625 11.816406 225.226562 10.769531 225.75 C 9.722656 226.273438 7.777344 226.046875 6.804688 225.601562 C 5.980469 225.226562 5.457031 224.476562 5.011719 223.582031 C 4.335938 222.234375 3.214844 219.019531 4.039062 217.898438 C 5.085938 216.550781 11.664062 216.328125 12.339844 217.226562 C 12.710938 217.75 11.890625 219.320312 11.214844 219.992188 C 10.617188 220.664062 9.496094 221.261719 8.597656 221.414062 C 7.628906 221.488281 6.429688 221.261719 5.683594 220.664062 C 4.785156 219.992188 3.441406 217.824219 3.886719 217.148438 C 4.488281 216.179688 11.664062 216.328125 12.339844 217.375 C 12.710938 217.972656 11.890625 219.46875 11.214844 220.140625 C 10.617188 220.8125 9.570312 221.488281 8.597656 221.488281 C 7.476562 221.5625 5.683594 220.890625 4.933594 220.140625 C 4.261719 219.394531 3.441406 217.898438 3.886719 217.300781 C 4.5625 216.328125 11.664062 216.179688 12.339844 217.148438 C 12.710938 217.671875 11.890625 219.242188 11.214844 219.917969 C 10.617188 220.589844 9.496094 221.1875 8.597656 221.261719 C 7.628906 221.414062 6.429688 221.1875 5.683594 220.589844 C 4.785156 219.84375 3.441406 217.75 3.886719 217.074219 C 4.488281 216.101562 11.664062 216.179688 12.339844 217.148438 C 12.710938 217.75 11.890625 219.242188 11.214844 219.917969 C 10.617188 220.664062 9.570312 221.261719 8.597656 221.335938 C 7.476562 221.414062 5.683594 220.738281 4.933594 219.917969 C 4.261719 219.242188 4.113281 218.644531 3.886719 217.148438 C 2.992188 211.839844 4.710938 193.96875 4.636719 180.585938 C 4.5625 164.359375 2.917969 145.367188 2.992188 126.449219 C 3.066406 105.585938 5.085938 77.019531 5.457031 60.570312 C 5.757812 50.699219 5.980469 43.074219 5.757812 37.015625 C 5.609375 33.054688 4.488281 29.464844 4.859375 27.371094 C 5.011719 26.398438 5.234375 25.800781 5.757812 25.277344 C 6.28125 24.753906 7.105469 24.378906 7.851562 24.304688 C 8.597656 24.230469 9.496094 24.527344 10.09375 24.976562 C 10.617188 25.351562 11.292969 26.921875 11.292969 26.921875 " clip-rule="nonzero"/></clipPath><clipPath id="28634f4e2e"><path d="M 147.605469 8.148438 L 163.085938 8.148438 L 163.085938 228.503906 L 147.605469 228.503906 Z M 147.605469 8.148438 " clip-rule="nonzero"/></clipPath><clipPath id="0a9c9376fc"><path d="M 154.113281 10.695312 C 157.703125 28.640625 159.046875 40.605469 160.019531 52.570312 C 161.289062 68.273438 162.414062 92.648438 162.859375 107.15625 C 163.085938 116.726562 163.085938 122.933594 162.9375 130.933594 C 162.859375 139.160156 162.710938 148.582031 161.964844 155.683594 C 161.515625 160.992188 160.320312 164.734375 159.871094 169.742188 C 159.273438 175.425781 159.121094 180.960938 158.972656 188.136719 C 158.75 198.382812 160.167969 220.738281 159.121094 225.078125 C 158.898438 226.125 158.75 226.421875 158.226562 226.871094 C 157.703125 227.542969 156.503906 228.140625 155.683594 228.292969 C 155.007812 228.441406 154.335938 228.367188 153.664062 228.140625 C 152.914062 227.769531 151.34375 226.871094 151.421875 226.199219 C 151.570312 225.078125 157.851562 221.710938 158.898438 222.234375 C 159.496094 222.609375 159.496094 224.253906 159.347656 225.152344 C 159.121094 226.046875 158.449219 227.09375 157.703125 227.617188 C 156.953125 228.21875 155.832031 228.589844 154.859375 228.441406 C 153.589844 228.21875 151.644531 226.871094 150.671875 225.898438 C 150 225.226562 149.476562 224.554688 149.328125 223.65625 C 149.175781 222.609375 149.550781 220.738281 150.296875 219.917969 C 151.121094 219.019531 152.914062 218.496094 154.039062 218.644531 C 154.933594 218.644531 155.757812 219.242188 156.355469 219.84375 C 156.953125 220.441406 157.476562 221.335938 157.476562 222.234375 C 157.550781 223.355469 156.953125 225.152344 156.132812 225.898438 C 155.234375 226.648438 153.363281 227.019531 152.316406 226.722656 C 151.195312 226.421875 149.773438 225.152344 149.402344 224.105469 C 149.027344 222.984375 149.328125 221.113281 150.074219 220.214844 C 150.746094 219.320312 152.46875 218.570312 153.589844 218.570312 C 154.484375 218.570312 155.234375 219.019531 156.054688 219.542969 C 157.027344 220.140625 158.375 221.335938 158.898438 222.234375 C 159.273438 222.90625 159.421875 223.507812 159.421875 224.179688 C 159.421875 225 159.046875 226.273438 158.449219 226.945312 C 157.851562 227.695312 156.730469 228.292969 155.832031 228.367188 C 154.933594 228.515625 153.738281 228.140625 152.992188 227.769531 C 152.390625 227.394531 151.570312 226.871094 151.644531 226.273438 C 151.792969 225.152344 157.703125 221.710938 158.75 222.160156 C 159.347656 222.460938 159.273438 224.253906 159.121094 225.078125 C 159.046875 225.824219 158.75 226.421875 158.226562 226.871094 C 157.703125 227.542969 156.503906 228.140625 155.683594 228.292969 C 155.007812 228.441406 154.335938 228.367188 153.664062 228.140625 C 152.914062 227.769531 151.945312 227.171875 151.421875 226.199219 C 150.746094 224.851562 150.972656 222.90625 150.898438 220.140625 C 150.671875 213.933594 150.972656 198.832031 151.269531 190.082031 C 151.496094 183.351562 151.644531 178.265625 152.242188 172.136719 C 152.914062 165.628906 154.410156 159.648438 155.007812 151.945312 C 155.832031 141.925781 155.980469 130.335938 155.757812 117.027344 C 155.53125 99.003906 153.8125 71.039062 152.542969 53.617188 C 151.644531 41.277344 150.671875 29.761719 149.625 22.0625 C 148.953125 17.574219 147.457031 13.6875 147.679688 11.441406 C 147.757812 10.472656 148.054688 9.871094 148.503906 9.273438 C 148.953125 8.75 149.851562 8.300781 150.523438 8.226562 C 151.269531 8.152344 152.242188 8.378906 152.839844 8.75 C 153.4375 9.199219 154.113281 10.695312 154.113281 10.695312 " clip-rule="nonzero"/></clipPath><clipPath id="3677830b5f"><path d="M 7.664062 208.066406 L 154.933594 208.066406 L 154.933594 231.058594 L 7.664062 231.058594 Z M 7.664062 208.066406 " clip-rule="nonzero"/></clipPath><clipPath id="99a13bac90"><path d="M 9.273438 221.5625 C 26.546875 209.523438 28.039062 209.746094 29.460938 210.269531 C 30.882812 210.792969 31.78125 211.917969 33.050781 213.261719 C 34.996094 215.355469 37.539062 221.859375 39.480469 221.785156 C 41.351562 221.710938 42.546875 215.28125 44.566406 213.933594 C 46.0625 212.964844 47.929688 212.738281 49.574219 212.964844 C 51.222656 213.261719 52.714844 214.382812 54.285156 215.582031 C 56.15625 217.074219 58.699219 221.859375 59.746094 221.636719 C 60.492188 221.488281 60.121094 218.796875 60.792969 217.597656 C 61.464844 216.402344 62.8125 215.058594 64.007812 214.457031 C 65.203125 213.859375 66.550781 213.5625 67.820312 213.785156 C 69.464844 214.011719 71.261719 215.28125 72.90625 216.402344 C 74.851562 217.824219 76.792969 221.5625 78.515625 221.859375 C 79.785156 222.011719 80.90625 220.890625 82.027344 220.140625 C 83.375 219.242188 84.644531 217.523438 86.140625 216.550781 C 87.488281 215.730469 89.058594 214.757812 90.476562 214.683594 C 91.824219 214.609375 93.019531 214.980469 94.441406 215.804688 C 96.535156 217.148438 99.824219 223.28125 101.097656 222.984375 C 101.917969 222.832031 101.320312 220.066406 102.21875 218.570312 C 103.640625 216.476562 107.601562 212.886719 109.917969 212.289062 C 111.488281 211.839844 112.835938 212.140625 114.257812 212.886719 C 116.425781 213.933594 119.117188 219.917969 120.6875 219.765625 C 121.882812 219.617188 122.332031 216.550781 123.304688 215.28125 C 124.203125 214.160156 125.023438 213.039062 126.222656 212.363281 C 127.714844 211.542969 130.257812 210.71875 131.828125 211.09375 C 133.175781 211.394531 134.222656 212.664062 135.195312 213.710938 C 136.167969 214.757812 137.363281 217.300781 137.8125 217.148438 C 138.261719 217 137.363281 214.085938 137.8125 212.8125 C 138.335938 211.394531 139.605469 209.824219 140.953125 209.074219 C 142.445312 208.253906 145.0625 207.804688 146.484375 208.253906 C 147.757812 208.625 148.578125 209.898438 149.402344 210.945312 C 150.296875 212.140625 151.945312 214.011719 151.71875 215.132812 C 151.421875 216.253906 147.832031 217.597656 147.90625 217.824219 C 147.980469 217.972656 151.121094 216.179688 152.242188 216.476562 C 153.140625 216.703125 153.960938 217.898438 154.410156 218.644531 C 154.710938 219.320312 154.933594 219.917969 154.785156 220.664062 C 154.636719 221.710938 153.738281 223.507812 152.691406 224.105469 C 151.71875 224.777344 148.878906 224.851562 148.726562 224.402344 C 148.429688 223.730469 153.738281 218.644531 154.5625 219.09375 C 155.382812 219.542969 154.410156 225.152344 153.589844 226.796875 C 153.066406 227.769531 152.390625 228.367188 151.570312 228.664062 C 150.523438 229.039062 148.503906 228.964844 147.457031 228.441406 C 146.632812 227.992188 146.035156 227.09375 145.738281 226.347656 C 145.363281 225.523438 145.363281 224.402344 145.585938 223.582031 C 145.8125 222.683594 146.335938 221.785156 147.15625 221.261719 C 148.128906 220.664062 150.074219 220.367188 151.195312 220.664062 C 152.09375 220.890625 152.914062 221.5625 153.363281 222.308594 C 153.886719 223.058594 154.1875 224.105469 154.113281 225 C 153.960938 226.125 152.992188 227.84375 151.945312 228.441406 C 150.898438 229.113281 148.953125 229.039062 147.90625 228.664062 C 147.007812 228.367188 146.335938 227.542969 145.886719 226.722656 C 145.511719 225.972656 145.140625 225.078125 145.4375 224.03125 C 146.035156 222.011719 150.597656 216.550781 152.242188 216.476562 C 153.140625 216.476562 154.039062 217.75 154.410156 218.644531 C 154.785156 219.542969 154.785156 220.890625 154.636719 221.710938 C 154.410156 222.382812 154.113281 222.984375 153.515625 223.507812 C 152.839844 224.105469 151.644531 224.628906 150.746094 224.777344 C 150 224.851562 148.726562 224.554688 148.726562 224.402344 C 148.726562 224.179688 152.765625 223.582031 152.765625 223.429688 C 152.765625 223.28125 148.953125 224.253906 147.53125 223.65625 C 146.109375 222.984375 145.0625 220.890625 144.316406 219.542969 C 143.570312 218.347656 142.371094 216.703125 142.746094 215.953125 C 143.195312 215.207031 146.632812 214.609375 146.933594 215.132812 C 147.382812 215.878906 140.726562 223.207031 138.183594 224.402344 C 136.839844 225.078125 135.644531 225.078125 134.371094 224.703125 C 132.800781 224.179688 130.78125 222.234375 129.660156 220.890625 C 128.761719 219.84375 127.492188 217.972656 127.792969 217.597656 C 128.089844 217.226562 131.605469 217.972656 131.828125 218.71875 C 132.128906 219.992188 126.59375 223.953125 124.425781 225.449219 C 122.929688 226.421875 121.882812 227.320312 120.3125 227.46875 C 118.59375 227.542969 115.828125 226.722656 114.40625 225.523438 C 113.136719 224.476562 113.058594 221.1875 111.863281 221.113281 C 110.292969 220.890625 107.75 226.199219 105.582031 227.917969 C 103.789062 229.339844 101.917969 230.757812 100.199219 230.984375 C 98.703125 231.132812 96.984375 230.386719 95.789062 229.636719 C 94.589844 228.890625 93.46875 227.84375 92.871094 226.722656 C 92.273438 225.601562 92.945312 223.058594 92.199219 222.757812 C 90.925781 222.308594 86.738281 227.394531 84.570312 228.664062 C 83.226562 229.488281 82.179688 230.011719 80.90625 230.3125 C 79.710938 230.535156 78.363281 230.535156 77.09375 230.3125 C 75.898438 230.011719 74.851562 229.488281 73.503906 228.742188 C 71.558594 227.617188 68.34375 223.582031 66.699219 223.804688 C 65.503906 223.953125 65.128906 226.199219 64.007812 227.171875 C 62.738281 228.21875 60.71875 229.636719 59.148438 229.863281 C 57.800781 230.011719 56.605469 229.414062 55.257812 228.664062 C 53.089844 227.394531 50.25 221.859375 48.230469 222.085938 C 46.210938 222.308594 45.238281 228.890625 42.996094 230.085938 C 41.277344 230.984375 38.808594 230.984375 36.9375 230.085938 C 34.472656 228.964844 31.78125 224.476562 30.132812 222.011719 C 28.863281 220.140625 29.085938 217.074219 27.515625 216.703125 C 24.675781 215.953125 14.804688 226.570312 11.890625 227.394531 C 10.84375 227.695312 10.246094 227.542969 9.570312 227.246094 C 8.898438 226.945312 8.226562 226.273438 8 225.675781 C 7.703125 225 7.628906 224.03125 7.851562 223.355469 C 8.074219 222.683594 9.273438 221.5625 9.273438 221.5625 " clip-rule="nonzero"/></clipPath></defs><g clip-path="url(#8a4e4a587e)"><g clip-path="url(#9ac3c4c9d8)"><path fill="#1e1e1e" d="M 3.140625 0.226562 L 156.972656 0.226562 L 156.972656 31.78125 L 3.140625 31.78125 Z M 3.140625 0.226562 " fill-opacity="1" fill-rule="nonzero"/></g></g><g clip-path="url(#ecde8f064d)"><g clip-path="url(#057e6c7d75)"><path fill="#1e1e1e" d="M 0 21.3125 L 16.152344 21.3125 L 16.152344 229.199219 L 0 229.199219 Z M 0 21.3125 " fill-opacity="1" fill-rule="nonzero"/></g></g><g clip-path="url(#28634f4e2e)"><g clip-path="url(#0a9c9376fc)"><path fill="#1e1e1e" d="M 144.691406 5.238281 L 166 5.238281 L 166 231.417969 L 144.691406 231.417969 Z M 144.691406 5.238281 " fill-opacity="1" fill-rule="nonzero"/></g></g><g clip-path="url(#3677830b5f)"><g clip-path="url(#99a13bac90)"><path fill="#1e1e1e" d="M 4.859375 205.261719 L 157.851562 205.261719 L 157.851562 233.976562 L 4.859375 233.976562 Z M 4.859375 205.261719 " fill-opacity="1" fill-rule="nonzero"/></g></g></svg>