<svg xmlns="http://www.w3.org/2000/svg" xmlns:xlink="http://www.w3.org/1999/xlink" width="148" zoomAndPan="magnify" viewBox="0 0 110.88 64.499998" height="86" preserveAspectRatio="xMidYMid meet" version="1.0"><defs><clipPath id="9349f9b733"><path d="M 3.335938 2.722656 L 107.492188 2.722656 L 107.492188 60.367188 L 3.335938 60.367188 Z M 3.335938 2.722656 " clip-rule="nonzero"/></clipPath><clipPath id="ef6caaa825"><path d="M 44.203125 10.417969 C 20.90625 25.601562 12.199219 30.664062 8.40625 31.332031 C 6.839844 31.554688 5.800781 31.480469 4.980469 30.886719 C 4.089844 30.289062 3.417969 28.726562 3.34375 27.761719 C 3.34375 26.941406 3.640625 25.824219 4.3125 25.304688 C 5.277344 24.558594 7.511719 24.335938 9.519531 24.933594 C 13.019531 26.121094 17.484375 31.851562 22.546875 35.574219 C 28.796875 40.1875 40.109375 46.738281 44.574219 50.160156 C 46.65625 51.722656 48.148438 52.691406 48.890625 53.957031 C 49.410156 54.925781 49.5625 55.964844 49.410156 56.859375 C 49.1875 57.753906 48.519531 58.792969 47.847656 59.316406 C 47.328125 59.761719 46.734375 60.058594 46.0625 60.132812 C 45.242188 60.207031 43.90625 59.984375 43.234375 59.613281 C 42.566406 59.242188 41.746094 58.71875 41.820312 58.199219 C 41.96875 57.082031 47.699219 53.585938 48.742188 54.105469 C 49.335938 54.402344 49.410156 56.039062 49.1875 56.933594 C 49.039062 57.828125 48.445312 58.867188 47.699219 59.464844 C 46.957031 59.984375 45.765625 60.28125 44.945312 60.28125 C 44.203125 60.28125 43.605469 59.984375 43.011719 59.6875 C 42.492188 59.316406 41.820312 58.941406 41.671875 58.273438 C 41.375 57.304688 42.714844 55.59375 42.566406 54.253906 C 42.492188 52.914062 41.226562 51.949219 40.925781 50.308594 C 40.554688 47.78125 40.777344 42.941406 41.96875 40.484375 C 42.789062 38.550781 43.753906 37.285156 46.0625 36.167969 C 51.050781 33.863281 64.816406 34.90625 74.195312 33.9375 C 83.421875 32.96875 101.210938 29.023438 101.804688 30.4375 C 102.027344 30.960938 99.574219 33.492188 98.753906 33.191406 C 96.96875 32.597656 94.289062 17.265625 95.40625 16.597656 C 95.925781 16.222656 98.976562 18.382812 98.753906 19.125 C 98.234375 21.136719 79.628906 21.730469 71.589844 23.292969 C 65.039062 24.484375 57.96875 26.867188 53.953125 27.3125 C 51.867188 27.609375 50.527344 27.910156 49.113281 27.3125 C 47.773438 26.792969 46.582031 25.453125 45.691406 23.964844 C 44.5 21.953125 44.128906 18.828125 43.605469 16 C 43.011719 12.949219 41.746094 8.484375 42.492188 6.25 C 42.9375 4.835938 44.203125 3.722656 45.167969 3.199219 C 45.839844 2.828125 46.507812 2.828125 47.179688 2.976562 C 48.070312 3.125 49.335938 3.648438 49.933594 4.390625 C 50.601562 5.136719 50.601562 6.996094 51.050781 7.292969 C 51.273438 7.441406 51.570312 7.144531 51.71875 7.292969 C 52.089844 7.515625 52.3125 9.152344 52.015625 10.046875 C 51.71875 11.089844 50.527344 12.726562 49.410156 13.171875 C 48.296875 13.621094 46.285156 13.394531 45.320312 12.726562 C 44.351562 12.054688 43.457031 10.269531 43.382812 9.152344 C 43.308594 8.1875 43.753906 7.144531 44.277344 6.476562 C 44.796875 5.804688 45.765625 5.136719 46.582031 4.910156 C 47.402344 4.6875 48.519531 4.6875 49.335938 5.0625 C 50.15625 5.359375 51.050781 6.027344 51.496094 6.847656 C 52.015625 7.890625 52.238281 9.824219 51.71875 10.941406 C 51.199219 12.054688 49.5625 13.171875 48.445312 13.394531 C 47.550781 13.621094 46.507812 13.394531 45.691406 12.949219 C 44.945312 12.578125 44.351562 11.757812 43.828125 10.941406 C 43.160156 9.972656 42.339844 8.484375 42.339844 7.292969 C 42.339844 6.324219 42.714844 5.136719 43.382812 4.390625 C 44.203125 3.574219 46.0625 2.902344 47.179688 2.976562 C 48.222656 3.050781 49.335938 3.796875 49.933594 4.390625 C 50.453125 4.910156 50.601562 5.285156 50.976562 6.25 C 51.792969 8.78125 54.769531 19.425781 53.28125 20.839844 C 52.539062 21.582031 48.890625 20.242188 48.816406 19.871094 C 48.816406 19.574219 50.675781 19.351562 52.613281 18.902344 C 58.863281 17.488281 85.582031 11.609375 92.28125 10.867188 C 94.511719 10.640625 95.183594 10.566406 96.746094 10.792969 C 98.457031 11.015625 100.914062 11.3125 102.101562 12.429688 C 103.292969 13.46875 103.367188 15.109375 103.964844 17.265625 C 105.003906 21.210938 107.984375 30.8125 107.089844 34.382812 C 106.570312 36.320312 105.824219 37.210938 103.890625 38.253906 C 99.351562 40.859375 84.910156 41.304688 75.683594 42.273438 C 66.902344 43.089844 53.726562 39.890625 49.859375 43.761719 C 46.957031 46.664062 50.304688 55.296875 48.890625 57.902344 C 48.222656 59.242188 46.957031 59.984375 45.914062 60.207031 C 44.945312 60.429688 43.753906 60.058594 43.011719 59.6875 C 42.414062 59.390625 41.597656 58.792969 41.671875 58.273438 C 41.820312 57.15625 47.773438 53.511719 48.890625 53.957031 C 49.484375 54.253906 49.5625 55.964844 49.410156 56.859375 C 49.1875 57.753906 48.519531 58.792969 47.847656 59.316406 C 47.328125 59.761719 46.734375 60.058594 46.0625 60.132812 C 45.242188 60.207031 44.128906 60.132812 43.234375 59.613281 C 41.894531 58.867188 41.300781 57.007812 39.289062 55.371094 C 35.195312 51.949219 23.585938 45.695312 17.929688 41.75 C 14.0625 39.070312 10.785156 36.691406 8.480469 34.605469 C 6.917969 33.265625 4.757812 31.554688 4.980469 30.8125 C 5.277344 30.140625 9.820312 29.992188 9.894531 30.289062 C 9.96875 30.511719 9 31.109375 8.40625 31.332031 C 7.660156 31.554688 6.46875 31.554688 5.726562 31.332031 C 5.128906 31.109375 4.683594 30.738281 4.3125 30.289062 C 3.789062 29.695312 3.34375 28.578125 3.34375 27.761719 C 3.34375 26.941406 3.492188 26.121094 4.3125 25.304688 C 6.394531 23.144531 14.730469 21.210938 20.238281 18.234375 C 26.9375 14.660156 37.652344 5.804688 41.226562 4.761719 C 42.265625 4.390625 42.863281 4.464844 43.53125 4.6875 C 44.203125 4.988281 44.871094 5.582031 45.242188 6.25 C 45.617188 6.847656 45.691406 7.8125 45.542969 8.484375 C 45.394531 9.226562 44.203125 10.417969 44.203125 10.417969 " clip-rule="nonzero"/></clipPath><clipPath id="5676a3ae70"><path d="M 25.265625 10.003906 L 46.816406 10.003906 L 46.816406 34.328125 L 25.265625 34.328125 Z M 25.265625 10.003906 " clip-rule="nonzero"/></clipPath><clipPath id="6e6f39c1ce"><path d="M 25.359375 29.078125 C 25.359375 29.078125 25.359375 29.003906 25.359375 28.929688 C 25.359375 28.929688 25.359375 28.929688 25.359375 28.855469 C 25.359375 28.78125 25.433594 28.707031 25.433594 28.628906 C 25.433594 28.480469 25.507812 28.109375 25.507812 28.109375 C 25.582031 28.109375 25.65625 27.886719 25.730469 27.738281 C 25.730469 27.664062 25.730469 27.664062 25.730469 27.589844 C 25.804688 27.515625 25.804688 27.441406 25.882812 27.441406 C 25.882812 27.292969 25.882812 26.398438 26.105469 26.027344 C 26.328125 25.578125 26.847656 25.355469 27.070312 24.910156 C 27.445312 24.3125 27.296875 23.496094 27.816406 22.824219 C 28.484375 21.933594 30.046875 21.261719 31.089844 20.296875 C 32.207031 19.253906 33.398438 17.394531 34.289062 16.722656 C 34.738281 16.277344 35.40625 16.203125 35.554688 15.980469 C 35.628906 15.90625 35.554688 15.828125 35.628906 15.679688 C 35.777344 15.085938 37.269531 12.332031 37.417969 12.332031 C 37.417969 12.332031 37.417969 12.40625 37.417969 12.40625 C 37.417969 12.40625 37.566406 12.183594 37.640625 12.109375 C 37.714844 11.960938 37.9375 11.738281 37.9375 11.738281 C 37.9375 11.738281 38.234375 11.511719 38.382812 11.4375 C 38.457031 11.289062 38.757812 11.140625 38.757812 11.140625 C 38.757812 11.066406 39.054688 10.992188 39.203125 10.917969 C 39.351562 10.84375 39.648438 10.695312 39.722656 10.695312 C 39.722656 10.695312 40.019531 10.621094 40.171875 10.621094 C 40.320312 10.621094 40.394531 10.621094 40.46875 10.621094 C 40.617188 10.546875 40.765625 10.472656 40.988281 10.398438 C 41.136719 10.324219 41.433594 10.25 41.433594 10.25 C 41.433594 10.25 41.808594 10.175781 41.957031 10.175781 C 42.105469 10.175781 42.476562 10.097656 42.476562 10.097656 C 42.476562 10.097656 42.773438 10.175781 43 10.175781 C 43.148438 10.25 43.445312 10.25 43.445312 10.25 C 43.519531 10.25 43.816406 10.398438 43.964844 10.472656 C 44.113281 10.472656 44.414062 10.621094 44.414062 10.621094 C 44.414062 10.621094 44.710938 10.84375 44.859375 10.917969 C 45.007812 10.992188 45.304688 11.214844 45.304688 11.214844 C 45.304688 11.214844 45.527344 11.511719 45.601562 11.585938 C 45.75 11.738281 45.976562 11.960938 45.976562 12.035156 C 45.976562 12.035156 46.125 12.332031 46.199219 12.480469 C 46.273438 12.628906 46.421875 12.925781 46.421875 12.925781 C 46.421875 12.925781 46.496094 13.226562 46.570312 13.449219 C 46.570312 13.597656 46.644531 13.894531 46.644531 13.894531 C 46.644531 13.894531 46.644531 14.265625 46.644531 14.414062 C 46.644531 14.566406 46.644531 14.9375 46.644531 14.9375 C 46.644531 14.9375 46.570312 15.308594 46.496094 15.457031 C 46.496094 15.605469 46.421875 15.753906 46.421875 15.90625 C 46.273438 16.351562 45.976562 17.46875 45.902344 17.542969 C 45.902344 17.542969 45.902344 17.542969 45.902344 17.617188 C 45.902344 17.617188 46.050781 17.988281 46.125 18.359375 C 46.347656 19.328125 46.867188 22.007812 46.71875 23.570312 C 46.496094 25.058594 46.050781 26.546875 45.15625 27.664062 C 44.261719 28.78125 42.328125 30.269531 41.433594 30.269531 C 40.839844 30.195312 40.320312 29.226562 40.171875 29.226562 C 40.171875 29.226562 39.871094 29.300781 39.722656 29.300781 C 39.574219 29.300781 39.351562 29.375 39.351562 29.375 C 39.351562 29.375 39.054688 29.375 38.90625 29.375 C 38.757812 29.375 38.53125 29.375 38.53125 29.375 C 38.53125 29.375 38.234375 29.300781 38.085938 29.300781 C 38.011719 29.226562 37.714844 29.152344 37.714844 29.152344 C 37.640625 29.152344 36.597656 30.863281 35.628906 31.609375 C 34.363281 32.648438 31.238281 34.363281 30.199219 34.285156 C 29.75 34.210938 29.453125 33.542969 29.304688 33.542969 C 29.230469 33.542969 29.15625 33.46875 29.082031 33.46875 C 29.007812 33.46875 28.785156 33.46875 28.785156 33.46875 C 28.785156 33.46875 28.410156 33.320312 28.261719 33.320312 C 28.1875 33.320312 28.1875 33.246094 28.113281 33.246094 C 28.113281 33.246094 27.964844 33.246094 27.964844 33.246094 C 27.890625 33.246094 27.890625 33.171875 27.890625 33.171875 C 27.890625 33.171875 27.816406 33.171875 27.816406 33.171875 C 27.816406 33.171875 27.519531 32.949219 27.371094 32.871094 C 27.21875 32.796875 26.921875 32.648438 26.921875 32.648438 C 26.921875 32.648438 26.921875 32.574219 26.847656 32.574219 C 26.847656 32.574219 26.847656 32.5 26.773438 32.5 C 26.773438 32.5 26.699219 32.425781 26.699219 32.351562 C 26.625 32.351562 26.625 32.277344 26.550781 32.277344 C 26.476562 32.203125 26.253906 31.90625 26.253906 31.90625 C 26.253906 31.90625 26.105469 31.683594 26.03125 31.609375 C 26.03125 31.535156 25.957031 31.535156 25.957031 31.457031 C 25.882812 31.457031 25.882812 31.382812 25.882812 31.308594 C 25.804688 31.234375 25.730469 31.085938 25.730469 31.085938 C 25.730469 31.085938 25.582031 30.714844 25.582031 30.566406 C 25.507812 30.492188 25.507812 30.417969 25.507812 30.417969 C 25.507812 30.34375 25.507812 30.34375 25.507812 30.34375 C 25.507812 30.34375 25.359375 30.269531 25.359375 30.269531 C 25.359375 30.195312 25.433594 30.042969 25.433594 29.96875 C 25.433594 29.894531 25.433594 29.746094 25.359375 29.597656 C 25.359375 29.449219 25.359375 29.078125 25.359375 29.078125 " clip-rule="nonzero"/></clipPath><clipPath id="45c3dedd39"><path d="M 12.136719 12.800781 L 101.839844 12.800781 L 101.839844 48.554688 L 12.136719 48.554688 Z M 12.136719 12.800781 " clip-rule="nonzero"/></clipPath><clipPath id="0ea5a53340"><path d="M 12.1875 30.492188 C 12.261719 29.820312 12.261719 29.523438 12.261719 29.523438 C 12.261719 29.523438 12.335938 29.226562 12.410156 29.003906 C 12.484375 28.855469 12.558594 28.554688 12.558594 28.554688 C 12.558594 28.554688 12.707031 28.257812 12.78125 28.109375 C 12.929688 27.960938 13.082031 27.738281 13.082031 27.664062 C 13.082031 27.664062 13.304688 27.441406 13.453125 27.367188 C 13.527344 27.214844 13.75 26.992188 13.75 26.992188 C 13.824219 26.992188 14.046875 26.84375 14.195312 26.695312 C 14.34375 26.621094 14.417969 26.546875 14.644531 26.472656 C 15.015625 26.25 15.757812 25.800781 16.28125 25.652344 C 16.800781 25.429688 17.398438 25.652344 17.769531 25.355469 C 18.214844 25.058594 18.066406 24.089844 18.585938 23.71875 C 19.332031 23.125 21.863281 23.273438 22.308594 23.050781 C 22.457031 23.050781 22.53125 22.898438 22.53125 22.898438 C 22.53125 22.898438 23.351562 22.453125 23.574219 22.230469 C 23.648438 22.15625 23.648438 22.082031 23.722656 21.933594 C 24.09375 21.636719 25.359375 21.039062 25.957031 20.742188 C 26.328125 20.519531 26.550781 20.445312 26.847656 20.148438 C 27.296875 19.847656 27.667969 19.476562 28.261719 18.882812 C 29.304688 17.914062 30.941406 15.828125 32.503906 14.863281 C 33.992188 13.894531 35.855469 12.703125 37.34375 12.851562 C 38.757812 13.078125 41.0625 14.863281 41.285156 15.828125 C 41.433594 16.5 39.945312 17.46875 40.097656 17.839844 C 40.171875 18.136719 40.914062 17.988281 41.136719 18.285156 C 41.433594 18.808594 40.839844 20.890625 40.988281 20.964844 C 41.0625 21.039062 41.210938 20.816406 41.210938 20.816406 C 41.210938 20.816406 41.511719 20.742188 41.660156 20.667969 C 41.808594 20.59375 42.105469 20.519531 42.105469 20.519531 C 42.179688 20.519531 42.476562 20.445312 42.625 20.445312 C 42.773438 20.445312 43.074219 20.371094 43.074219 20.371094 C 43.074219 20.371094 43.445312 20.445312 43.59375 20.445312 C 43.742188 20.445312 44.039062 20.519531 44.039062 20.519531 C 44.039062 20.519531 44.335938 20.59375 44.488281 20.667969 C 44.636719 20.742188 44.933594 20.816406 44.933594 20.816406 C 44.933594 20.816406 45.230469 21.039062 45.378906 21.113281 C 45.453125 21.1875 45.75 21.335938 45.75 21.410156 C 45.75 21.410156 45.976562 21.636719 46.050781 21.710938 C 46.199219 21.859375 46.347656 22.082031 46.421875 22.082031 C 46.421875 22.082031 46.570312 22.378906 46.644531 22.527344 C 46.71875 22.675781 46.867188 22.976562 46.867188 22.976562 C 46.867188 22.976562 46.941406 23.273438 46.941406 23.421875 C 47.015625 23.570312 47.089844 23.867188 47.089844 23.867188 C 47.089844 23.867188 47.089844 24.238281 47.089844 24.386719 C 47.089844 24.539062 47.089844 24.835938 47.089844 24.835938 C 47.089844 24.835938 47.015625 24.984375 47.015625 24.984375 C 47.015625 25.058594 47.089844 25.058594 47.089844 25.058594 C 47.089844 25.058594 47.390625 25.132812 47.539062 25.207031 C 47.6875 25.28125 47.984375 25.429688 47.984375 25.429688 C 47.984375 25.429688 48.28125 25.652344 48.429688 25.726562 C 48.429688 25.800781 48.503906 25.878906 48.578125 25.878906 C 48.578125 25.800781 48.804688 25.429688 48.804688 25.429688 C 48.804688 25.429688 49.027344 25.207031 49.101562 25.058594 C 49.25 24.910156 49.472656 24.6875 49.472656 24.6875 C 49.472656 24.6875 49.695312 24.539062 49.84375 24.386719 C 49.992188 24.3125 50.21875 24.164062 50.292969 24.164062 C 50.292969 24.164062 50.589844 24.015625 50.738281 23.941406 C 50.886719 23.941406 51.183594 23.792969 51.183594 23.792969 C 51.183594 23.792969 51.484375 23.71875 51.707031 23.71875 C 51.855469 23.71875 52.152344 23.644531 52.152344 23.644531 C 52.152344 23.644531 52.898438 23.71875 53.492188 23.71875 C 54.535156 23.71875 56.691406 23.644531 57.734375 23.71875 C 58.328125 23.792969 58.628906 24.015625 59.222656 24.015625 C 59.964844 24.015625 60.933594 23.644531 62.050781 23.496094 C 63.539062 23.273438 67.410156 22.976562 67.410156 22.976562 C 67.410156 22.976562 67.707031 22.976562 67.929688 22.976562 C 68.078125 22.976562 68.375 22.976562 68.375 22.976562 C 68.375 22.976562 68.675781 23.050781 68.898438 23.050781 C 69.046875 23.125 69.34375 23.199219 69.34375 23.199219 C 69.34375 23.199219 69.714844 23.421875 69.789062 23.421875 C 69.863281 23.421875 70.089844 23.347656 70.3125 23.273438 C 70.535156 23.199219 70.980469 23.199219 71.203125 23.125 C 71.277344 23.125 71.429688 23.125 71.429688 23.125 C 71.503906 23.125 71.503906 23.050781 71.503906 23.050781 C 71.503906 23.050781 71.726562 22.824219 71.800781 22.675781 C 71.875 22.601562 72.097656 22.304688 72.097656 22.304688 C 72.097656 22.304688 72.394531 22.15625 72.542969 22.007812 C 72.691406 21.933594 72.917969 21.710938 72.917969 21.710938 C 72.917969 21.710938 73.214844 21.636719 73.363281 21.5625 C 73.511719 21.484375 73.808594 21.335938 73.808594 21.335938 C 73.882812 21.335938 74.179688 21.335938 74.332031 21.335938 C 74.480469 21.261719 74.851562 21.261719 74.851562 21.261719 C 74.851562 21.261719 75.371094 21.261719 75.894531 21.1875 C 76.933594 21.1875 79.167969 21.113281 80.953125 20.964844 C 83.039062 20.816406 87.355469 20.371094 87.429688 20.371094 C 87.429688 20.371094 87.726562 20.371094 87.875 20.371094 C 88.023438 20.371094 88.023438 20.371094 88.171875 20.296875 C 88.695312 20.296875 91.074219 19.921875 92.488281 19.699219 C 93.828125 19.550781 95.539062 19.179688 96.359375 19.105469 C 96.804688 19.03125 97.03125 19.03125 97.328125 19.03125 C 97.476562 19.03125 97.625 19.03125 97.773438 19.03125 C 97.921875 19.03125 98.21875 19.03125 98.292969 19.03125 C 98.292969 19.03125 98.59375 19.105469 98.742188 19.105469 C 98.890625 19.179688 99.1875 19.253906 99.1875 19.253906 C 99.1875 19.253906 99.484375 19.402344 99.632812 19.476562 C 99.78125 19.550781 100.082031 19.699219 100.082031 19.699219 C 100.082031 19.699219 100.304688 19.921875 100.453125 20.070312 C 100.527344 20.148438 100.75 20.371094 100.75 20.371094 C 100.75 20.371094 100.972656 20.667969 101.046875 20.742188 C 101.121094 20.890625 101.347656 21.1875 101.347656 21.1875 C 101.347656 21.1875 101.421875 21.484375 101.496094 21.636719 C 101.570312 21.785156 101.644531 22.082031 101.644531 22.082031 C 101.644531 22.082031 101.71875 22.378906 101.71875 22.527344 C 101.71875 22.75 101.792969 23.050781 101.792969 23.050781 C 101.792969 23.050781 101.71875 23.347656 101.71875 23.496094 C 101.644531 23.71875 101.644531 24.015625 101.644531 24.015625 C 101.644531 24.015625 101.496094 24.3125 101.496094 24.464844 C 101.421875 24.613281 101.273438 24.910156 101.273438 24.910156 C 101.273438 24.910156 101.121094 25.207031 100.972656 25.28125 C 100.898438 25.429688 100.75 25.726562 100.75 25.726562 C 100.75 25.726562 100.378906 25.953125 100.378906 26.027344 C 100.304688 26.175781 100.304688 28.332031 99.707031 29.078125 C 99.1875 29.894531 97.625 30.042969 97.105469 30.714844 C 96.65625 31.234375 96.953125 31.980469 96.433594 32.574219 C 95.765625 33.394531 93.753906 34.363281 92.636719 34.660156 C 91.96875 34.882812 91.222656 34.511719 90.851562 34.808594 C 90.554688 35.03125 90.851562 35.773438 90.480469 36.148438 C 89.660156 36.816406 86.832031 36.742188 84.972656 36.890625 C 83.039062 37.039062 80.285156 37.113281 79.09375 36.816406 C 78.496094 36.59375 78.421875 36.222656 77.902344 36.074219 C 77.007812 35.851562 75.148438 36.296875 74.179688 36.445312 C 73.511719 36.519531 72.917969 36.519531 72.46875 36.667969 C 72.171875 36.742188 72.023438 36.816406 71.726562 36.890625 C 71.429688 36.964844 70.683594 36.890625 70.535156 36.964844 C 70.460938 36.964844 70.460938 36.964844 70.386719 36.964844 C 70.089844 36.964844 67.484375 37.113281 67.484375 37.113281 C 67.410156 37.113281 67.109375 37.039062 66.960938 37.039062 C 66.8125 37.039062 66.441406 36.964844 66.441406 36.964844 C 66.441406 36.964844 66.144531 36.890625 65.996094 36.816406 C 65.847656 36.742188 65.546875 36.667969 65.546875 36.667969 C 65.472656 36.667969 65.472656 36.667969 65.472656 36.667969 C 65.472656 36.667969 65.398438 36.519531 65.25 36.519531 C 64.730469 36.371094 62.871094 37.039062 61.53125 36.964844 C 59.964844 36.964844 56.617188 36.148438 56.542969 36.148438 C 56.542969 36.148438 56.246094 36.148438 56.097656 36.148438 C 55.949219 36.148438 55.574219 36.148438 55.574219 36.148438 C 55.574219 36.148438 55.277344 36.074219 55.128906 36 C 54.980469 35.925781 54.683594 35.851562 54.683594 35.851562 C 54.683594 35.851562 54.460938 35.699219 54.3125 35.625 C 53.9375 35.625 52.746094 36.148438 52.226562 36.148438 C 51.855469 36.148438 51.707031 35.925781 51.332031 36 C 50.664062 36.148438 49.621094 37.5625 48.65625 37.859375 C 47.6875 38.15625 46.496094 37.414062 45.675781 37.785156 C 44.785156 38.15625 43.890625 39.347656 43.59375 40.09375 C 43.296875 40.6875 43.296875 41.804688 43.296875 41.804688 C 43.296875 41.804688 43.371094 42.175781 43.371094 42.324219 C 43.445312 42.472656 43.445312 42.769531 43.445312 42.84375 C 43.445312 42.84375 43.445312 43.144531 43.371094 43.292969 C 43.371094 43.441406 43.371094 43.8125 43.371094 43.8125 C 43.371094 43.8125 43.222656 44.109375 43.148438 44.257812 C 43.148438 44.410156 43 44.78125 43 44.78125 C 43 44.78125 42.847656 45.003906 42.699219 45.152344 C 42.625 45.300781 42.476562 45.597656 42.476562 45.597656 C 42.402344 45.597656 42.179688 45.824219 42.105469 45.898438 C 41.957031 46.046875 41.734375 46.269531 41.734375 46.269531 C 41.734375 46.269531 41.433594 46.417969 41.285156 46.492188 C 41.136719 46.566406 40.839844 46.714844 40.839844 46.714844 C 40.839844 46.714844 40.46875 46.789062 40.320312 46.863281 C 40.171875 46.9375 40.019531 46.863281 39.871094 47.011719 C 39.425781 47.238281 38.90625 48.351562 38.160156 48.5 C 36.96875 48.726562 34.589844 47.386719 33.101562 46.492188 C 31.6875 45.523438 30.421875 44.183594 29.378906 43.070312 C 28.558594 42.175781 27.519531 40.539062 27.371094 40.390625 C 27.21875 40.316406 24.316406 37.859375 23.277344 36.816406 C 22.605469 36.148438 22.160156 35.253906 21.714844 35.105469 C 21.5625 35.03125 21.339844 35.253906 21.265625 35.179688 C 21.117188 35.03125 21.191406 34.585938 21.117188 34.4375 C 21.042969 34.210938 20.894531 33.988281 20.671875 33.839844 C 20.148438 33.691406 18.066406 34.0625 18.066406 34.0625 C 18.066406 34.0625 17.695312 34.136719 17.546875 34.210938 C 17.398438 34.285156 17.097656 34.363281 17.097656 34.363281 C 17.097656 34.363281 16.726562 34.363281 16.578125 34.363281 C 16.429688 34.4375 16.132812 34.4375 16.058594 34.4375 C 16.058594 34.4375 15.757812 34.363281 15.609375 34.363281 C 15.460938 34.285156 15.089844 34.210938 15.089844 34.210938 C 15.089844 34.210938 14.792969 34.0625 14.644531 34.0625 C 14.496094 33.988281 14.195312 33.839844 14.195312 33.839844 C 14.195312 33.839844 13.898438 33.617188 13.824219 33.542969 C 13.675781 33.394531 13.378906 33.246094 13.378906 33.171875 C 13.378906 33.171875 13.230469 32.949219 13.082031 32.796875 C 13.003906 32.648438 12.78125 32.425781 12.78125 32.425781 C 12.78125 32.425781 12.632812 32.128906 12.558594 31.980469 C 12.484375 31.832031 12.410156 31.535156 12.410156 31.535156 C 12.335938 31.457031 12.335938 31.160156 12.261719 31.011719 C 12.261719 30.863281 12.1875 30.492188 12.1875 30.492188 " clip-rule="nonzero"/></clipPath></defs><g clip-path="url(#9349f9b733)"><g clip-path="url(#ef6caaa825)"><path fill="#1e1e1e" d="M 0.367188 0 L 109.964844 0 L 109.964844 63.335938 L 0.367188 63.335938 Z M 0.367188 0 " fill-opacity="1" fill-rule="nonzero"/></g></g><g clip-path="url(#5676a3ae70)"><g clip-path="url(#6e6f39c1ce)"><path fill="#1e1e1e" d="M 22.382812 7.121094 L 49.695312 7.121094 L 49.695312 37.316406 L 22.382812 37.316406 Z M 22.382812 7.121094 " fill-opacity="1" fill-rule="nonzero"/></g></g><g clip-path="url(#45c3dedd39)"><g clip-path="url(#0ea5a53340)"><path fill="#1e1e1e" d="M 9.210938 9.875 L 104.765625 9.875 L 104.765625 51.480469 L 9.210938 51.480469 Z M 9.210938 9.875 " fill-opacity="1" fill-rule="nonzero"/></g></g></svg>