<svg xmlns="http://www.w3.org/2000/svg" xmlns:xlink="http://www.w3.org/1999/xlink" width="99" zoomAndPan="magnify" viewBox="0 0 74.25 43.499998" height="58" preserveAspectRatio="xMidYMid meet" version="1.0"><defs><g/><clipPath id="12a042dbde"><path d="M 2.882812 2.832031 L 70.5 2.832031 L 70.5 39.804688 L 2.882812 39.804688 Z M 2.882812 2.832031 " clip-rule="nonzero"/></clipPath><clipPath id="b63076c9cd"><path d="M 17.402344 12.605469 C 11.246094 13.496094 9.023438 14.53125 7.6875 15.867188 C 6.503906 17.128906 5.6875 19.054688 5.167969 20.613281 C 4.796875 22.023438 4.722656 23.355469 4.796875 24.765625 C 4.796875 26.101562 5.019531 27.433594 5.464844 28.769531 C 5.910156 30.105469 6.574219 31.585938 7.539062 32.625 C 8.503906 33.664062 9.617188 34.257812 11.097656 34.996094 C 13.175781 36.035156 16.734375 37.148438 19.179688 37.667969 C 21.257812 38.039062 22.667969 38.039062 25.039062 37.964844 C 28.746094 37.890625 34.382812 37.222656 39.570312 36.257812 C 45.578125 35.070312 54.328125 32.921875 58.925781 30.992188 C 61.667969 29.808594 63.597656 28.695312 65.152344 27.359375 C 66.339844 26.25 67.230469 24.988281 67.820312 23.800781 C 68.265625 22.835938 68.636719 22.023438 68.636719 20.910156 C 68.636719 19.425781 67.96875 17.351562 67.082031 15.792969 C 66.117188 14.164062 64.707031 12.679688 63.003906 11.269531 C 60.851562 9.566406 57.589844 7.710938 54.773438 6.671875 C 52.101562 5.710938 49.359375 5.488281 46.394531 5.191406 C 42.984375 4.820312 39.199219 4.523438 35.417969 4.820312 C 31.265625 5.191406 25.335938 6.671875 22.445312 7.414062 C 21.035156 7.785156 20.515625 7.859375 19.253906 8.453125 C 17.328125 9.34375 13.472656 12.011719 11.988281 13.050781 C 11.320312 13.496094 10.875 13.570312 10.652344 14.089844 C 10.433594 14.53125 11.023438 15.71875 10.800781 15.941406 C 10.582031 16.089844 9.617188 15.792969 9.394531 15.496094 C 9.246094 15.199219 9.394531 14.238281 9.691406 14.089844 C 9.988281 13.941406 11.246094 14.382812 11.394531 14.753906 C 11.542969 14.976562 11.171875 15.71875 10.875 15.941406 C 10.582031 16.089844 10.0625 16.089844 9.839844 15.941406 C 9.542969 15.644531 9.394531 14.382812 9.617188 14.164062 C 9.914062 13.941406 11.171875 14.308594 11.394531 14.605469 C 11.542969 14.828125 11.394531 15.347656 11.171875 15.570312 C 10.949219 15.867188 10.359375 16.089844 9.988281 16.015625 C 9.691406 15.867188 9.320312 15.273438 9.320312 14.753906 C 9.246094 13.867188 9.839844 12.382812 10.800781 11.269531 C 12.507812 9.492188 16.140625 7.5625 19.699219 6.226562 C 24.519531 4.523438 31.859375 3.261719 37.644531 2.964844 C 42.984375 2.742188 48.617188 3.113281 53.214844 4.449219 C 57.292969 5.636719 61.445312 7.859375 64.113281 9.9375 C 66.191406 11.492188 67.601562 13.273438 68.636719 14.976562 C 69.527344 16.386719 70.121094 17.796875 70.34375 19.203125 C 70.566406 20.464844 70.417969 21.800781 69.972656 23.058594 C 69.601562 24.320312 68.933594 25.507812 67.894531 26.691406 C 66.5625 28.324219 64.929688 30.105469 62.1875 31.585938 C 57.292969 34.183594 46.542969 36.554688 39.792969 37.890625 C 34.382812 39 28.820312 39.59375 24.964844 39.667969 C 22.445312 39.742188 21.035156 39.667969 18.882812 39.296875 C 16.214844 38.777344 12.582031 37.59375 10.285156 36.480469 C 8.578125 35.664062 7.242188 34.847656 6.132812 33.664062 C 5.019531 32.402344 4.277344 30.769531 3.757812 29.214844 C 3.238281 27.730469 3.015625 26.175781 3.015625 24.617188 C 2.941406 23.132812 2.941406 21.578125 3.460938 20.019531 C 3.980469 18.167969 4.871094 15.867188 6.429688 14.382812 C 8.207031 12.605469 11.691406 10.972656 13.917969 10.527344 C 15.472656 10.230469 17.476562 10.378906 18.144531 10.898438 C 18.441406 11.121094 18.589844 11.640625 18.515625 11.9375 C 18.367188 12.234375 17.402344 12.605469 17.402344 12.605469 " clip-rule="nonzero"/></clipPath></defs><g clip-path="url(#12a042dbde)"><g clip-path="url(#b63076c9cd)"><path fill="#1e1e1e" d="M 0.0507812 0 L 73.328125 0 L 73.328125 42.636719 L 0.0507812 42.636719 Z M 0.0507812 0 " fill-opacity="1" fill-rule="nonzero"/></g></g><g fill="#000000" fill-opacity="1"><g transform="translate(20.179683, 38.475079)"><g><path d="M 0.40625 -0.28125 C 0.40625 -0.40625 0.429688 -0.5 0.484375 -0.5625 C 0.546875 -0.625 0.628906 -0.65625 0.734375 -0.65625 C 0.835938 -0.65625 0.914062 -0.625 0.96875 -0.5625 C 1.03125 -0.5 1.0625 -0.40625 1.0625 -0.28125 C 1.0625 -0.164062 1.03125 -0.078125 0.96875 -0.015625 C 0.90625 0.046875 0.828125 0.078125 0.734375 0.078125 C 0.640625 0.078125 0.5625 0.0507812 0.5 0 C 0.4375 -0.0625 0.40625 -0.15625 0.40625 -0.28125 Z M 0.40625 -0.28125 "/></g></g></g></svg>