<svg xmlns="http://www.w3.org/2000/svg" xmlns:xlink="http://www.w3.org/1999/xlink" width="387" zoomAndPan="magnify" viewBox="0 0 290.25 233.249991" height="311" preserveAspectRatio="xMidYMid meet" version="1.0"><defs><g/><clipPath id="66611ac593"><path d="M 2.328125 2.238281 L 286 2.238281 L 286 229.722656 L 2.328125 229.722656 Z M 2.328125 2.238281 " clip-rule="nonzero"/></clipPath><clipPath id="cdda8ec080"><path d="M 42.253906 29.15625 C 45.695312 44.929688 46.21875 48.742188 46.59375 53.078125 C 47.113281 58.011719 47.488281 62.871094 47.488281 68.929688 C 47.488281 77.300781 46.742188 88.515625 45.695312 98.609375 C 44.648438 109.222656 43.003906 121.183594 41.132812 131.128906 C 39.5625 139.800781 37.695312 147.203125 35.527344 155.199219 C 33.433594 163.199219 30.890625 171.421875 28.351562 178.972656 C 26.03125 186.078125 23.789062 191.984375 20.875 199.234375 C 17.4375 207.832031 11.976562 223.382812 8.839844 227.269531 C 7.792969 228.539062 6.894531 229.136719 5.921875 229.214844 C 5.101562 229.289062 3.902344 228.613281 3.457031 227.867188 C 2.933594 227.195312 2.410156 226.148438 3.082031 225.101562 C 6.894531 219.121094 68.796875 203.195312 89.878906 196.765625 C 101.914062 193.105469 108.566406 191.234375 118.285156 188.769531 C 128.378906 186.152344 136.976562 184.132812 149.386719 181.664062 C 167.628906 178.152344 194.839844 173.21875 217.191406 170.453125 C 238.875 167.761719 280.363281 168.507812 281.488281 165.144531 C 281.785156 164.246094 278.796875 163.273438 277.898438 162.078125 C 277.152344 161.03125 277 160.359375 276.402344 158.414062 C 274.308594 152.285156 268.402344 129.410156 266.085938 118.71875 C 264.515625 111.617188 263.542969 107.28125 262.945312 100.703125 C 262.273438 93 262.496094 84.253906 262.796875 75.28125 C 263.246094 65.117188 264.21875 53.152344 265.5625 42.835938 C 266.832031 33.269531 270.945312 20.183594 270.496094 15.25 C 270.347656 13.457031 270.199219 12.410156 269.152344 11.511719 C 267.582031 10.242188 263.09375 10.242188 260.628906 10.019531 C 258.683594 9.867188 257.714844 9.941406 255.546875 10.09375 C 251.582031 10.390625 246.722656 10.691406 239.023438 12.035156 C 220.183594 15.402344 166.058594 30.425781 143.257812 35.285156 C 130.769531 37.976562 123.667969 39.175781 114.023438 40.820312 C 104.828125 42.3125 95.335938 44.035156 86.8125 44.632812 C 79.410156 45.230469 72.382812 45.304688 65.953125 44.78125 C 60.273438 44.332031 53.542969 43.210938 50.03125 42.164062 C 48.238281 41.640625 47.414062 41.417969 46.070312 40.445312 C 43.824219 38.800781 39.863281 34.164062 39.042969 32.070312 C 38.59375 31.101562 38.59375 30.351562 38.742188 29.679688 C 38.964844 28.933594 39.5625 28.035156 40.164062 27.660156 C 40.835938 27.210938 41.882812 26.988281 42.628906 27.0625 C 43.378906 27.210938 44.347656 27.585938 44.796875 28.257812 C 45.394531 29.15625 45.546875 31.324219 45.171875 32.296875 C 44.871094 32.96875 44.125 33.492188 43.527344 33.714844 C 42.855469 34.015625 41.957031 34.089844 41.285156 33.941406 C 40.609375 33.714844 39.863281 33.269531 39.414062 32.671875 C 38.964844 32.148438 38.59375 31.324219 38.667969 30.578125 C 38.667969 29.679688 39.339844 28.257812 40.085938 27.660156 C 40.910156 27.136719 42.480469 26.914062 43.378906 27.289062 C 44.273438 27.585938 45.320312 28.78125 45.546875 29.679688 C 45.769531 30.652344 45.246094 32.148438 44.722656 32.894531 C 44.273438 33.492188 43.453125 33.867188 42.777344 33.941406 C 42.105469 34.089844 41.210938 33.941406 40.535156 33.640625 C 39.9375 33.34375 39.339844 32.671875 38.964844 32.070312 C 38.667969 31.398438 38.742188 29.828125 38.742188 29.828125 C 38.667969 29.828125 38.667969 31.324219 38.742188 31.324219 C 38.816406 31.324219 38.667969 29.53125 39.042969 28.855469 C 39.414062 28.183594 40.238281 27.511719 40.984375 27.210938 C 41.65625 26.988281 42.480469 26.839844 43.453125 27.289062 C 45.320312 28.183594 47.9375 33.867188 50.179688 35.511719 C 51.675781 36.632812 52.722656 36.929688 54.589844 37.453125 C 57.507812 38.277344 61.769531 38.875 66.105469 39.175781 C 71.859375 39.546875 78.960938 39.621094 86.140625 39.097656 C 94.4375 38.425781 104.007812 36.707031 113.128906 35.210938 C 122.546875 33.640625 129.875 32.445312 141.984375 29.753906 C 162.917969 25.195312 208.148438 12.785156 226.910156 8.449219 C 236.183594 6.355469 241.488281 5.007812 247.769531 4.113281 C 252.855469 3.4375 257.636719 2.839844 261.675781 2.992188 C 264.742188 3.214844 267.433594 3.664062 269.75 4.558594 C 271.691406 5.308594 273.5625 6.28125 274.757812 7.550781 C 275.730469 8.746094 276.253906 10.316406 276.550781 11.738281 C 276.851562 13.082031 276.851562 13.980469 276.703125 16 C 276.253906 21.15625 272.214844 36.332031 271.167969 43.433594 C 270.496094 47.769531 270.496094 49.9375 270.125 54.125 C 269.601562 59.957031 268.777344 68.03125 268.554688 75.359375 C 268.253906 83.207031 267.953125 92.328125 268.703125 99.730469 C 269.300781 106.007812 270.199219 110.046875 271.917969 117.148438 C 274.683594 128.886719 283.953125 155.277344 285.375 163.050781 C 285.824219 165.667969 286.347656 166.9375 285.671875 168.359375 C 285.148438 169.703125 284.027344 170.601562 282.085938 171.347656 C 277.597656 173.070312 266.308594 171.648438 257.039062 172.320312 C 245.453125 173.070312 232.742188 174.113281 218.015625 176.058594 C 198.578125 178.601562 168.75 183.609375 150.65625 187.199219 C 138.320312 189.589844 129.800781 191.683594 119.855469 194.226562 C 110.210938 196.691406 102.886719 198.710938 91.671875 202.226562 C 74.476562 207.609375 39.789062 220.242188 27.15625 224.277344 C 21.921875 226 19.378906 226.894531 16.089844 227.71875 C 13.398438 228.390625 10.78125 228.839844 8.6875 228.988281 C 7.117188 229.136719 4.652344 229.214844 4.652344 228.914062 C 4.578125 228.613281 8.761719 227.121094 8.839844 227.269531 C 8.914062 227.34375 6.894531 229.136719 5.921875 229.214844 C 5.101562 229.289062 3.902344 228.613281 3.457031 227.867188 C 2.933594 227.195312 2.859375 226.371094 3.082031 225.101562 C 3.679688 221.4375 9.210938 212.617188 12.277344 205.4375 C 15.867188 196.917969 19.976562 186.300781 23.042969 177.328125 C 25.808594 169.105469 27.976562 161.628906 30.070312 153.707031 C 32.164062 145.855469 34.03125 138.605469 35.601562 130.15625 C 37.394531 120.289062 38.964844 108.550781 40.011719 98.085938 C 40.984375 88.214844 41.808594 78.648438 41.65625 69.152344 C 41.433594 59.957031 40.164062 49.191406 39.117188 41.941406 C 38.367188 37.082031 36.425781 32.222656 36.574219 29.902344 C 36.648438 29.007812 36.875 28.484375 37.320312 28.035156 C 37.695312 27.511719 38.441406 27.136719 39.117188 26.988281 C 39.714844 26.914062 40.535156 27.136719 41.058594 27.4375 C 41.582031 27.8125 42.253906 29.15625 42.253906 29.15625 " clip-rule="nonzero"/></clipPath></defs><g clip-path="url(#66611ac593)"><g clip-path="url(#cdda8ec080)"><path fill="#1e1e1e" d="M 0.0898438 0 L 288.738281 0 L 288.738281 231.960938 L 0.0898438 231.960938 Z M 0.0898438 0 " fill-opacity="1" fill-rule="nonzero"/></g></g><g fill="#000000" fill-opacity="1"><g transform="translate(40.167134, 37.862973)"><g><path d="M 1.03125 -0.71875 C 1.03125 -1.019531 1.097656 -1.25 1.234375 -1.40625 C 1.378906 -1.570312 1.582031 -1.65625 1.84375 -1.65625 C 2.101562 -1.65625 2.304688 -1.570312 2.453125 -1.40625 C 2.597656 -1.25 2.671875 -1.019531 2.671875 -0.71875 C 2.671875 -0.425781 2.597656 -0.195312 2.453125 -0.03125 C 2.304688 0.125 2.101562 0.203125 1.84375 0.203125 C 1.601562 0.203125 1.40625 0.128906 1.25 -0.015625 C 1.101562 -0.160156 1.03125 -0.394531 1.03125 -0.71875 Z M 1.03125 -0.71875 "/></g></g></g></svg>