<svg xmlns="http://www.w3.org/2000/svg" xmlns:xlink="http://www.w3.org/1999/xlink" width="1166" zoomAndPan="magnify" viewBox="0 0 874.5 318.749988" height="425" preserveAspectRatio="xMidYMid meet" version="1.0"><defs><g/><clipPath id="c0956084f5"><path d="M 2.339844 2.996094 L 871 2.996094 L 871 315.429688 L 2.339844 315.429688 Z M 2.339844 2.996094 " clip-rule="nonzero"/></clipPath><clipPath id="a6589c6923"><path d="M 15.679688 37.394531 C 18.003906 27.578125 18.753906 26.378906 19.800781 25.253906 C 20.851562 24.132812 22.199219 22.855469 23.699219 22.40625 C 25.273438 21.957031 27.070312 22.109375 28.945312 22.707031 C 31.34375 23.53125 34.265625 27.277344 36.589844 27.652344 C 38.238281 27.953125 39.585938 27.277344 41.3125 26.453125 C 43.785156 25.332031 47.378906 21.582031 49.703125 20.234375 C 51.128906 19.410156 52.101562 18.734375 53.527344 18.660156 C 55.175781 18.511719 57.046875 18.960938 58.996094 20.085938 C 61.917969 21.808594 65.816406 28.027344 68.289062 29.976562 C 69.636719 30.949219 70.164062 31.851562 71.8125 31.851562 C 75.632812 31.773438 86.800781 22.332031 91.296875 20.910156 C 93.46875 20.234375 94.742188 20.160156 96.390625 20.457031 C 98.117188 20.757812 99.316406 21.582031 101.1875 22.632812 C 104.335938 24.355469 109.808594 29.601562 112.953125 30.5 C 114.679688 31.027344 115.425781 30.949219 117.375 30.5 C 121.421875 29.527344 130.414062 23.15625 135.210938 21.359375 C 138.132812 20.234375 140.53125 19.410156 142.707031 19.410156 C 144.28125 19.410156 145.105469 19.710938 146.976562 20.382812 C 150.875 21.808594 160.765625 28.027344 164.515625 29.300781 C 166.164062 29.902344 166.613281 30.125 168.1875 30.050781 C 171.183594 29.976562 176.203125 28.476562 181.074219 26.605469 C 188.121094 23.832031 200.785156 15.214844 205.804688 13.714844 C 207.828125 13.113281 208.355469 12.816406 210.226562 13.191406 C 214.5 14.238281 224.917969 23.980469 229.1875 25.253906 C 231.136719 25.855469 231.734375 25.78125 233.835938 25.332031 C 239.082031 24.28125 254.144531 15.214844 260.511719 12.890625 C 263.960938 11.617188 266.359375 10.714844 268.605469 10.640625 C 270.179688 10.640625 271.15625 10.867188 272.652344 11.464844 C 275.050781 12.515625 278.199219 15.511719 281.046875 17.011719 C 283.820312 18.433594 286.742188 19.710938 289.664062 20.234375 C 292.511719 20.757812 294.910156 20.832031 298.507812 20.308594 C 304.503906 19.335938 316.644531 14.015625 321.589844 12.816406 C 323.839844 12.289062 325.039062 11.914062 326.613281 12.066406 C 327.960938 12.140625 328.785156 12.441406 330.359375 13.113281 C 333.132812 14.3125 338.078125 18.585938 341.601562 19.710938 C 344.296875 20.609375 346.996094 20.609375 349.394531 20.457031 C 351.566406 20.382812 353.589844 19.785156 355.464844 19.183594 C 357.261719 18.585938 358.6875 17.835938 360.558594 16.863281 C 362.882812 15.664062 365.507812 13.640625 368.277344 12.140625 C 371.277344 10.566406 375.171875 8.542969 377.722656 7.71875 C 379.445312 7.195312 380.269531 6.820312 382.144531 7.042969 C 385.367188 7.417969 391.285156 11.089844 395.332031 12.140625 C 398.554688 13.039062 401.851562 13.714844 404.402344 13.640625 C 406.199219 13.640625 407.023438 13.339844 409.121094 12.738281 C 413.542969 11.464844 424.859375 6.144531 429.429688 5.097656 C 431.605469 4.644531 432.652344 4.722656 434.453125 4.722656 C 436.25 4.722656 437.824219 4.570312 440.148438 5.019531 C 444.269531 5.695312 451.6875 8.992188 456.410156 9.96875 C 459.933594 10.640625 463.304688 11.015625 465.851562 10.867188 C 467.5 10.792969 468.101562 10.566406 469.898438 10.042969 C 473.570312 8.992188 482.714844 3.746094 486.460938 3.597656 C 488.484375 3.597656 489.308594 4.347656 491.03125 5.171875 C 493.503906 6.296875 496.277344 9.21875 499.5 10.792969 C 503.097656 12.441406 507.070312 14.015625 511.640625 14.539062 C 517.113281 15.214844 524.007812 14.238281 530.300781 13.265625 C 536.820312 12.214844 544.464844 9.367188 549.9375 8.242188 C 553.832031 7.492188 557.355469 6.144531 559.980469 6.746094 C 561.925781 7.195312 563.125 8.394531 564.625 9.816406 C 566.421875 11.617188 567.921875 15.136719 569.644531 16.863281 C 570.996094 18.136719 572.121094 19.109375 573.617188 19.632812 C 575.265625 20.234375 577.515625 20.457031 579.3125 20.234375 C 581.113281 19.933594 582.386719 19.183594 584.558594 18.0625 C 588.605469 15.886719 596.324219 9.816406 601.121094 7.269531 C 604.492188 5.394531 607.640625 3.746094 610.113281 3.296875 C 611.6875 2.996094 612.585938 3.074219 614.234375 3.449219 C 616.859375 3.972656 621.128906 6.820312 624.054688 7.492188 C 626.300781 8.09375 627.800781 8.019531 630.273438 7.945312 C 634.171875 7.867188 640.390625 7.195312 645.035156 6.371094 C 649.308594 5.546875 653.878906 2.996094 657.175781 2.996094 C 659.351562 2.996094 661 3.746094 662.574219 4.496094 C 664.148438 5.246094 664.820312 6.59375 666.621094 7.492188 C 669.316406 8.769531 673.738281 10.191406 677.5625 10.566406 C 681.609375 10.941406 685.953125 10.265625 690.226562 9.515625 C 694.796875 8.691406 701.019531 5.546875 704.164062 5.769531 C 705.964844 5.84375 706.9375 6.59375 708.210938 7.417969 C 709.5625 8.394531 710.3125 10.191406 711.882812 11.316406 C 713.90625 12.738281 717.28125 14.238281 719.753906 14.613281 C 721.851562 14.988281 723.125 14.539062 725.75 14.089844 C 731.070312 13.039062 744.410156 7.570312 749.804688 7.269531 C 752.351562 7.042969 753.925781 7.195312 755.648438 8.167969 C 757.824219 9.367188 759.324219 12.816406 761.269531 14.613281 C 762.917969 16.1875 764.34375 17.535156 766.292969 18.511719 C 768.539062 19.632812 770.863281 20.160156 774.085938 20.683594 C 779.257812 21.507812 786.976562 21.808594 794.394531 21.507812 C 803.3125 21.132812 818.226562 17.761719 823.921875 17.910156 C 826.246094 17.984375 826.84375 17.835938 828.71875 18.734375 C 832.539062 20.457031 838.984375 30.050781 843.40625 30.949219 C 846.480469 31.625 849.476562 28.550781 852.023438 28.328125 C 853.898438 28.179688 855.773438 28.328125 857.121094 29.003906 C 858.320312 29.601562 859.144531 30.5 860.042969 31.773438 C 861.46875 33.722656 863.191406 37.695312 863.941406 40.019531 C 864.390625 41.59375 864.839844 42.566406 864.464844 44.140625 C 863.941406 46.386719 859.519531 49.6875 858.917969 52.085938 C 858.542969 53.65625 858.996094 55.082031 859.519531 56.429688 C 860.042969 57.855469 861.390625 58.828125 861.992188 60.328125 C 862.667969 61.976562 863.339844 64.300781 863.265625 66.023438 C 863.191406 67.445312 862.589844 68.644531 861.917969 69.921875 C 861.167969 71.34375 859.445312 72.691406 858.695312 74.265625 C 858.019531 75.839844 857.644531 77.863281 857.570312 79.4375 C 857.570312 80.9375 857.71875 81.910156 858.394531 83.558594 C 859.894531 86.933594 867.386719 93.75 868.210938 97.199219 C 868.660156 98.847656 867.988281 99.972656 867.613281 101.394531 C 867.164062 102.96875 865.589844 104.242188 865.589844 105.96875 C 865.664062 108.515625 870.011719 112.785156 870.011719 115.109375 C 870.011719 116.535156 868.585938 117.28125 868.363281 118.632812 C 868.136719 120.28125 869.410156 122.453125 869.335938 124.402344 C 869.261719 126.425781 868.960938 128.148438 867.988281 130.398438 C 866.414062 133.921875 860.269531 139.765625 859.445312 142.988281 C 858.996094 144.636719 859.519531 145.460938 859.894531 147.183594 C 860.566406 149.957031 863.191406 154.453125 863.714844 157.902344 C 864.164062 160.898438 863.714844 163.445312 863.339844 166.59375 C 862.890625 170.492188 861.015625 176.410156 861.015625 179.632812 C 860.941406 181.507812 861.167969 182.257812 861.765625 184.128906 C 862.890625 187.578125 867.988281 194.171875 868.585938 198.144531 C 868.960938 200.917969 868.210938 203.316406 867.460938 205.488281 C 866.789062 207.4375 865.289062 208.9375 864.691406 210.660156 C 864.089844 212.160156 863.640625 213.28125 863.640625 215.082031 C 863.640625 217.855469 866.113281 222.648438 866.261719 225.648438 C 866.414062 227.894531 866.414062 229.394531 865.664062 231.566406 C 864.539062 234.566406 859.367188 237.789062 858.996094 241.460938 C 858.695312 245.582031 863.941406 251.578125 864.914062 255.023438 C 865.515625 256.972656 865.8125 257.722656 865.738281 259.746094 C 865.738281 263.417969 864.089844 270.914062 862.890625 275.257812 C 861.992188 278.40625 859.894531 281.105469 859.820312 283.425781 C 859.820312 285 860.34375 285.902344 861.09375 287.625 C 862.589844 290.773438 867.613281 296.691406 869.1875 299.839844 C 870.011719 301.636719 870.683594 302.761719 870.683594 304.335938 C 870.835938 306.058594 870.308594 308.308594 869.335938 309.882812 C 868.285156 311.457031 866.261719 312.878906 864.613281 313.777344 C 863.039062 314.601562 861.691406 315.351562 859.742188 315.351562 C 856.671875 315.351562 851.726562 313.179688 848.054688 311.753906 C 844.457031 310.40625 841.832031 309.207031 837.859375 307.035156 C 831.789062 303.738281 821.296875 294.292969 815.304688 293.171875 C 811.855469 292.421875 809.683594 294.742188 806.386719 294.59375 C 802.1875 294.445312 797.542969 291.820312 792.070312 291.148438 C 784.878906 290.246094 773.410156 291.972656 766.890625 290.921875 C 762.542969 290.171875 759.171875 288.671875 756.324219 287.398438 C 754.226562 286.5 752.878906 284.625 751.152344 284.476562 C 749.578125 284.253906 748.15625 285 746.433594 285.824219 C 743.808594 286.949219 739.988281 290.398438 737.289062 291.671875 C 735.339844 292.496094 733.917969 293.320312 731.96875 293.171875 C 729.269531 292.945312 725.75 288.898438 722.601562 288.824219 C 719.527344 288.75 716.082031 292.121094 713.308594 292.496094 C 711.210938 292.796875 709.859375 292.570312 707.613281 291.972656 C 704.164062 290.996094 698.09375 287.101562 695.023438 285.976562 C 693.222656 285.375 692.25 285.078125 690.824219 285 C 689.253906 284.851562 687.753906 284.851562 685.878906 285.300781 C 682.957031 286.050781 678.234375 288.824219 675.464844 289.648438 C 673.664062 290.246094 672.464844 290.773438 670.890625 290.695312 C 669.242188 290.621094 667.667969 289.871094 665.796875 288.972656 C 663.171875 287.699219 659.425781 283.878906 656.953125 283.054688 C 655.453125 282.601562 654.480469 282.753906 653.054688 282.902344 C 651.105469 283.128906 649.082031 283.726562 646.460938 284.625 C 642.113281 286.125 634.171875 290.398438 629.675781 291.597656 C 626.828125 292.34375 624.878906 292.71875 622.554688 292.496094 C 620.230469 292.269531 618.132812 291.296875 615.808594 290.246094 C 613.113281 288.972656 609.664062 286.277344 607.339844 285.300781 C 605.84375 284.625 605.242188 284.253906 603.445312 284.253906 C 599.171875 284.328125 587.03125 289.496094 581.9375 290.398438 C 579.238281 290.847656 578.113281 291.070312 575.492188 290.847656 C 571.292969 290.398438 564.851562 286.125 559.304688 286.351562 C 553.085938 286.648438 545.066406 292.195312 540.042969 293.621094 C 536.898438 294.445312 534.796875 294.96875 532.25 295.042969 C 529.851562 295.117188 527.828125 294.742188 525.054688 294.070312 C 521.007812 293.171875 515.390625 289.496094 510.367188 289.347656 C 505.273438 289.199219 498.828125 292.644531 494.703125 293.394531 C 492.082031 293.917969 490.359375 294.070312 488.183594 294.144531 C 485.863281 294.144531 483.761719 294.144531 481.066406 293.46875 C 477.394531 292.644531 471.324219 288.972656 468.175781 288.449219 C 466.527344 288.222656 466.003906 288.449219 464.203125 288.75 C 460.082031 289.421875 448.089844 293.917969 443.96875 294.445312 C 442.246094 294.667969 442.019531 294.519531 440.222656 294.367188 C 435.578125 293.84375 421.636719 289.722656 415.792969 289.421875 C 412.570312 289.199219 411.144531 289.496094 408.222656 290.097656 C 403.949219 290.996094 397.28125 293.917969 392.636719 294.894531 C 389.113281 295.71875 386.191406 296.167969 383.042969 296.167969 C 380.121094 296.167969 377.722656 295.941406 374.5 295.042969 C 369.628906 293.769531 363.859375 288.523438 357.113281 287.773438 C 348.71875 286.800781 334.929688 292.34375 327.359375 292.871094 C 322.789062 293.171875 320.242188 292.871094 316.195312 292.421875 C 311.398438 291.972656 305.027344 290.246094 300.605469 289.796875 C 297.382812 289.496094 294.910156 289.347656 292.214844 289.421875 C 289.742188 289.496094 287.792969 289.722656 285.09375 290.171875 C 281.421875 290.847656 275.5 293.09375 272.503906 293.246094 C 270.855469 293.320312 270.332031 293.171875 268.683594 292.71875 C 265.460938 291.671875 258.265625 286.949219 254.667969 285.824219 C 252.644531 285.152344 251.894531 285 249.722656 285.078125 C 245.675781 285.226562 236.15625 288.375 232.335938 288.671875 C 230.539062 288.898438 230.085938 288.898438 228.289062 288.597656 C 224.390625 287.925781 215.550781 284.253906 210.152344 283.277344 C 206.105469 282.601562 202.957031 282.152344 199.136719 282.527344 C 195.015625 282.902344 190.292969 285.152344 186.472656 285.824219 C 183.398438 286.351562 180.703125 287.023438 178.003906 286.648438 C 175.304688 286.277344 172.832031 284.851562 170.285156 283.425781 C 167.511719 281.929688 164.4375 278.554688 162.117188 277.65625 C 160.617188 277.132812 159.792969 277.132812 157.992188 277.28125 C 154.921875 277.507812 148.625 279.753906 144.953125 280.429688 C 142.332031 280.878906 140.90625 281.402344 138.210938 281.105469 C 133.789062 280.65625 125.09375 276.160156 121.199219 275.484375 C 119.25 275.109375 118.5 274.808594 116.703125 275.257812 C 113.253906 276.082031 107.558594 281.105469 102.761719 282.976562 C 98.265625 284.777344 92.796875 286.125 88.898438 286.5 C 86.199219 286.726562 84.25 286.5 81.777344 286.050781 C 78.929688 285.601562 75.035156 282.902344 72.785156 283.425781 C 70.988281 283.800781 70.3125 285.902344 68.738281 287.023438 C 66.941406 288.300781 64.167969 289.722656 62.292969 290.472656 C 60.945312 290.996094 60.269531 291.070312 58.621094 291.371094 C 55.550781 291.972656 49.179688 293.542969 44.832031 293.246094 C 40.859375 292.945312 36.589844 290.171875 33.441406 290.023438 C 31.195312 289.871094 29.84375 290.398438 27.671875 291.070312 C 24.75 291.972656 20.703125 294.894531 17.703125 295.34375 C 15.382812 295.71875 13.207031 295.492188 11.257812 294.742188 C 9.3125 293.996094 7.289062 292.644531 6.011719 290.773438 C 4.363281 288.597656 3.390625 284.253906 3.089844 281.703125 C 2.867188 279.90625 2.789062 278.554688 3.316406 277.058594 C 3.988281 275.257812 5.414062 273.984375 7.136719 271.960938 C 9.984375 268.589844 19.953125 259.445312 19.578125 258.921875 C 19.351562 258.695312 17.03125 261.09375 15.832031 260.796875 C 14.40625 260.496094 12.382812 257.199219 11.859375 255.472656 C 11.484375 254.125 11.859375 253.226562 12.234375 251.429688 C 13.058594 247.53125 18.902344 236.738281 18.003906 233.367188 C 17.554688 231.71875 15.230469 231.644531 14.554688 230.292969 C 13.730469 228.644531 13.582031 226.398438 13.957031 223.847656 C 14.554688 219.800781 21 211.410156 19.878906 208.710938 C 19.277344 207.0625 16.355469 207.289062 14.855469 206.164062 C 13.28125 205.039062 11.035156 203.765625 10.585938 201.964844 C 10.058594 199.941406 11.785156 196.945312 12.90625 194.398438 C 14.105469 191.699219 16.65625 188.628906 17.703125 186.230469 C 18.527344 184.65625 19.503906 183.382812 19.277344 181.957031 C 18.976562 180.382812 15.679688 178.882812 15.304688 177.386719 C 15.007812 176.113281 15.753906 175.0625 16.355469 173.488281 C 17.328125 170.792969 22.425781 164.421875 21.601562 162.773438 C 21.078125 161.722656 18.378906 162.773438 17.328125 161.871094 C 15.90625 160.675781 15.007812 158.125 14.78125 155.503906 C 14.40625 151.757812 18.601562 145.160156 17.554688 141.265625 C 16.65625 137.964844 11.183594 136.167969 10.585938 133.320312 C 9.984375 130.699219 11.859375 127.851562 13.207031 124.851562 C 14.855469 121.179688 21.152344 114.734375 20.328125 112.9375 C 19.800781 111.8125 16.503906 112.710938 14.929688 112.1875 C 13.507812 111.664062 12.308594 111.136719 11.257812 110.089844 C 9.910156 108.738281 8.261719 106.640625 7.960938 104.46875 C 7.585938 101.769531 9.3125 98.246094 10.585938 94.875 C 12.160156 90.828125 16.730469 84.984375 17.03125 81.910156 C 17.179688 80.335938 16.578125 79.363281 16.054688 78.164062 C 15.457031 76.738281 13.882812 75.765625 13.582031 74.042969 C 13.132812 71.570312 16.28125 66.472656 15.679688 64.074219 C 15.230469 62.425781 13.359375 61.75 12.457031 60.402344 C 11.632812 59.128906 10.734375 57.929688 10.433594 56.355469 C 10.136719 54.558594 10.507812 52.234375 11.183594 50.0625 C 12.007812 47.511719 14.929688 44.738281 15.53125 42.265625 C 16.054688 40.320312 15.832031 36.644531 15.53125 36.570312 C 15.382812 36.496094 15.007812 37.695312 14.855469 37.695312 C 14.707031 37.621094 14.480469 35.820312 14.707031 34.996094 C 14.929688 34.097656 15.53125 33.199219 16.207031 32.675781 C 16.878906 32.148438 17.855469 31.699219 18.753906 31.699219 C 19.878906 31.773438 21.601562 32.675781 22.351562 33.574219 C 22.949219 34.25 23.175781 35.296875 23.101562 36.195312 C 23.101562 37.019531 22.800781 38.070312 22.125 38.746094 C 21.375 39.492188 19.578125 40.320312 18.453125 40.320312 C 17.554688 40.320312 16.578125 39.792969 15.980469 39.195312 C 15.304688 38.59375 14.78125 37.621094 14.632812 36.796875 C 14.480469 35.972656 14.632812 34.847656 15.007812 34.097656 C 15.382812 33.347656 16.207031 32.523438 16.953125 32.148438 C 17.703125 31.773438 18.753906 31.550781 19.652344 31.851562 C 20.703125 32.148438 22.351562 33.273438 22.800781 34.324219 C 23.175781 35.296875 22.351562 36.570312 22.5 37.769531 C 22.648438 39.121094 24.148438 40.242188 24.148438 42.042969 C 24.074219 45.191406 18.078125 52.308594 18.601562 55.082031 C 18.828125 56.65625 20.851562 56.957031 21.675781 58.230469 C 22.5 59.578125 23.175781 61.078125 23.324219 63.027344 C 23.625 65.722656 21.449219 70.667969 21.976562 73.292969 C 22.351562 75.167969 24.148438 75.992188 24.523438 77.640625 C 24.972656 79.664062 24.597656 81.984375 23.925781 84.832031 C 22.726562 89.328125 16.429688 97.949219 16.429688 101.46875 C 16.429688 103.117188 17.105469 104.167969 18.003906 104.992188 C 18.976562 105.96875 21 105.816406 22.425781 106.714844 C 24.074219 107.914062 26.472656 109.9375 27.070312 111.738281 C 27.519531 113.085938 27.148438 114.433594 26.695312 116.082031 C 26.097656 118.480469 24.074219 121.929688 22.574219 124.476562 C 21.226562 126.726562 18.003906 129.125 18.230469 130.621094 C 18.378906 131.671875 20.175781 131.972656 21.152344 133.09375 C 22.5 134.519531 24.449219 136.617188 25.125 138.714844 C 25.796875 140.816406 25.421875 143.136719 25.046875 145.609375 C 24.597656 148.683594 21.300781 153.554688 22.125 155.503906 C 22.648438 156.777344 25.046875 156.328125 26.246094 157.453125 C 27.597656 158.800781 29.171875 161.421875 29.320312 163.523438 C 29.46875 165.621094 28.046875 168.019531 27.070312 170.117188 C 26.023438 172.214844 23.175781 174.3125 23.25 176.1875 C 23.324219 177.835938 26.171875 179.109375 26.621094 180.832031 C 27.070312 182.480469 26.546875 184.429688 25.949219 186.378906 C 25.199219 188.925781 23.472656 192.148438 22.125 194.398438 C 21 196.269531 18.378906 197.996094 18.679688 199.117188 C 19.128906 200.316406 23.25 200.167969 24.75 201.21875 C 25.949219 202.042969 26.847656 203.015625 27.296875 204.363281 C 27.894531 206.164062 27.671875 208.5625 27.222656 211.257812 C 26.546875 215.382812 21.824219 222.875 22.277344 226.546875 C 22.648438 228.71875 25.199219 229.695312 25.648438 231.492188 C 26.171875 233.441406 25.722656 235.390625 25.199219 237.789062 C 24.449219 241.3125 20.703125 247.382812 20.703125 250.378906 C 20.703125 252.027344 21.375 253.078125 22.125 254.277344 C 23.101562 255.625 25.722656 256.375 26.171875 258.023438 C 26.773438 259.820312 26.097656 262.292969 24.898438 264.691406 C 22.949219 268.515625 15.230469 274.058594 13.132812 277.507812 C 11.933594 279.304688 11.335938 280.65625 11.257812 282.152344 C 11.183594 283.578125 11.484375 285.601562 12.457031 286.425781 C 13.433594 287.324219 15.382812 287.398438 17.179688 287.175781 C 19.726562 286.875 23.398438 284.101562 26.097656 283.277344 C 28.121094 282.679688 29.695312 282.453125 31.566406 282.304688 C 33.515625 282.230469 35.242188 282.378906 37.414062 282.753906 C 40.261719 283.277344 43.707031 285.375 47.230469 285.527344 C 50.976562 285.675781 55.699219 284.476562 59.371094 283.054688 C 62.742188 281.628906 65.515625 278.554688 68.363281 277.207031 C 70.761719 276.160156 72.710938 275.183594 75.183594 275.335938 C 78.257812 275.410156 82.453125 278.632812 85.300781 279.007812 C 87.25 279.304688 88.375 279.007812 90.398438 278.554688 C 93.542969 277.957031 98.941406 276.382812 102.238281 274.808594 C 104.9375 273.535156 106.882812 271.660156 109.207031 270.386719 C 111.378906 269.265625 113.628906 267.988281 115.800781 267.539062 C 117.601562 267.164062 118.875 267.242188 121.121094 267.613281 C 125.320312 268.363281 132.738281 273.160156 138.359375 273.535156 C 143.679688 273.835938 149.675781 270.761719 154.023438 270.3125 C 157.09375 269.9375 159.566406 269.636719 162.039062 270.089844 C 164.363281 270.539062 166.238281 271.511719 168.5625 272.785156 C 171.558594 274.433594 175.230469 278.554688 178.226562 279.378906 C 180.328125 279.980469 181.976562 279.457031 184.222656 279.007812 C 187.070312 278.480469 190.667969 276.683594 193.816406 276.007812 C 196.886719 275.335938 199.585938 274.960938 202.957031 275.035156 C 207.082031 275.183594 212.328125 276.234375 216.746094 277.28125 C 220.871094 278.257812 225.292969 280.578125 228.664062 281.03125 C 230.910156 281.402344 232.1875 281.179688 234.582031 280.953125 C 238.554688 280.429688 245.675781 277.65625 249.871094 277.582031 C 252.792969 277.507812 254.519531 277.957031 257.367188 278.855469 C 261.414062 280.207031 266.957031 285.375 271.605469 285.976562 C 275.875 286.5 280.449219 283.726562 284.269531 283.128906 C 287.269531 282.679688 289.589844 282.453125 292.4375 282.453125 C 295.4375 282.378906 298.285156 282.601562 301.730469 282.976562 C 306.152344 283.503906 312.148438 285 316.644531 285.449219 C 320.242188 285.75 322.339844 286.050781 326.460938 285.75 C 333.582031 285.226562 349.242188 280.429688 355.6875 280.503906 C 358.761719 280.503906 360.183594 280.953125 362.660156 281.855469 C 365.730469 282.902344 369.476562 285.675781 372.476562 286.875 C 374.875 287.773438 376.898438 288.449219 379.144531 288.824219 C 381.542969 289.199219 383.492188 289.496094 386.488281 289.125 C 391.660156 288.449219 402.527344 283.878906 407.097656 282.828125 C 409.273438 282.378906 409.945312 282.152344 411.96875 282.078125 C 415.417969 281.929688 420.886719 282.527344 425.683594 283.203125 C 431.078125 284.027344 436.699219 286.949219 442.921875 286.800781 C 450.265625 286.648438 461.28125 280.65625 466.902344 280.578125 C 469.824219 280.503906 471.171875 281.328125 473.722656 282.152344 C 477.019531 283.128906 480.992188 285.976562 484.738281 286.5 C 488.410156 287.023438 492.230469 285.976562 495.980469 285.226562 C 499.875 284.476562 504.296875 282.230469 507.746094 281.855469 C 510.367188 281.554688 512.167969 281.703125 514.789062 282.230469 C 518.3125 282.902344 523.707031 285.824219 526.78125 286.648438 C 528.726562 287.175781 529.777344 287.472656 531.425781 287.472656 C 533.300781 287.472656 535.097656 287.175781 537.421875 286.5 C 541.316406 285.300781 547.988281 281.554688 552.035156 280.207031 C 554.882812 279.304688 557.054688 278.632812 559.527344 278.632812 C 561.851562 278.554688 564.324219 279.304688 566.574219 279.980469 C 568.820312 280.578125 570.921875 282.003906 572.945312 282.453125 C 574.667969 282.828125 576.242188 282.976562 577.890625 282.902344 C 579.613281 282.828125 580.960938 282.679688 583.210938 282.152344 C 587.480469 281.179688 596.625 277.207031 601.195312 276.757812 C 603.96875 276.457031 605.46875 276.609375 607.941406 277.28125 C 611.238281 278.332031 615.960938 282.003906 619.105469 283.351562 C 621.207031 284.253906 622.253906 285.226562 624.652344 285.152344 C 629.222656 285 638.890625 278.929688 644.136719 277.207031 C 647.585938 276.007812 649.984375 275.109375 652.832031 274.960938 C 655.378906 274.734375 657.628906 274.882812 660.324219 275.785156 C 663.921875 276.984375 668.042969 282.304688 672.089844 282.527344 C 676.0625 282.828125 681.382812 278.332031 684.457031 277.507812 C 686.179688 277.058594 687.078125 276.90625 688.652344 276.832031 C 690.601562 276.832031 692.847656 276.984375 695.324219 277.65625 C 698.769531 278.632812 703.941406 282.078125 707.238281 283.203125 C 709.410156 283.953125 710.683594 284.476562 712.859375 284.328125 C 715.632812 284.175781 719.601562 281.253906 722.453125 281.179688 C 724.773438 281.105469 726.949219 282.003906 728.597656 282.902344 C 729.945312 283.578125 730.394531 285.527344 731.894531 285.601562 C 734.816406 285.824219 741.5625 279.15625 745.082031 277.730469 C 747.183594 276.90625 748.304688 276.308594 750.554688 276.53125 C 754.226562 276.90625 760.894531 281.703125 764.792969 282.828125 C 767.265625 283.578125 768.390625 283.726562 771.238281 283.878906 C 776.257812 284.328125 786.375 282.902344 792.972656 283.578125 C 798.441406 284.175781 803.988281 286.800781 807.882812 286.949219 C 810.355469 287.023438 812.082031 286.125 813.953125 286.125 C 815.601562 286.050781 816.503906 285.976562 818.527344 286.648438 C 823.320312 288.375 833.8125 296.617188 841.082031 300.214844 C 847.304688 303.285156 856.070312 308.308594 859.21875 307.332031 C 860.792969 306.808594 861.84375 305.160156 861.84375 303.4375 C 861.917969 300.363281 854.871094 293.84375 853.296875 290.097656 C 852.25 287.550781 851.574219 285.902344 851.726562 283.425781 C 851.800781 280.207031 854.121094 276.308594 855.097656 272.636719 C 856.144531 268.738281 857.570312 263.566406 857.570312 260.496094 C 857.644531 258.546875 857.421875 257.574219 856.820312 255.847656 C 855.996094 253.375 853.296875 249.929688 852.398438 247.230469 C 851.648438 245.207031 851.050781 243.410156 851.199219 241.460938 C 851.351562 239.289062 852.472656 236.8125 853.523438 234.867188 C 854.421875 233.140625 856.222656 231.941406 856.972656 230.292969 C 857.644531 228.71875 858.019531 227.296875 858.019531 225.347656 C 857.945312 222.574219 855.546875 218.230469 855.472656 215.230469 C 855.398438 212.984375 855.847656 211.410156 856.445312 209.160156 C 857.269531 206.3125 860.492188 202.640625 860.34375 199.492188 C 860.117188 196.121094 856.296875 192.449219 854.949219 189.601562 C 854.046875 187.429688 853.296875 185.777344 852.925781 183.832031 C 852.625 182.105469 852.550781 180.832031 852.699219 178.660156 C 853 174.988281 855.171875 167.644531 855.398438 163.972656 C 855.546875 161.796875 855.546875 160.597656 855.171875 158.574219 C 854.648438 155.804688 852.398438 151.757812 851.800781 148.832031 C 851.273438 146.585938 850.976562 144.636719 851.199219 142.6875 C 851.425781 140.738281 852.023438 139.089844 853.074219 137.140625 C 854.421875 134.445312 858.320312 130.996094 859.445312 128.375 C 860.191406 126.574219 860.269531 125 860.34375 123.351562 C 860.34375 121.855469 859.144531 120.128906 859.59375 118.855469 C 859.96875 117.734375 862.441406 117.058594 862.441406 116.082031 C 862.441406 115.183594 860.34375 114.359375 859.445312 113.234375 C 858.542969 112.113281 857.421875 111.0625 857.121094 109.339844 C 856.597656 106.492188 859.96875 100.347656 859.070312 97.421875 C 858.46875 95.324219 856.144531 94.5 854.796875 92.703125 C 853.222656 90.679688 851.351562 88.207031 850.449219 85.808594 C 849.625 83.558594 849.328125 81.085938 849.25 78.839844 C 849.25 76.664062 849.703125 74.714844 850.375 72.394531 C 851.199219 69.695312 854.421875 66.023438 854.273438 63.550781 C 854.199219 61.75 852.25 60.703125 851.648438 58.980469 C 850.976562 57.105469 850.449219 54.707031 850.527344 52.683594 C 850.601562 50.585938 851.125 48.410156 852.023438 46.539062 C 852.847656 44.664062 855.246094 43.242188 855.621094 41.441406 C 855.996094 39.71875 855.773438 36.796875 854.496094 36.046875 C 852.773438 34.921875 847.226562 38.144531 844.457031 38.296875 C 842.507812 38.371094 840.933594 38.070312 839.433594 37.546875 C 838.085938 36.945312 837.261719 36.195312 835.988281 35.074219 C 833.8125 33.273438 830.589844 29.003906 828.34375 27.203125 C 826.84375 26.003906 826.320312 25.105469 824.222656 24.65625 C 818.976562 23.457031 803.761719 27.503906 794.621094 28.101562 C 786.75 28.550781 778.507812 29.003906 772.511719 28.179688 C 768.316406 27.578125 764.492188 26.304688 761.945312 25.179688 C 760.296875 24.355469 759.546875 23.832031 758.125 22.632812 C 756.023438 20.832031 754.300781 15.886719 751.003906 15.0625 C 746.65625 13.863281 738.414062 19.261719 733.019531 20.609375 C 728.597656 21.734375 724.101562 22.855469 720.953125 22.933594 C 718.929688 23.007812 717.503906 22.707031 715.929688 22.257812 C 714.507812 21.882812 713.308594 21.359375 711.808594 20.535156 C 709.710938 19.335938 706.863281 16.335938 704.839844 15.363281 C 703.417969 14.613281 702.59375 14.164062 701.019531 14.164062 C 698.394531 14.164062 694.574219 16.488281 690.824219 17.160156 C 686.40625 17.984375 680.710938 18.660156 675.914062 18.0625 C 671.265625 17.535156 665.570312 15.511719 662.273438 13.863281 C 660.25 12.816406 659.652344 10.792969 657.703125 10.417969 C 654.855469 9.816406 650.507812 12.664062 646.3125 13.5625 C 641.363281 14.539062 633.644531 15.664062 629.898438 15.886719 C 627.949219 15.960938 627.125 15.886719 625.476562 15.664062 C 623.378906 15.363281 620.457031 14.6875 618.359375 13.863281 C 616.410156 13.191406 614.835938 11.765625 613.1875 11.464844 C 611.839844 11.242188 611.015625 11.167969 609.289062 11.765625 C 604.867188 13.113281 593.027344 22.632812 587.480469 25.332031 C 584.410156 26.828125 582.011719 27.652344 579.839844 28.101562 C 578.339844 28.402344 577.441406 28.402344 575.941406 28.253906 C 574.066406 27.953125 571.445312 27.277344 569.496094 26.304688 C 567.621094 25.40625 566.199219 24.28125 564.476562 22.707031 C 562.152344 20.609375 560.878906 15.511719 557.207031 14.3125 C 551.511719 12.515625 539.070312 19.410156 531.277344 20.757812 C 525.054688 21.882812 518.835938 22.632812 514.265625 22.632812 C 511.191406 22.558594 509.019531 22.109375 506.46875 21.582031 C 503.996094 20.984375 501.675781 20.382812 499.203125 19.335938 C 496.277344 18.136719 493.054688 15.8125 490.359375 14.613281 C 488.183594 13.714844 486.6875 12.515625 484.363281 12.589844 C 481.140625 12.738281 476.195312 16.414062 473.046875 17.535156 C 470.875 18.210938 469.597656 18.734375 467.5 18.886719 C 464.726562 19.183594 460.757812 18.734375 457.832031 18.359375 C 455.511719 18.0625 453.863281 17.761719 451.390625 17.085938 C 447.941406 16.1875 442.246094 13.5625 439.171875 12.964844 C 437.300781 12.589844 436.25 12.664062 434.675781 12.664062 C 433.027344 12.664062 431.902344 12.589844 429.65625 13.039062 C 424.859375 14.164062 413.769531 20.457031 407.398438 21.433594 C 402.902344 22.109375 399.679688 21.65625 395.632812 20.832031 C 390.910156 19.785156 386.113281 14.761719 380.871094 15.0625 C 374.648438 15.4375 365.507812 23.53125 360.785156 25.703125 C 358.3125 26.828125 356.964844 27.429688 355.015625 27.878906 C 353.066406 28.402344 351.34375 28.628906 349.09375 28.628906 C 345.871094 28.550781 341.523438 28.253906 337.851562 26.902344 C 333.804688 25.40625 330.808594 20.308594 326.085938 19.785156 C 319.792969 19.035156 308.402344 26.003906 302.929688 27.355469 C 299.933594 28.101562 298.058594 28.476562 295.886719 28.628906 C 293.9375 28.703125 292.511719 28.777344 290.414062 28.402344 C 287.269531 27.878906 282.246094 26.605469 278.875 25.03125 C 275.800781 23.53125 273.105469 20.308594 270.78125 19.410156 C 269.207031 18.886719 267.933594 18.886719 266.507812 19.035156 C 264.933594 19.183594 263.886719 19.484375 261.789062 20.308594 C 256.992188 22.183594 244.402344 29.828125 239.15625 31.925781 C 236.457031 32.972656 234.808594 33.574219 232.859375 33.796875 C 231.0625 33.875 229.863281 33.875 227.839844 33.125 C 224.09375 31.773438 216.746094 25.929688 212.851562 23.90625 C 210.527344 22.707031 209.628906 21.359375 207.082031 21.507812 C 201.910156 21.734375 190.292969 31.25 183.921875 33.949219 C 179.726562 35.746094 176.128906 36.796875 172.980469 37.46875 C 170.808594 37.921875 169.460938 38.296875 167.210938 38.144531 C 164.214844 37.769531 160.390625 36.273438 156.71875 34.699219 C 152.222656 32.824219 147.203125 26.980469 142.257812 26.980469 C 137.011719 26.980469 130.492188 33.648438 125.992188 35.671875 C 123.070312 37.019531 120.898438 38.144531 118.425781 38.59375 C 116.175781 39.042969 113.855469 39.195312 111.753906 38.746094 C 109.882812 38.371094 108.609375 37.46875 106.585938 36.347656 C 103.511719 34.546875 98.042969 28.925781 95.269531 28.476562 C 93.84375 28.253906 93.320312 28.925781 91.671875 29.601562 C 88.074219 31.25 78.855469 37.921875 74.734375 39.269531 C 72.636719 39.945312 71.363281 40.242188 69.714844 39.945312 C 67.988281 39.644531 66.640625 38.667969 64.765625 37.320312 C 61.695312 35.148438 57.871094 27.429688 53.902344 27.128906 C 49.929688 26.753906 44.007812 34.621094 40.859375 35.972656 C 39.210938 36.644531 38.3125 37.097656 36.890625 36.796875 C 34.714844 36.347656 31.941406 32.824219 29.621094 31.773438 C 27.820312 30.949219 25.871094 29.75 24.523438 30.5 C 22.648438 31.476562 22.648438 38.746094 20.925781 40.09375 C 19.953125 40.84375 18.304688 40.992188 17.40625 40.542969 C 16.503906 40.09375 15.679688 37.394531 15.679688 37.394531 " clip-rule="nonzero"/></clipPath></defs><g clip-path="url(#c0956084f5)"><g clip-path="url(#a6589c6923)"><path fill="#1e1e1e" d="M 0.09375 0 L 873.703125 0 L 873.703125 318.425781 L 0.09375 318.425781 Z M 0.09375 0 " fill-opacity="1" fill-rule="nonzero"/></g></g><g fill="#000000" fill-opacity="1"><g transform="translate(355.952365, 24.009839)"><g><path d="M 1.734375 0 L 1.671875 -0.3125 L 1.640625 -0.3125 C 1.535156 -0.175781 1.425781 -0.0820312 1.3125 -0.03125 C 1.207031 0.0195312 1.070312 0.046875 0.90625 0.046875 C 0.675781 0.046875 0.5 -0.0078125 0.375 -0.125 C 0.25 -0.238281 0.1875 -0.40625 0.1875 -0.625 C 0.1875 -1.070312 0.546875 -1.304688 1.265625 -1.328125 L 1.65625 -1.34375 L 1.65625 -1.484375 C 1.65625 -1.648438 1.613281 -1.773438 1.53125 -1.859375 C 1.457031 -1.941406 1.335938 -1.984375 1.171875 -1.984375 C 0.984375 -1.984375 0.773438 -1.925781 0.546875 -1.8125 L 0.4375 -2.078125 C 0.550781 -2.140625 0.671875 -2.1875 0.796875 -2.21875 C 0.929688 -2.25 1.066406 -2.265625 1.203125 -2.265625 C 1.460938 -2.265625 1.65625 -2.207031 1.78125 -2.09375 C 1.914062 -1.976562 1.984375 -1.789062 1.984375 -1.53125 L 1.984375 0 Z M 0.96875 -0.234375 C 1.175781 -0.234375 1.335938 -0.289062 1.453125 -0.40625 C 1.578125 -0.519531 1.640625 -0.679688 1.640625 -0.890625 L 1.640625 -1.09375 L 1.3125 -1.078125 C 1.039062 -1.066406 0.84375 -1.023438 0.71875 -0.953125 C 0.601562 -0.878906 0.546875 -0.765625 0.546875 -0.609375 C 0.546875 -0.492188 0.582031 -0.398438 0.65625 -0.328125 C 0.726562 -0.265625 0.832031 -0.234375 0.96875 -0.234375 Z M 0.96875 -0.234375 "/></g></g></g></svg>