<svg xmlns="http://www.w3.org/2000/svg" xmlns:xlink="http://www.w3.org/1999/xlink" width="298" zoomAndPan="magnify" viewBox="0 0 223.5 86.249997" height="115" preserveAspectRatio="xMidYMid meet" version="1.0"><defs><g/><clipPath id="91dbb0699d"><path d="M 16.308594 2.667969 L 219.367188 2.667969 L 219.367188 82.691406 L 16.308594 82.691406 Z M 16.308594 2.667969 " clip-rule="nonzero"/></clipPath><clipPath id="0808dacde7"><path d="M 29.925781 13.085938 C 33.273438 16.132812 33.273438 14.128906 33.941406 13.828125 C 34.683594 13.53125 36.246094 14.277344 37.0625 14.722656 C 37.734375 15.167969 37.957031 16.359375 38.625 16.433594 C 39.519531 16.582031 40.632812 14.648438 41.824219 14.574219 C 43.382812 14.425781 45.464844 16.953125 47.027344 16.730469 C 48.589844 16.507812 49.628906 14.277344 51.191406 13.457031 C 52.902344 12.566406 55.058594 12.566406 56.769531 11.746094 C 58.402344 10.855469 59.816406 8.476562 61.230469 8.179688 C 62.34375 7.957031 63.3125 9.21875 64.574219 9.21875 C 66.359375 9.144531 69.257812 6.988281 70.96875 6.691406 C 72.011719 6.542969 72.902344 6.617188 73.71875 6.914062 C 74.539062 7.136719 75.058594 8.03125 75.949219 8.253906 C 76.84375 8.476562 77.808594 8.253906 79 8.03125 C 80.859375 7.734375 83.757812 5.949219 85.839844 6.097656 C 87.699219 6.171875 88.964844 8.253906 91.042969 8.402344 C 94.019531 8.550781 99.074219 5.054688 102.199219 4.980469 C 104.429688 4.980469 105.988281 6.691406 107.921875 6.691406 C 109.855469 6.765625 111.9375 5.351562 113.796875 5.277344 C 115.433594 5.277344 116.695312 6.46875 118.628906 6.394531 C 121.605469 6.246094 126.734375 2.675781 129.707031 2.972656 C 131.9375 3.195312 133.277344 5.652344 135.285156 5.875 C 137.367188 6.023438 139.894531 3.644531 142.050781 3.644531 C 143.910156 3.644531 145.472656 5.429688 147.480469 5.503906 C 149.785156 5.578125 152.609375 3.347656 154.988281 3.421875 C 157.070312 3.421875 158.855469 5.128906 161.011719 5.203125 C 163.464844 5.351562 167.035156 3.121094 168.746094 3.496094 C 169.710938 3.644531 170.378906 4.238281 170.824219 4.90625 C 171.273438 5.503906 170.902344 7.136719 171.347656 7.285156 C 172.015625 7.507812 173.652344 5.429688 174.914062 4.832031 C 176.105469 4.238281 177.667969 3.71875 178.78125 3.71875 C 179.601562 3.71875 180.417969 3.792969 180.9375 4.3125 C 181.683594 5.054688 182.203125 6.988281 182.203125 8.105469 C 182.277344 8.921875 181.308594 10.039062 181.683594 10.335938 C 182.351562 10.929688 187.40625 7.734375 189.265625 7.808594 C 190.382812 7.882812 191.273438 8.328125 191.867188 8.921875 C 192.464844 9.589844 192.015625 11.523438 192.6875 11.746094 C 193.578125 12.046875 195.808594 9.21875 197.371094 8.699219 C 198.78125 8.253906 200.789062 8.03125 201.683594 8.625 C 202.425781 9.144531 202.722656 10.484375 202.796875 11.449219 C 202.871094 12.417969 202.054688 14.277344 202.203125 14.351562 C 202.425781 14.425781 203.019531 12.566406 203.914062 11.746094 C 205.25 10.558594 208.894531 8.847656 210.308594 8.550781 C 211.050781 8.476562 211.496094 8.550781 212.019531 8.773438 C 212.464844 8.996094 212.910156 9.515625 213.058594 10.039062 C 213.28125 10.484375 213.28125 11.152344 213.058594 11.671875 C 212.910156 12.121094 212.316406 13.011719 212.019531 12.9375 C 211.644531 12.789062 210.828125 10.484375 211.199219 10.039062 C 211.496094 9.664062 213.058594 9.890625 213.800781 10.335938 C 214.546875 10.78125 215.363281 11.820312 215.585938 12.863281 C 215.808594 14.351562 213.503906 17.992188 214.023438 18.515625 C 214.398438 18.886719 215.882812 17.546875 216.628906 17.84375 C 217.445312 18.140625 218.636719 19.925781 218.5625 21.191406 C 218.414062 23.125 213.578125 28.253906 212.835938 28.03125 C 212.390625 27.882812 212.167969 25.652344 212.464844 25.429688 C 212.835938 25.28125 215.363281 27.066406 215.660156 28.328125 C 216.03125 29.816406 213.058594 33.382812 213.578125 33.90625 C 213.875 34.203125 215.289062 32.863281 216.105469 33.160156 C 217.074219 33.535156 218.785156 35.464844 218.785156 36.804688 C 218.710938 38.292969 214.695312 40.300781 214.84375 41.5625 C 214.917969 42.457031 216.851562 42.976562 217.371094 43.792969 C 217.816406 44.464844 218.113281 45.132812 218.039062 46.023438 C 217.890625 47.585938 214.621094 50.558594 214.621094 52.121094 C 214.695312 53.164062 216.03125 53.683594 216.257812 54.648438 C 216.554688 55.691406 215.734375 56.953125 216.105469 58.21875 C 216.480469 59.929688 219.378906 61.863281 219.230469 63.570312 C 219.082031 65.355469 215.066406 67.363281 215.140625 68.554688 C 215.140625 69.296875 216.628906 69.519531 216.777344 70.191406 C 216.925781 70.859375 216.332031 71.972656 215.585938 72.71875 C 214.472656 73.832031 211.644531 74.726562 209.863281 75.171875 C 208.300781 75.617188 205.402344 75.691406 205.402344 75.542969 C 205.324219 75.46875 207.78125 74.503906 208.003906 74.726562 C 208.152344 75.023438 207.257812 76.433594 206.515625 77.03125 C 205.699219 77.773438 204.285156 78.515625 203.246094 78.816406 C 202.351562 79.039062 201.609375 78.964844 200.640625 78.742188 C 199.304688 78.367188 197.742188 76.734375 196.105469 76.359375 C 194.46875 75.914062 192.386719 76.882812 190.976562 76.359375 C 189.710938 75.914062 189.042969 74.277344 187.777344 73.90625 C 186.367188 73.460938 183.988281 74.726562 182.871094 74.203125 C 182.054688 73.832031 182.054688 72.421875 181.308594 72.273438 C 180.046875 72.121094 177.21875 76.0625 175.585938 76.433594 C 174.542969 76.585938 173.503906 76.285156 172.757812 75.691406 C 172.015625 75.023438 171.941406 72.496094 171.347656 72.421875 C 170.902344 72.347656 170.453125 74.128906 169.5625 74.652344 C 168.445312 75.394531 166.066406 76.136719 164.878906 75.691406 C 163.835938 75.394531 163.464844 73.015625 162.574219 73.015625 C 161.457031 73.015625 160.195312 76.734375 158.78125 77.179688 C 157.589844 77.550781 155.808594 76.882812 154.914062 76.285156 C 154.171875 75.765625 154.097656 74.429688 153.351562 74.277344 C 152.089844 74.128906 149.1875 77.996094 147.332031 78.292969 C 145.84375 78.589844 143.984375 78.144531 143.167969 77.476562 C 142.570312 76.882812 142.945312 75.394531 142.273438 75.097656 C 140.789062 74.578125 135.136719 79.558594 133.054688 79.113281 C 131.714844 78.890625 130.75 77.253906 130.15625 76.210938 C 129.707031 75.394531 130.007812 73.832031 129.484375 73.683594 C 128.816406 73.535156 127.179688 76.660156 125.992188 77.105469 C 125.171875 77.402344 124.28125 77.328125 123.539062 76.957031 C 122.644531 76.585938 122.347656 74.652344 121.230469 74.503906 C 119.449219 74.203125 115.65625 78.515625 113.5 78.890625 C 112.011719 79.113281 110.375 78.816406 109.632812 78.144531 C 109.039062 77.699219 109.335938 76.359375 108.742188 76.0625 C 107.699219 75.617188 104.800781 77.847656 103.089844 77.921875 C 101.675781 78.070312 100.117188 77.847656 99.148438 77.179688 C 98.332031 76.585938 98.480469 74.652344 97.589844 74.429688 C 96.25 74.054688 93.125 77.773438 91.195312 78.292969 C 89.707031 78.742188 88.070312 78.816406 87.105469 78.367188 C 86.285156 77.996094 85.988281 76.210938 85.394531 76.210938 C 84.652344 76.210938 83.832031 78.589844 82.792969 79.335938 C 81.75 80.078125 80.261719 80.746094 79.148438 80.820312 C 78.332031 80.972656 77.585938 80.820312 76.84375 80.449219 C 76.027344 79.929688 75.355469 77.847656 74.613281 77.773438 C 74.019531 77.773438 73.644531 79.113281 72.902344 79.558594 C 71.863281 80.152344 70.003906 80.972656 68.886719 80.746094 C 67.996094 80.597656 67.550781 79.261719 66.582031 79.1875 C 65.09375 79.113281 62.640625 81.714844 60.855469 82.160156 C 59.445312 82.53125 57.882812 82.902344 56.769531 82.308594 C 55.429688 81.714844 54.984375 78.515625 53.570312 78.144531 C 51.859375 77.699219 48.515625 80.746094 46.804688 81.046875 C 45.914062 81.269531 45.242188 81.269531 44.5 80.898438 C 43.53125 80.523438 42.714844 78.890625 41.75 78.441406 C 40.929688 78.070312 40.261719 78.144531 39.21875 78.144531 C 37.585938 78.21875 34.238281 79.855469 32.75 79.410156 C 31.710938 79.113281 30.894531 78.21875 30.519531 77.402344 C 30.148438 76.507812 31.191406 74.949219 30.59375 74.277344 C 29.777344 73.386719 26.355469 74.351562 24.871094 73.609375 C 23.753906 72.941406 22.640625 71.972656 22.269531 70.710938 C 21.894531 69.222656 23.976562 65.503906 23.308594 64.984375 C 22.863281 64.613281 21.449219 65.953125 20.484375 66.027344 C 19.515625 66.101562 18.253906 66.027344 17.582031 65.355469 C 16.765625 64.464844 16.46875 62.234375 16.617188 60.523438 C 16.839844 58.367188 18.625 53.683594 19.515625 53.460938 C 19.886719 53.3125 20.558594 53.980469 20.558594 54.128906 C 20.484375 54.277344 18.847656 54.351562 18.328125 53.980469 C 17.730469 53.609375 17.136719 52.566406 17.210938 51.527344 C 17.285156 49.59375 20.484375 43.792969 21.671875 43.644531 C 22.34375 43.644531 23.53125 45.578125 23.382812 45.875 C 23.234375 46.097656 21.820312 45.949219 21.300781 45.652344 C 20.78125 45.28125 20.335938 44.242188 20.261719 43.644531 C 20.261719 43.050781 20.558594 42.457031 20.855469 42.085938 C 21.226562 41.636719 22.34375 41.191406 22.417969 41.265625 C 22.492188 41.339844 20.484375 43.347656 20.335938 43.199219 C 20.113281 43.050781 23.605469 38.515625 23.085938 37.847656 C 22.789062 37.324219 20.707031 38.441406 19.8125 38.070312 C 18.921875 37.695312 17.957031 36.804688 17.808594 35.617188 C 17.433594 33.460938 21.597656 25.355469 22.042969 25.429688 C 22.195312 25.429688 22.269531 26.914062 22.042969 27.066406 C 21.820312 27.214844 20.929688 26.691406 20.558594 26.246094 C 20.1875 25.726562 19.886719 24.683594 20.039062 24.089844 C 20.113281 23.570312 20.558594 23.050781 21.003906 22.753906 C 21.449219 22.453125 22.566406 22.230469 22.640625 22.304688 C 22.714844 22.453125 20.335938 24.386719 20.039062 24.164062 C 19.515625 23.71875 22.789062 16.65625 23.902344 14.648438 C 24.5 13.53125 25.019531 12.640625 25.539062 12.269531 C 25.910156 12.046875 26.28125 11.972656 26.730469 12.046875 C 27.324219 12.195312 28.289062 12.714844 28.664062 13.234375 C 28.960938 13.679688 29.109375 14.351562 28.960938 14.945312 C 28.8125 15.539062 28.214844 16.433594 27.621094 16.730469 C 26.878906 16.953125 25.390625 16.730469 24.871094 16.210938 C 24.351562 15.6875 24.050781 13.976562 24.425781 13.308594 C 24.871094 12.640625 26.433594 12.046875 27.175781 12.121094 C 27.695312 12.195312 28.214844 12.566406 28.511719 12.9375 C 28.8125 13.457031 29.109375 14.574219 28.886719 15.167969 C 28.738281 15.835938 27.917969 16.65625 27.324219 16.804688 C 26.65625 17.027344 25.613281 16.730469 25.09375 16.359375 C 24.648438 16.132812 24.277344 15.613281 24.199219 15.09375 C 24.125 14.425781 24.277344 13.308594 24.796875 12.863281 C 25.316406 12.34375 27.695312 12.417969 27.695312 12.34375 C 27.621094 12.269531 25.539062 12.269531 25.539062 12.269531 C 25.539062 12.269531 27.25 12.046875 27.84375 12.417969 C 28.4375 12.789062 29.109375 14.054688 28.960938 14.945312 C 28.738281 16.285156 24.351562 18.960938 24.5 19.257812 C 24.648438 19.40625 26.433594 18.214844 26.730469 18.515625 C 27.25 19.035156 25.6875 23.347656 24.722656 24.835938 C 23.976562 25.949219 22.863281 26.992188 22.042969 27.066406 C 21.523438 27.066406 20.929688 26.617188 20.558594 26.246094 C 20.1875 25.875 19.964844 25.207031 19.964844 24.683594 C 19.964844 24.164062 20.261719 23.496094 20.558594 23.125 C 20.929688 22.679688 21.449219 22.304688 22.042969 22.304688 C 23.085938 22.304688 25.390625 23.125 26.058594 24.089844 C 26.65625 24.984375 26.433594 26.46875 26.132812 27.734375 C 25.910156 29.148438 24.945312 30.855469 24.199219 32.195312 C 23.457031 33.535156 22.34375 36.0625 21.820312 35.988281 C 21.375 35.914062 20.707031 33.683594 21.078125 33.011719 C 21.449219 32.417969 22.9375 32.34375 23.828125 32.34375 C 24.648438 32.34375 25.539062 32.492188 26.207031 32.9375 C 26.953125 33.382812 27.621094 34.128906 27.917969 34.945312 C 28.289062 35.765625 28.4375 36.730469 28.214844 37.847656 C 27.84375 39.554688 26.132812 42.457031 25.019531 43.941406 C 24.351562 44.910156 23.679688 45.875 22.9375 46.023438 C 22.269531 46.171875 21.300781 45.800781 20.855469 45.28125 C 20.410156 44.6875 20.261719 43.199219 20.558594 42.53125 C 20.855469 41.859375 21.894531 41.117188 22.714844 41.117188 C 23.679688 41.042969 25.464844 42.085938 25.984375 42.976562 C 26.433594 43.867188 26.132812 45.207031 25.761719 46.472656 C 25.242188 48.105469 23.605469 50.632812 22.566406 51.972656 C 21.894531 52.941406 21.226562 53.832031 20.558594 54.128906 C 19.964844 54.351562 19.367188 54.425781 18.847656 54.203125 C 18.328125 54.054688 17.730469 53.683594 17.507812 53.164062 C 17.210938 52.640625 17.136719 51.527344 17.359375 50.933594 C 17.582031 50.410156 18.03125 50.039062 18.550781 49.742188 C 19.292969 49.371094 20.632812 49.148438 21.523438 49.371094 C 22.417969 49.59375 23.53125 50.335938 23.902344 51.230469 C 24.425781 52.195312 24.199219 53.757812 23.902344 55.097656 C 23.382812 56.953125 20.039062 60.003906 20.558594 61.117188 C 21.078125 62.160156 25.09375 61.191406 26.28125 61.863281 C 27.101562 62.308594 27.546875 63.050781 27.84375 63.796875 C 28.140625 64.464844 28.214844 65.207031 28.066406 66.027344 C 27.917969 66.917969 26.207031 68.257812 26.582031 69 C 27.101562 69.964844 31.785156 69.222656 33.273438 70.265625 C 34.460938 71.007812 35.355469 72.644531 35.503906 73.757812 C 35.578125 74.726562 34.980469 76.359375 34.535156 76.433594 C 34.164062 76.585938 32.902344 75.171875 33.050781 74.726562 C 33.199219 74.203125 35.28125 73.980469 36.542969 73.757812 C 37.808594 73.460938 39.21875 73.089844 40.558594 73.164062 C 41.75 73.164062 43.160156 73.3125 43.980469 73.90625 C 44.796875 74.503906 44.574219 76.136719 45.539062 76.433594 C 47.175781 77.105469 52.53125 73.386719 54.539062 73.460938 C 55.503906 73.535156 56.023438 73.832031 56.695312 74.429688 C 57.511719 75.171875 57.660156 77.550781 58.699219 77.847656 C 59.890625 78.144531 62.195312 75.394531 63.832031 74.875 C 65.246094 74.351562 66.953125 74.054688 68.070312 74.277344 C 68.886719 74.503906 69.257812 75.46875 70.078125 75.542969 C 71.488281 75.617188 74.316406 73.015625 75.726562 73.015625 C 76.546875 73.015625 77.4375 73.386719 77.808594 73.90625 C 78.257812 74.503906 77.585938 75.988281 78.105469 76.210938 C 79.222656 76.808594 85.617188 71.082031 87.179688 71.601562 C 88.070312 71.898438 87.699219 74.054688 88.515625 74.351562 C 89.929688 74.800781 94.09375 70.339844 96.398438 69.964844 C 97.960938 69.667969 99.820312 69.816406 100.5625 70.5625 C 101.230469 71.230469 100.488281 73.164062 101.230469 73.535156 C 102.496094 74.277344 107.773438 69.816406 109.855469 70.117188 C 111.195312 70.339844 112.234375 71.675781 112.832031 72.644531 C 113.351562 73.386719 113.796875 74.875 113.425781 75.246094 C 113.128906 75.542969 111.121094 75.171875 111.046875 74.800781 C 110.898438 73.980469 118.40625 69.296875 120.5625 68.777344 C 121.53125 68.554688 122.199219 68.703125 122.867188 69 C 123.613281 69.296875 124.578125 69.816406 124.726562 70.488281 C 124.949219 71.082031 123.761719 72.496094 123.984375 72.71875 C 124.503906 73.089844 128.445312 69.296875 130.15625 69.222656 C 131.417969 69.222656 132.757812 70.117188 133.425781 71.007812 C 134.019531 71.75 133.425781 73.757812 134.167969 74.128906 C 135.507812 74.726562 140.5625 69.445312 142.792969 69.519531 C 144.207031 69.59375 146.140625 70.859375 146.363281 71.75 C 146.511719 72.421875 144.726562 73.980469 144.949219 74.128906 C 145.324219 74.503906 150.378906 70.488281 152.164062 69.890625 C 153.128906 69.59375 153.726562 69.445312 154.542969 69.667969 C 155.582031 69.964844 156.625 71.972656 157.589844 71.972656 C 158.632812 71.898438 159.375 70.117188 160.492188 69.59375 C 161.679688 69 163.539062 68.257812 164.582031 68.628906 C 165.472656 68.925781 165.769531 70.710938 166.589844 70.785156 C 167.480469 70.859375 168.519531 69.074219 169.710938 68.554688 C 170.976562 68.035156 172.832031 67.4375 173.949219 67.660156 C 174.765625 67.882812 175.4375 68.628906 175.882812 69.371094 C 176.328125 70.191406 176.699219 72.195312 176.328125 72.570312 C 175.957031 72.941406 174.023438 72.421875 173.949219 71.972656 C 173.875 71.304688 179.972656 67.734375 182.128906 67.660156 C 183.390625 67.660156 184.65625 68.554688 185.324219 69.296875 C 185.84375 69.890625 186.21875 71.304688 186.070312 71.453125 C 185.84375 71.527344 184.136719 70.265625 184.210938 69.742188 C 184.285156 69.148438 186.292969 68.257812 187.332031 68.257812 C 188.449219 68.183594 189.710938 68.925781 190.605469 69.59375 C 191.496094 70.117188 191.867188 71.378906 192.835938 71.824219 C 194.246094 72.347656 197 71.527344 198.410156 71.898438 C 199.304688 72.195312 199.75 73.015625 200.566406 73.238281 C 201.3125 73.535156 202.351562 73.757812 203.019531 73.460938 C 203.691406 73.164062 203.765625 71.972656 204.507812 71.675781 C 205.476562 71.304688 208.597656 72.496094 208.671875 72.347656 C 208.671875 72.273438 206.441406 71.824219 206.441406 71.453125 C 206.441406 70.859375 211.050781 68.777344 212.09375 69.296875 C 212.835938 69.667969 213.355469 72.046875 213.058594 72.273438 C 212.835938 72.496094 211.125 71.527344 210.605469 70.859375 C 210.085938 70.191406 209.714844 69.222656 209.789062 68.332031 C 209.9375 67.214844 210.902344 65.578125 211.792969 64.910156 C 212.613281 64.390625 214.769531 64.6875 214.84375 64.316406 C 214.84375 63.945312 212.242188 63.347656 211.570312 62.457031 C 210.902344 61.566406 210.382812 59.78125 210.679688 58.960938 C 210.976562 58.292969 212.835938 58.144531 212.835938 57.625 C 212.910156 57.027344 210.53125 56.433594 209.9375 55.617188 C 209.414062 54.945312 209.265625 54.277344 209.265625 53.460938 C 209.265625 52.269531 210.085938 50.335938 210.828125 49.148438 C 211.496094 48.03125 213.578125 47.140625 213.429688 46.472656 C 213.28125 45.800781 211.125 45.800781 210.457031 44.984375 C 209.714844 44.089844 209.117188 42.308594 209.339844 41.191406 C 209.488281 40.003906 210.53125 38.960938 211.421875 38.070312 C 212.316406 37.101562 214.023438 35.617188 214.695312 35.839844 C 215.140625 35.988281 215.734375 37.695312 215.4375 37.996094 C 215.066406 38.441406 212.835938 37.621094 211.792969 37.175781 C 210.902344 36.804688 209.9375 36.433594 209.488281 35.617188 C 208.96875 34.648438 208.820312 32.34375 209.265625 31.453125 C 209.636719 30.78125 211.199219 30.707031 211.199219 30.1875 C 211.273438 29.519531 209.042969 28.699219 208.671875 27.734375 C 208.449219 26.992188 208.597656 25.949219 208.96875 25.132812 C 209.414062 24.164062 210.457031 23.273438 211.347656 22.378906 C 212.316406 21.488281 213.949219 19.628906 214.546875 19.851562 C 214.992188 20 215.289062 22.082031 214.84375 22.453125 C 214.398438 22.902344 212.09375 22.007812 211.273438 21.414062 C 210.53125 20.96875 210.011719 20.445312 209.789062 19.703125 C 209.414062 18.738281 209.5625 17.101562 209.789062 15.910156 C 210.011719 15.019531 210.308594 13.53125 210.828125 13.382812 C 211.273438 13.160156 212.835938 14.351562 212.761719 14.574219 C 212.6875 14.722656 210.234375 14.796875 209.488281 14.128906 C 208.671875 13.53125 208.152344 11.597656 208.375 10.632812 C 208.523438 9.816406 209.636719 8.847656 210.308594 8.550781 C 210.902344 8.402344 211.496094 8.550781 212.019531 8.773438 C 212.464844 8.996094 212.910156 9.515625 213.058594 10.039062 C 213.28125 10.484375 213.28125 11.152344 213.058594 11.671875 C 212.910156 12.121094 212.613281 12.417969 212.019531 12.9375 C 210.53125 14.054688 205.476562 16.730469 203.320312 17.398438 C 202.203125 17.769531 201.386719 17.917969 200.566406 17.769531 C 199.75 17.546875 198.933594 17.101562 198.410156 16.507812 C 197.890625 15.910156 197.519531 15.09375 197.445312 14.277344 C 197.445312 13.308594 197.890625 11.449219 198.484375 11.226562 C 199.007812 11.078125 200.492188 12.121094 200.417969 12.566406 C 200.34375 13.53125 193.875 15.984375 191.644531 15.6875 C 190.15625 15.539062 188.597656 14.351562 188.152344 13.457031 C 187.777344 12.789062 187.777344 11.300781 188.152344 11.152344 C 188.449219 11.003906 190.15625 12.046875 190.082031 12.492188 C 189.933594 13.234375 184.507812 14.574219 182.351562 14.574219 C 180.714844 14.5 179.078125 14.203125 178.1875 13.382812 C 177.292969 12.566406 176.996094 10.78125 176.921875 9.664062 C 176.847656 8.699219 177.144531 7.136719 177.59375 6.988281 C 178.039062 6.765625 179.75 7.882812 179.675781 8.328125 C 179.527344 9.292969 171.421875 11.375 169.339844 11.078125 C 168.371094 10.929688 167.703125 10.558594 167.257812 9.890625 C 166.738281 9.070312 166.664062 6.320312 166.589844 6.320312 C 166.589844 6.320312 167.183594 7.957031 166.738281 8.550781 C 165.992188 9.664062 161.605469 10.261719 159.523438 10.410156 C 158.039062 10.484375 156.699219 10.335938 155.582031 9.964844 C 154.691406 9.664062 154.171875 8.699219 153.277344 8.625 C 152.015625 8.476562 150.082031 9.964844 148.445312 10.261719 C 147.03125 10.558594 145.324219 10.855469 144.207031 10.484375 C 143.242188 10.113281 142.945312 8.625 141.976562 8.402344 C 140.5625 8.179688 138.109375 10.113281 136.402344 10.484375 C 134.914062 10.855469 133.574219 11.152344 132.238281 10.78125 C 130.75 10.410156 129.632812 8.179688 127.925781 7.957031 C 125.769531 7.734375 122.496094 10.484375 120.191406 11.003906 C 118.40625 11.375 116.695312 11.523438 115.359375 11.300781 C 114.242188 11.152344 113.722656 10.410156 112.53125 10.335938 C 110.601562 10.113281 106.4375 12.195312 104.726562 11.671875 C 103.683594 11.375 103.535156 9.964844 102.496094 9.742188 C 100.414062 9.292969 95.878906 12.9375 92.679688 13.160156 C 89.78125 13.308594 86.808594 11.078125 84.277344 11.300781 C 82.121094 11.449219 80.113281 13.234375 78.332031 13.457031 C 76.992188 13.679688 75.652344 13.53125 74.539062 13.160156 C 73.570312 12.863281 73.050781 11.597656 72.011719 11.523438 C 70.300781 11.449219 67.101562 14.871094 65.320312 14.796875 C 64.128906 14.796875 63.386719 13.160156 62.269531 13.234375 C 60.707031 13.382812 58.253906 17.324219 56.769531 17.621094 C 55.949219 17.769531 55.503906 16.730469 54.613281 16.804688 C 53.125 17.027344 50.597656 20.597656 48.8125 21.191406 C 47.546875 21.636719 46.285156 21.488281 45.242188 21.117188 C 44.277344 20.820312 43.605469 19.480469 42.714844 19.480469 C 41.824219 19.480469 40.855469 20.820312 39.890625 21.042969 C 39.070312 21.191406 38.179688 21.117188 37.363281 20.820312 C 36.394531 20.445312 35.578125 18.8125 34.683594 18.738281 C 33.792969 18.664062 32.75 20.074219 31.933594 20.074219 C 31.191406 20.074219 30.519531 19.628906 29.777344 19.035156 C 28.664062 18.140625 26.582031 15.761719 26.507812 14.5 C 26.507812 13.679688 27.25 12.566406 27.84375 12.34375 C 28.4375 12.195312 29.925781 13.085938 29.925781 13.085938 " clip-rule="nonzero"/></clipPath></defs><g clip-path="url(#91dbb0699d)"><g clip-path="url(#0808dacde7)"><path fill="#1e1e1e" d="M 13.644531 0 L 222.371094 0 L 222.371094 85.359375 L 13.644531 85.359375 Z M 13.644531 0 " fill-opacity="1" fill-rule="nonzero"/></g></g><g fill="#000000" fill-opacity="1"><g transform="translate(100.568005, 73.83425)"><g><path d="M 0.015625 -0.609375 C 0.00390625 -0.609375 -0.00390625 -0.609375 -0.015625 -0.609375 C -0.0234375 -0.617188 -0.03125 -0.628906 -0.03125 -0.640625 C -0.03125 -0.648438 -0.0234375 -0.660156 -0.015625 -0.671875 C -0.00390625 -0.679688 0.00390625 -0.6875 0.015625 -0.6875 C 0.046875 -0.6875 0.078125 -0.6875 0.109375 -0.6875 C 0.140625 -0.6875 0.171875 -0.6875 0.203125 -0.6875 C 0.210938 -0.6875 0.222656 -0.6875 0.234375 -0.6875 C 0.296875 -0.675781 0.359375 -0.664062 0.421875 -0.65625 C 0.429688 -0.65625 0.4375 -0.648438 0.4375 -0.640625 C 0.445312 -0.628906 0.453125 -0.617188 0.453125 -0.609375 C 0.441406 -0.597656 0.429688 -0.585938 0.421875 -0.578125 C 0.421875 -0.578125 0.414062 -0.578125 0.40625 -0.578125 C 0.375 -0.585938 0.347656 -0.59375 0.328125 -0.59375 C 0.304688 -0.59375 0.28125 -0.597656 0.25 -0.609375 C 0.238281 -0.554688 0.234375 -0.503906 0.234375 -0.453125 C 0.234375 -0.410156 0.234375 -0.367188 0.234375 -0.328125 C 0.242188 -0.273438 0.25 -0.222656 0.25 -0.171875 C 0.257812 -0.128906 0.269531 -0.0859375 0.28125 -0.046875 C 0.289062 -0.0351562 0.289062 -0.0234375 0.28125 -0.015625 C 0.28125 -0.00390625 0.273438 0 0.265625 0 C 0.253906 0.0078125 0.242188 0.0078125 0.234375 0 C 0.222656 0 0.21875 -0.00390625 0.21875 -0.015625 C 0.207031 -0.0664062 0.195312 -0.117188 0.1875 -0.171875 C 0.175781 -0.222656 0.164062 -0.273438 0.15625 -0.328125 C 0.15625 -0.378906 0.15625 -0.425781 0.15625 -0.46875 C 0.15625 -0.519531 0.160156 -0.566406 0.171875 -0.609375 C 0.117188 -0.609375 0.0664062 -0.609375 0.015625 -0.609375 Z M 0.015625 -0.609375 "/></g></g><g transform="translate(100.947517, 73.83425)"><g><path d="M 0.078125 -0.375 C 0.0859375 -0.394531 0.0976562 -0.410156 0.109375 -0.421875 C 0.128906 -0.429688 0.148438 -0.441406 0.171875 -0.453125 C 0.191406 -0.460938 0.210938 -0.46875 0.234375 -0.46875 C 0.253906 -0.46875 0.273438 -0.460938 0.296875 -0.453125 C 0.316406 -0.441406 0.332031 -0.429688 0.34375 -0.421875 C 0.363281 -0.410156 0.378906 -0.394531 0.390625 -0.375 C 0.398438 -0.351562 0.40625 -0.332031 0.40625 -0.3125 C 0.40625 -0.300781 0.398438 -0.285156 0.390625 -0.265625 C 0.378906 -0.253906 0.363281 -0.242188 0.34375 -0.234375 C 0.332031 -0.234375 0.316406 -0.226562 0.296875 -0.21875 C 0.285156 -0.21875 0.269531 -0.21875 0.25 -0.21875 C 0.238281 -0.21875 0.222656 -0.21875 0.203125 -0.21875 C 0.191406 -0.21875 0.175781 -0.21875 0.15625 -0.21875 C 0.144531 -0.226562 0.128906 -0.234375 0.109375 -0.234375 C 0.117188 -0.203125 0.128906 -0.175781 0.140625 -0.15625 C 0.160156 -0.132812 0.179688 -0.113281 0.203125 -0.09375 C 0.210938 -0.09375 0.21875 -0.09375 0.21875 -0.09375 C 0.226562 -0.09375 0.234375 -0.09375 0.234375 -0.09375 C 0.242188 -0.09375 0.25 -0.09375 0.25 -0.09375 C 0.257812 -0.09375 0.265625 -0.09375 0.265625 -0.09375 C 0.273438 -0.09375 0.28125 -0.09375 0.28125 -0.09375 C 0.289062 -0.101562 0.300781 -0.109375 0.3125 -0.109375 C 0.3125 -0.117188 0.3125 -0.125 0.3125 -0.125 C 0.320312 -0.132812 0.332031 -0.140625 0.34375 -0.140625 C 0.34375 -0.148438 0.347656 -0.15625 0.359375 -0.15625 C 0.367188 -0.164062 0.378906 -0.164062 0.390625 -0.15625 C 0.398438 -0.15625 0.40625 -0.148438 0.40625 -0.140625 C 0.414062 -0.128906 0.414062 -0.117188 0.40625 -0.109375 C 0.382812 -0.078125 0.359375 -0.0507812 0.328125 -0.03125 C 0.304688 -0.0195312 0.28125 -0.015625 0.25 -0.015625 C 0.226562 -0.015625 0.203125 -0.0195312 0.171875 -0.03125 C 0.148438 -0.0390625 0.128906 -0.0546875 0.109375 -0.078125 C 0.0859375 -0.0976562 0.0664062 -0.117188 0.046875 -0.140625 C 0.0351562 -0.171875 0.03125 -0.203125 0.03125 -0.234375 C 0.0195312 -0.242188 0.015625 -0.25 0.015625 -0.25 C 0.015625 -0.257812 0.015625 -0.269531 0.015625 -0.28125 C 0.015625 -0.289062 0.015625 -0.296875 0.015625 -0.296875 C 0.0234375 -0.304688 0.0351562 -0.3125 0.046875 -0.3125 C 0.046875 -0.332031 0.0546875 -0.351562 0.078125 -0.375 Z M 0.3125 -0.359375 C 0.300781 -0.367188 0.289062 -0.375 0.28125 -0.375 C 0.257812 -0.382812 0.238281 -0.390625 0.21875 -0.390625 C 0.207031 -0.390625 0.195312 -0.382812 0.1875 -0.375 C 0.175781 -0.375 0.160156 -0.363281 0.140625 -0.34375 C 0.128906 -0.332031 0.125 -0.320312 0.125 -0.3125 C 0.132812 -0.300781 0.144531 -0.296875 0.15625 -0.296875 C 0.175781 -0.296875 0.195312 -0.296875 0.21875 -0.296875 C 0.226562 -0.296875 0.234375 -0.296875 0.234375 -0.296875 C 0.242188 -0.296875 0.253906 -0.296875 0.265625 -0.296875 C 0.273438 -0.296875 0.28125 -0.296875 0.28125 -0.296875 C 0.289062 -0.296875 0.296875 -0.296875 0.296875 -0.296875 C 0.304688 -0.304688 0.3125 -0.3125 0.3125 -0.3125 C 0.3125 -0.3125 0.316406 -0.3125 0.328125 -0.3125 L 0.328125 -0.328125 C 0.328125 -0.328125 0.320312 -0.332031 0.3125 -0.34375 C 0.3125 -0.351562 0.3125 -0.359375 0.3125 -0.359375 Z M 0.3125 -0.359375 "/></g></g><g transform="translate(101.382214, 73.83425)"><g><path d="M 0.03125 -0.09375 C 0.0625 -0.113281 0.0859375 -0.132812 0.109375 -0.15625 C 0.128906 -0.1875 0.15625 -0.21875 0.1875 -0.25 C 0.164062 -0.269531 0.144531 -0.289062 0.125 -0.3125 C 0.101562 -0.34375 0.0820312 -0.367188 0.0625 -0.390625 C 0.0507812 -0.398438 0.046875 -0.410156 0.046875 -0.421875 C 0.046875 -0.429688 0.0507812 -0.441406 0.0625 -0.453125 C 0.0703125 -0.460938 0.0820312 -0.46875 0.09375 -0.46875 C 0.101562 -0.46875 0.109375 -0.460938 0.109375 -0.453125 C 0.128906 -0.429688 0.148438 -0.40625 0.171875 -0.375 C 0.191406 -0.351562 0.207031 -0.332031 0.21875 -0.3125 C 0.238281 -0.332031 0.253906 -0.351562 0.265625 -0.375 C 0.273438 -0.40625 0.285156 -0.429688 0.296875 -0.453125 C 0.304688 -0.460938 0.316406 -0.46875 0.328125 -0.46875 C 0.335938 -0.46875 0.34375 -0.460938 0.34375 -0.453125 C 0.351562 -0.453125 0.359375 -0.445312 0.359375 -0.4375 C 0.367188 -0.4375 0.367188 -0.425781 0.359375 -0.40625 C 0.347656 -0.382812 0.332031 -0.359375 0.3125 -0.328125 C 0.300781 -0.304688 0.289062 -0.28125 0.28125 -0.25 C 0.300781 -0.21875 0.320312 -0.1875 0.34375 -0.15625 C 0.375 -0.125 0.398438 -0.09375 0.421875 -0.0625 C 0.429688 -0.0507812 0.4375 -0.0390625 0.4375 -0.03125 C 0.4375 -0.0195312 0.429688 -0.0078125 0.421875 0 C 0.421875 0 0.414062 0 0.40625 0 C 0.394531 0 0.382812 0 0.375 0 C 0.351562 -0.03125 0.328125 -0.0625 0.296875 -0.09375 C 0.273438 -0.125 0.253906 -0.15625 0.234375 -0.1875 C 0.210938 -0.15625 0.1875 -0.128906 0.15625 -0.109375 C 0.132812 -0.0859375 0.113281 -0.0625 0.09375 -0.03125 C 0.0820312 -0.03125 0.0703125 -0.03125 0.0625 -0.03125 C 0.0507812 -0.03125 0.0390625 -0.03125 0.03125 -0.03125 C 0.0195312 -0.0390625 0.015625 -0.0507812 0.015625 -0.0625 C 0.015625 -0.0703125 0.0195312 -0.0820312 0.03125 -0.09375 Z M 0.03125 -0.09375 "/></g></g><g transform="translate(101.818846, 73.83425)"><g><path d="M 0.34375 -0.34375 C 0.351562 -0.34375 0.359375 -0.335938 0.359375 -0.328125 C 0.367188 -0.316406 0.375 -0.304688 0.375 -0.296875 C 0.375 -0.285156 0.367188 -0.273438 0.359375 -0.265625 C 0.359375 -0.265625 0.351562 -0.265625 0.34375 -0.265625 C 0.320312 -0.265625 0.300781 -0.265625 0.28125 -0.265625 C 0.269531 -0.265625 0.257812 -0.265625 0.25 -0.265625 C 0.25 -0.210938 0.25 -0.160156 0.25 -0.109375 C 0.25 -0.0546875 0.242188 -0.00390625 0.234375 0.046875 C 0.234375 0.0546875 0.226562 0.0625 0.21875 0.0625 C 0.207031 0.0703125 0.195312 0.0703125 0.1875 0.0625 C 0.175781 0.0625 0.164062 0.0546875 0.15625 0.046875 C 0.15625 0.0351562 0.15625 0.0234375 0.15625 0.015625 C 0.164062 -0.0351562 0.171875 -0.0820312 0.171875 -0.125 C 0.171875 -0.175781 0.171875 -0.226562 0.171875 -0.28125 C 0.140625 -0.28125 0.113281 -0.28125 0.09375 -0.28125 C 0.0703125 -0.289062 0.046875 -0.296875 0.015625 -0.296875 C 0.00390625 -0.296875 0 -0.300781 0 -0.3125 C -0.0078125 -0.332031 -0.015625 -0.34375 -0.015625 -0.34375 C -0.00390625 -0.351562 0.00390625 -0.359375 0.015625 -0.359375 C 0.0234375 -0.367188 0.0351562 -0.375 0.046875 -0.375 C 0.0664062 -0.375 0.0859375 -0.367188 0.109375 -0.359375 C 0.128906 -0.359375 0.148438 -0.359375 0.171875 -0.359375 C 0.171875 -0.359375 0.171875 -0.363281 0.171875 -0.375 C 0.171875 -0.425781 0.171875 -0.476562 0.171875 -0.53125 C 0.171875 -0.59375 0.171875 -0.65625 0.171875 -0.71875 C 0.171875 -0.726562 0.175781 -0.738281 0.1875 -0.75 C 0.195312 -0.757812 0.207031 -0.765625 0.21875 -0.765625 C 0.226562 -0.765625 0.234375 -0.757812 0.234375 -0.75 C 0.242188 -0.738281 0.25 -0.726562 0.25 -0.71875 C 0.25 -0.65625 0.25 -0.59375 0.25 -0.53125 C 0.25 -0.46875 0.25 -0.40625 0.25 -0.34375 C 0.257812 -0.34375 0.269531 -0.34375 0.28125 -0.34375 C 0.300781 -0.34375 0.320312 -0.34375 0.34375 -0.34375 Z M 0.34375 -0.34375 "/></g></g><g transform="translate(102.204168, 73.83425)"><g><path d="M 0.28125 -0.453125 C 0.300781 -0.453125 0.320312 -0.453125 0.34375 -0.453125 C 0.363281 -0.453125 0.382812 -0.445312 0.40625 -0.4375 C 0.425781 -0.4375 0.445312 -0.425781 0.46875 -0.40625 C 0.488281 -0.394531 0.503906 -0.378906 0.515625 -0.359375 C 0.515625 -0.335938 0.515625 -0.316406 0.515625 -0.296875 C 0.515625 -0.285156 0.507812 -0.269531 0.5 -0.25 C 0.5 -0.238281 0.492188 -0.226562 0.484375 -0.21875 C 0.484375 -0.207031 0.472656 -0.195312 0.453125 -0.1875 C 0.429688 -0.164062 0.40625 -0.144531 0.375 -0.125 C 0.34375 -0.101562 0.304688 -0.0859375 0.265625 -0.078125 C 0.253906 -0.078125 0.238281 -0.0703125 0.21875 -0.0625 C 0.207031 -0.0625 0.191406 -0.0625 0.171875 -0.0625 C 0.160156 -0.0625 0.144531 -0.0625 0.125 -0.0625 C 0.113281 -0.0703125 0.0976562 -0.0820312 0.078125 -0.09375 C 0.0664062 -0.101562 0.0625 -0.109375 0.0625 -0.109375 C 0.0625 -0.128906 0.0546875 -0.140625 0.046875 -0.140625 C 0.046875 -0.148438 0.0390625 -0.160156 0.03125 -0.171875 C 0.03125 -0.179688 0.03125 -0.191406 0.03125 -0.203125 C 0.03125 -0.210938 0.03125 -0.222656 0.03125 -0.234375 C 0.03125 -0.265625 0.03125 -0.285156 0.03125 -0.296875 C 0.0390625 -0.316406 0.0546875 -0.335938 0.078125 -0.359375 C 0.109375 -0.378906 0.140625 -0.394531 0.171875 -0.40625 C 0.210938 -0.425781 0.25 -0.441406 0.28125 -0.453125 Z M 0.390625 -0.359375 C 0.367188 -0.367188 0.351562 -0.375 0.34375 -0.375 C 0.3125 -0.375 0.285156 -0.367188 0.265625 -0.359375 C 0.242188 -0.359375 0.222656 -0.351562 0.203125 -0.34375 C 0.191406 -0.34375 0.175781 -0.332031 0.15625 -0.3125 C 0.132812 -0.300781 0.117188 -0.289062 0.109375 -0.28125 C 0.109375 -0.269531 0.109375 -0.257812 0.109375 -0.25 C 0.109375 -0.238281 0.109375 -0.226562 0.109375 -0.21875 C 0.109375 -0.207031 0.109375 -0.195312 0.109375 -0.1875 C 0.117188 -0.175781 0.128906 -0.164062 0.140625 -0.15625 C 0.148438 -0.15625 0.15625 -0.15625 0.15625 -0.15625 C 0.175781 -0.144531 0.191406 -0.144531 0.203125 -0.15625 C 0.203125 -0.15625 0.207031 -0.15625 0.21875 -0.15625 C 0.238281 -0.15625 0.253906 -0.15625 0.265625 -0.15625 C 0.285156 -0.164062 0.300781 -0.175781 0.3125 -0.1875 C 0.332031 -0.195312 0.347656 -0.203125 0.359375 -0.203125 C 0.378906 -0.210938 0.390625 -0.222656 0.390625 -0.234375 C 0.398438 -0.242188 0.410156 -0.25 0.421875 -0.25 C 0.421875 -0.257812 0.421875 -0.265625 0.421875 -0.265625 C 0.429688 -0.273438 0.4375 -0.28125 0.4375 -0.28125 C 0.4375 -0.28125 0.4375 -0.285156 0.4375 -0.296875 L 0.4375 -0.3125 C 0.4375 -0.3125 0.4375 -0.316406 0.4375 -0.328125 C 0.4375 -0.328125 0.4375 -0.332031 0.4375 -0.34375 C 0.4375 -0.34375 0.429688 -0.34375 0.421875 -0.34375 L 0.421875 -0.359375 C 0.410156 -0.359375 0.40625 -0.359375 0.40625 -0.359375 C 0.40625 -0.359375 0.398438 -0.359375 0.390625 -0.359375 Z M 0.390625 -0.359375 "/></g></g><g transform="translate(102.733742, 73.83425)"><g/></g><g transform="translate(103.040644, 73.83425)"><g><path d="M 0.15625 -0.359375 C 0.175781 -0.367188 0.195312 -0.378906 0.21875 -0.390625 C 0.25 -0.398438 0.28125 -0.40625 0.3125 -0.40625 C 0.300781 -0.457031 0.296875 -0.507812 0.296875 -0.5625 C 0.296875 -0.625 0.296875 -0.679688 0.296875 -0.734375 C 0.296875 -0.742188 0.300781 -0.753906 0.3125 -0.765625 C 0.320312 -0.773438 0.328125 -0.78125 0.328125 -0.78125 C 0.335938 -0.78125 0.347656 -0.773438 0.359375 -0.765625 C 0.367188 -0.753906 0.375 -0.742188 0.375 -0.734375 C 0.375 -0.671875 0.375 -0.609375 0.375 -0.546875 C 0.382812 -0.484375 0.390625 -0.414062 0.390625 -0.34375 C 0.390625 -0.28125 0.390625 -0.21875 0.390625 -0.15625 C 0.390625 -0.09375 0.390625 -0.03125 0.390625 0.03125 C 0.390625 0.0507812 0.382812 0.0625 0.375 0.0625 C 0.363281 0.0703125 0.351562 0.078125 0.34375 0.078125 C 0.34375 0.078125 0.335938 0.0703125 0.328125 0.0625 C 0.316406 0.0625 0.3125 0.0507812 0.3125 0.03125 C 0.3125 0.03125 0.3125 0.0234375 0.3125 0.015625 C 0.3125 0.015625 0.304688 0.015625 0.296875 0.015625 C 0.285156 0.015625 0.28125 0.015625 0.28125 0.015625 C 0.269531 0.015625 0.257812 0.015625 0.25 0.015625 C 0.25 0.015625 0.242188 0.0078125 0.234375 0 C 0.210938 0 0.191406 0 0.171875 0 C 0.160156 0 0.144531 -0.00390625 0.125 -0.015625 C 0.113281 -0.015625 0.0976562 -0.0195312 0.078125 -0.03125 C 0.0664062 -0.0390625 0.0546875 -0.0546875 0.046875 -0.078125 C 0.0351562 -0.0859375 0.0234375 -0.101562 0.015625 -0.125 C 0.015625 -0.144531 0.015625 -0.164062 0.015625 -0.1875 C 0.015625 -0.207031 0.0195312 -0.222656 0.03125 -0.234375 C 0.0390625 -0.253906 0.0507812 -0.269531 0.0625 -0.28125 C 0.0703125 -0.300781 0.0820312 -0.316406 0.09375 -0.328125 C 0.113281 -0.335938 0.132812 -0.347656 0.15625 -0.359375 Z M 0.3125 -0.0625 C 0.3125 -0.15625 0.3125 -0.242188 0.3125 -0.328125 C 0.289062 -0.328125 0.269531 -0.320312 0.25 -0.3125 C 0.226562 -0.3125 0.207031 -0.304688 0.1875 -0.296875 C 0.175781 -0.285156 0.164062 -0.273438 0.15625 -0.265625 C 0.144531 -0.265625 0.132812 -0.257812 0.125 -0.25 C 0.113281 -0.238281 0.101562 -0.226562 0.09375 -0.21875 C 0.09375 -0.207031 0.09375 -0.191406 0.09375 -0.171875 C 0.09375 -0.160156 0.09375 -0.148438 0.09375 -0.140625 C 0.101562 -0.128906 0.113281 -0.117188 0.125 -0.109375 C 0.125 -0.0976562 0.128906 -0.0859375 0.140625 -0.078125 C 0.148438 -0.078125 0.160156 -0.078125 0.171875 -0.078125 C 0.191406 -0.078125 0.207031 -0.078125 0.21875 -0.078125 C 0.226562 -0.078125 0.238281 -0.078125 0.25 -0.078125 C 0.257812 -0.078125 0.269531 -0.0703125 0.28125 -0.0625 C 0.289062 -0.0625 0.300781 -0.0625 0.3125 -0.0625 Z M 0.3125 -0.0625 "/></g></g><g transform="translate(103.485022, 73.83425)"><g><path d="M 0.28125 -0.453125 C 0.300781 -0.453125 0.320312 -0.453125 0.34375 -0.453125 C 0.363281 -0.453125 0.382812 -0.445312 0.40625 -0.4375 C 0.425781 -0.4375 0.445312 -0.425781 0.46875 -0.40625 C 0.488281 -0.394531 0.503906 -0.378906 0.515625 -0.359375 C 0.515625 -0.335938 0.515625 -0.316406 0.515625 -0.296875 C 0.515625 -0.285156 0.507812 -0.269531 0.5 -0.25 C 0.5 -0.238281 0.492188 -0.226562 0.484375 -0.21875 C 0.484375 -0.207031 0.472656 -0.195312 0.453125 -0.1875 C 0.429688 -0.164062 0.40625 -0.144531 0.375 -0.125 C 0.34375 -0.101562 0.304688 -0.0859375 0.265625 -0.078125 C 0.253906 -0.078125 0.238281 -0.0703125 0.21875 -0.0625 C 0.207031 -0.0625 0.191406 -0.0625 0.171875 -0.0625 C 0.160156 -0.0625 0.144531 -0.0625 0.125 -0.0625 C 0.113281 -0.0703125 0.0976562 -0.0820312 0.078125 -0.09375 C 0.0664062 -0.101562 0.0625 -0.109375 0.0625 -0.109375 C 0.0625 -0.128906 0.0546875 -0.140625 0.046875 -0.140625 C 0.046875 -0.148438 0.0390625 -0.160156 0.03125 -0.171875 C 0.03125 -0.179688 0.03125 -0.191406 0.03125 -0.203125 C 0.03125 -0.210938 0.03125 -0.222656 0.03125 -0.234375 C 0.03125 -0.265625 0.03125 -0.285156 0.03125 -0.296875 C 0.0390625 -0.316406 0.0546875 -0.335938 0.078125 -0.359375 C 0.109375 -0.378906 0.140625 -0.394531 0.171875 -0.40625 C 0.210938 -0.425781 0.25 -0.441406 0.28125 -0.453125 Z M 0.390625 -0.359375 C 0.367188 -0.367188 0.351562 -0.375 0.34375 -0.375 C 0.3125 -0.375 0.285156 -0.367188 0.265625 -0.359375 C 0.242188 -0.359375 0.222656 -0.351562 0.203125 -0.34375 C 0.191406 -0.34375 0.175781 -0.332031 0.15625 -0.3125 C 0.132812 -0.300781 0.117188 -0.289062 0.109375 -0.28125 C 0.109375 -0.269531 0.109375 -0.257812 0.109375 -0.25 C 0.109375 -0.238281 0.109375 -0.226562 0.109375 -0.21875 C 0.109375 -0.207031 0.109375 -0.195312 0.109375 -0.1875 C 0.117188 -0.175781 0.128906 -0.164062 0.140625 -0.15625 C 0.148438 -0.15625 0.15625 -0.15625 0.15625 -0.15625 C 0.175781 -0.144531 0.191406 -0.144531 0.203125 -0.15625 C 0.203125 -0.15625 0.207031 -0.15625 0.21875 -0.15625 C 0.238281 -0.15625 0.253906 -0.15625 0.265625 -0.15625 C 0.285156 -0.164062 0.300781 -0.175781 0.3125 -0.1875 C 0.332031 -0.195312 0.347656 -0.203125 0.359375 -0.203125 C 0.378906 -0.210938 0.390625 -0.222656 0.390625 -0.234375 C 0.398438 -0.242188 0.410156 -0.25 0.421875 -0.25 C 0.421875 -0.257812 0.421875 -0.265625 0.421875 -0.265625 C 0.429688 -0.273438 0.4375 -0.28125 0.4375 -0.28125 C 0.4375 -0.28125 0.4375 -0.285156 0.4375 -0.296875 L 0.4375 -0.3125 C 0.4375 -0.3125 0.4375 -0.316406 0.4375 -0.328125 C 0.4375 -0.328125 0.4375 -0.332031 0.4375 -0.34375 C 0.4375 -0.34375 0.429688 -0.34375 0.421875 -0.34375 L 0.421875 -0.359375 C 0.410156 -0.359375 0.40625 -0.359375 0.40625 -0.359375 C 0.40625 -0.359375 0.398438 -0.359375 0.390625 -0.359375 Z M 0.390625 -0.359375 "/></g></g><g transform="translate(104.014597, 73.83425)"><g/></g><g transform="translate(104.321498, 73.83425)"><g><path d="M 0.078125 -0.21875 C 0.0664062 -0.226562 0.0546875 -0.242188 0.046875 -0.265625 C 0.0351562 -0.285156 0.0351562 -0.304688 0.046875 -0.328125 C 0.046875 -0.335938 0.0507812 -0.347656 0.0625 -0.359375 C 0.0820312 -0.378906 0.101562 -0.394531 0.125 -0.40625 C 0.144531 -0.414062 0.164062 -0.421875 0.1875 -0.421875 C 0.207031 -0.429688 0.226562 -0.4375 0.25 -0.4375 C 0.269531 -0.4375 0.289062 -0.4375 0.3125 -0.4375 C 0.34375 -0.4375 0.367188 -0.429688 0.390625 -0.421875 C 0.398438 -0.410156 0.40625 -0.398438 0.40625 -0.390625 C 0.40625 -0.378906 0.398438 -0.367188 0.390625 -0.359375 C 0.390625 -0.347656 0.382812 -0.34375 0.375 -0.34375 C 0.363281 -0.34375 0.351562 -0.34375 0.34375 -0.34375 C 0.320312 -0.351562 0.300781 -0.359375 0.28125 -0.359375 C 0.269531 -0.367188 0.253906 -0.367188 0.234375 -0.359375 C 0.210938 -0.359375 0.191406 -0.351562 0.171875 -0.34375 C 0.160156 -0.34375 0.144531 -0.332031 0.125 -0.3125 C 0.125 -0.3125 0.125 -0.304688 0.125 -0.296875 C 0.125 -0.285156 0.125 -0.28125 0.125 -0.28125 C 0.132812 -0.269531 0.144531 -0.265625 0.15625 -0.265625 C 0.175781 -0.265625 0.191406 -0.265625 0.203125 -0.265625 C 0.222656 -0.265625 0.242188 -0.257812 0.265625 -0.25 C 0.285156 -0.25 0.304688 -0.25 0.328125 -0.25 C 0.347656 -0.25 0.363281 -0.242188 0.375 -0.234375 C 0.394531 -0.222656 0.410156 -0.207031 0.421875 -0.1875 C 0.441406 -0.15625 0.445312 -0.128906 0.4375 -0.109375 C 0.4375 -0.0859375 0.429688 -0.0664062 0.421875 -0.046875 C 0.398438 -0.0234375 0.375 -0.0078125 0.34375 0 C 0.320312 0 0.300781 0.00390625 0.28125 0.015625 C 0.257812 0.015625 0.234375 0.015625 0.203125 0.015625 C 0.179688 0.015625 0.160156 0.0078125 0.140625 0 C 0.117188 0 0.0976562 -0.00390625 0.078125 -0.015625 C 0.0546875 -0.0351562 0.0390625 -0.0546875 0.03125 -0.078125 C 0.03125 -0.0859375 0.03125 -0.0976562 0.03125 -0.109375 C 0.03125 -0.117188 0.0351562 -0.125 0.046875 -0.125 C 0.0546875 -0.132812 0.0664062 -0.132812 0.078125 -0.125 C 0.0859375 -0.125 0.0976562 -0.117188 0.109375 -0.109375 C 0.109375 -0.0976562 0.117188 -0.0859375 0.140625 -0.078125 C 0.160156 -0.0664062 0.175781 -0.0625 0.1875 -0.0625 C 0.207031 -0.0625 0.226562 -0.0625 0.25 -0.0625 C 0.269531 -0.0625 0.289062 -0.0664062 0.3125 -0.078125 C 0.3125 -0.078125 0.316406 -0.078125 0.328125 -0.078125 C 0.335938 -0.078125 0.34375 -0.078125 0.34375 -0.078125 C 0.351562 -0.0859375 0.359375 -0.0976562 0.359375 -0.109375 C 0.367188 -0.117188 0.367188 -0.128906 0.359375 -0.140625 C 0.359375 -0.148438 0.347656 -0.15625 0.328125 -0.15625 C 0.316406 -0.164062 0.300781 -0.175781 0.28125 -0.1875 C 0.269531 -0.1875 0.253906 -0.1875 0.234375 -0.1875 C 0.210938 -0.1875 0.191406 -0.1875 0.171875 -0.1875 C 0.160156 -0.1875 0.144531 -0.1875 0.125 -0.1875 C 0.113281 -0.195312 0.0976562 -0.207031 0.078125 -0.21875 Z M 0.078125 -0.21875 "/></g></g><g transform="translate(104.792984, 73.83425)"><g><path d="M 0.078125 -0.375 C 0.0859375 -0.394531 0.0976562 -0.410156 0.109375 -0.421875 C 0.128906 -0.429688 0.148438 -0.441406 0.171875 -0.453125 C 0.191406 -0.460938 0.210938 -0.46875 0.234375 -0.46875 C 0.253906 -0.46875 0.273438 -0.460938 0.296875 -0.453125 C 0.316406 -0.441406 0.332031 -0.429688 0.34375 -0.421875 C 0.363281 -0.410156 0.378906 -0.394531 0.390625 -0.375 C 0.398438 -0.351562 0.40625 -0.332031 0.40625 -0.3125 C 0.40625 -0.300781 0.398438 -0.285156 0.390625 -0.265625 C 0.378906 -0.253906 0.363281 -0.242188 0.34375 -0.234375 C 0.332031 -0.234375 0.316406 -0.226562 0.296875 -0.21875 C 0.285156 -0.21875 0.269531 -0.21875 0.25 -0.21875 C 0.238281 -0.21875 0.222656 -0.21875 0.203125 -0.21875 C 0.191406 -0.21875 0.175781 -0.21875 0.15625 -0.21875 C 0.144531 -0.226562 0.128906 -0.234375 0.109375 -0.234375 C 0.117188 -0.203125 0.128906 -0.175781 0.140625 -0.15625 C 0.160156 -0.132812 0.179688 -0.113281 0.203125 -0.09375 C 0.210938 -0.09375 0.21875 -0.09375 0.21875 -0.09375 C 0.226562 -0.09375 0.234375 -0.09375 0.234375 -0.09375 C 0.242188 -0.09375 0.25 -0.09375 0.25 -0.09375 C 0.257812 -0.09375 0.265625 -0.09375 0.265625 -0.09375 C 0.273438 -0.09375 0.28125 -0.09375 0.28125 -0.09375 C 0.289062 -0.101562 0.300781 -0.109375 0.3125 -0.109375 C 0.3125 -0.117188 0.3125 -0.125 0.3125 -0.125 C 0.320312 -0.132812 0.332031 -0.140625 0.34375 -0.140625 C 0.34375 -0.148438 0.347656 -0.15625 0.359375 -0.15625 C 0.367188 -0.164062 0.378906 -0.164062 0.390625 -0.15625 C 0.398438 -0.15625 0.40625 -0.148438 0.40625 -0.140625 C 0.414062 -0.128906 0.414062 -0.117188 0.40625 -0.109375 C 0.382812 -0.078125 0.359375 -0.0507812 0.328125 -0.03125 C 0.304688 -0.0195312 0.28125 -0.015625 0.25 -0.015625 C 0.226562 -0.015625 0.203125 -0.0195312 0.171875 -0.03125 C 0.148438 -0.0390625 0.128906 -0.0546875 0.109375 -0.078125 C 0.0859375 -0.0976562 0.0664062 -0.117188 0.046875 -0.140625 C 0.0351562 -0.171875 0.03125 -0.203125 0.03125 -0.234375 C 0.0195312 -0.242188 0.015625 -0.25 0.015625 -0.25 C 0.015625 -0.257812 0.015625 -0.269531 0.015625 -0.28125 C 0.015625 -0.289062 0.015625 -0.296875 0.015625 -0.296875 C 0.0234375 -0.304688 0.0351562 -0.3125 0.046875 -0.3125 C 0.046875 -0.332031 0.0546875 -0.351562 0.078125 -0.375 Z M 0.3125 -0.359375 C 0.300781 -0.367188 0.289062 -0.375 0.28125 -0.375 C 0.257812 -0.382812 0.238281 -0.390625 0.21875 -0.390625 C 0.207031 -0.390625 0.195312 -0.382812 0.1875 -0.375 C 0.175781 -0.375 0.160156 -0.363281 0.140625 -0.34375 C 0.128906 -0.332031 0.125 -0.320312 0.125 -0.3125 C 0.132812 -0.300781 0.144531 -0.296875 0.15625 -0.296875 C 0.175781 -0.296875 0.195312 -0.296875 0.21875 -0.296875 C 0.226562 -0.296875 0.234375 -0.296875 0.234375 -0.296875 C 0.242188 -0.296875 0.253906 -0.296875 0.265625 -0.296875 C 0.273438 -0.296875 0.28125 -0.296875 0.28125 -0.296875 C 0.289062 -0.296875 0.296875 -0.296875 0.296875 -0.296875 C 0.304688 -0.304688 0.3125 -0.3125 0.3125 -0.3125 C 0.3125 -0.3125 0.316406 -0.3125 0.328125 -0.3125 L 0.328125 -0.328125 C 0.328125 -0.328125 0.320312 -0.332031 0.3125 -0.34375 C 0.3125 -0.351562 0.3125 -0.359375 0.3125 -0.359375 Z M 0.3125 -0.359375 "/></g></g><g transform="translate(105.227681, 73.83425)"><g><path d="M 0.46875 -0.34375 C 0.46875 -0.289062 0.46875 -0.234375 0.46875 -0.171875 C 0.476562 -0.117188 0.488281 -0.0664062 0.5 -0.015625 C 0.5 0.00390625 0.492188 0.015625 0.484375 0.015625 C 0.484375 0.0234375 0.476562 0.03125 0.46875 0.03125 C 0.457031 0.0390625 0.445312 0.0390625 0.4375 0.03125 C 0.4375 0.03125 0.429688 0.0234375 0.421875 0.015625 C 0.421875 -0.0234375 0.414062 -0.0625 0.40625 -0.09375 C 0.40625 -0.09375 0.398438 -0.09375 0.390625 -0.09375 C 0.390625 -0.09375 0.390625 -0.0859375 0.390625 -0.078125 C 0.378906 -0.0664062 0.363281 -0.0546875 0.34375 -0.046875 C 0.332031 -0.0351562 0.316406 -0.0234375 0.296875 -0.015625 C 0.273438 -0.00390625 0.253906 0 0.234375 0 C 0.210938 0 0.191406 -0.00390625 0.171875 -0.015625 C 0.140625 -0.0234375 0.113281 -0.0390625 0.09375 -0.0625 C 0.0703125 -0.0820312 0.0546875 -0.109375 0.046875 -0.140625 C 0.046875 -0.171875 0.046875 -0.203125 0.046875 -0.234375 C 0.046875 -0.273438 0.046875 -0.304688 0.046875 -0.328125 C 0.046875 -0.347656 0.046875 -0.359375 0.046875 -0.359375 C 0.0546875 -0.367188 0.0664062 -0.375 0.078125 -0.375 C 0.0859375 -0.375 0.0976562 -0.367188 0.109375 -0.359375 C 0.117188 -0.359375 0.125 -0.347656 0.125 -0.328125 C 0.125 -0.304688 0.125 -0.28125 0.125 -0.25 C 0.125 -0.226562 0.125 -0.207031 0.125 -0.1875 C 0.125 -0.164062 0.125 -0.148438 0.125 -0.140625 C 0.132812 -0.128906 0.144531 -0.117188 0.15625 -0.109375 C 0.164062 -0.0976562 0.171875 -0.09375 0.171875 -0.09375 C 0.179688 -0.09375 0.1875 -0.09375 0.1875 -0.09375 C 0.21875 -0.0820312 0.242188 -0.0820312 0.265625 -0.09375 C 0.296875 -0.101562 0.320312 -0.117188 0.34375 -0.140625 C 0.351562 -0.160156 0.359375 -0.175781 0.359375 -0.1875 C 0.367188 -0.207031 0.375 -0.222656 0.375 -0.234375 C 0.375 -0.253906 0.375 -0.273438 0.375 -0.296875 C 0.375 -0.316406 0.378906 -0.332031 0.390625 -0.34375 C 0.390625 -0.363281 0.394531 -0.375 0.40625 -0.375 C 0.414062 -0.382812 0.425781 -0.390625 0.4375 -0.390625 C 0.4375 -0.390625 0.441406 -0.390625 0.453125 -0.390625 L 0.453125 -0.375 C 0.460938 -0.363281 0.46875 -0.351562 0.46875 -0.34375 Z M 0.46875 -0.34375 "/></g></g><g transform="translate(105.755319, 73.83425)"><g/></g><g transform="translate(106.062221, 73.83425)"><g><path d="M 0.15625 0.28125 C 0.15625 0.289062 0.148438 0.296875 0.140625 0.296875 C 0.128906 0.304688 0.117188 0.3125 0.109375 0.3125 C 0.0976562 0.3125 0.0859375 0.304688 0.078125 0.296875 C 0.078125 0.296875 0.078125 0.289062 0.078125 0.28125 C 0.0664062 0.175781 0.0625 0.0703125 0.0625 -0.03125 C 0.0625 -0.132812 0.0546875 -0.238281 0.046875 -0.34375 C 0.0351562 -0.351562 0.0351562 -0.367188 0.046875 -0.390625 C 0.046875 -0.398438 0.046875 -0.410156 0.046875 -0.421875 C 0.046875 -0.429688 0.046875 -0.4375 0.046875 -0.4375 C 0.0546875 -0.445312 0.0664062 -0.453125 0.078125 -0.453125 C 0.0859375 -0.460938 0.0976562 -0.460938 0.109375 -0.453125 C 0.117188 -0.453125 0.125 -0.441406 0.125 -0.421875 C 0.132812 -0.429688 0.144531 -0.4375 0.15625 -0.4375 C 0.164062 -0.445312 0.175781 -0.453125 0.1875 -0.453125 C 0.195312 -0.460938 0.207031 -0.46875 0.21875 -0.46875 C 0.226562 -0.46875 0.238281 -0.46875 0.25 -0.46875 C 0.257812 -0.476562 0.269531 -0.484375 0.28125 -0.484375 C 0.289062 -0.484375 0.300781 -0.476562 0.3125 -0.46875 C 0.332031 -0.46875 0.347656 -0.457031 0.359375 -0.4375 C 0.378906 -0.425781 0.394531 -0.410156 0.40625 -0.390625 C 0.40625 -0.367188 0.410156 -0.347656 0.421875 -0.328125 C 0.429688 -0.304688 0.4375 -0.289062 0.4375 -0.28125 C 0.4375 -0.257812 0.429688 -0.238281 0.421875 -0.21875 C 0.421875 -0.195312 0.410156 -0.179688 0.390625 -0.171875 C 0.378906 -0.160156 0.363281 -0.144531 0.34375 -0.125 C 0.332031 -0.113281 0.320312 -0.109375 0.3125 -0.109375 C 0.289062 -0.0976562 0.269531 -0.0859375 0.25 -0.078125 C 0.226562 -0.078125 0.207031 -0.0703125 0.1875 -0.0625 C 0.175781 -0.0625 0.164062 -0.0625 0.15625 -0.0625 C 0.15625 -0.0703125 0.148438 -0.078125 0.140625 -0.078125 C 0.140625 -0.015625 0.140625 0.0390625 0.140625 0.09375 C 0.140625 0.15625 0.144531 0.21875 0.15625 0.28125 Z M 0.125 -0.34375 C 0.125 -0.3125 0.125 -0.28125 0.125 -0.25 C 0.132812 -0.226562 0.140625 -0.203125 0.140625 -0.171875 C 0.140625 -0.160156 0.140625 -0.15625 0.140625 -0.15625 C 0.148438 -0.15625 0.15625 -0.15625 0.15625 -0.15625 C 0.164062 -0.144531 0.171875 -0.140625 0.171875 -0.140625 C 0.171875 -0.140625 0.175781 -0.140625 0.1875 -0.140625 C 0.195312 -0.148438 0.207031 -0.15625 0.21875 -0.15625 C 0.238281 -0.15625 0.253906 -0.160156 0.265625 -0.171875 C 0.285156 -0.179688 0.300781 -0.1875 0.3125 -0.1875 C 0.320312 -0.195312 0.332031 -0.207031 0.34375 -0.21875 C 0.34375 -0.226562 0.34375 -0.238281 0.34375 -0.25 C 0.351562 -0.257812 0.359375 -0.269531 0.359375 -0.28125 C 0.359375 -0.289062 0.351562 -0.300781 0.34375 -0.3125 C 0.34375 -0.320312 0.335938 -0.335938 0.328125 -0.359375 C 0.328125 -0.359375 0.320312 -0.359375 0.3125 -0.359375 C 0.3125 -0.367188 0.3125 -0.378906 0.3125 -0.390625 C 0.300781 -0.390625 0.296875 -0.394531 0.296875 -0.40625 C 0.273438 -0.40625 0.257812 -0.398438 0.25 -0.390625 C 0.238281 -0.390625 0.222656 -0.382812 0.203125 -0.375 C 0.191406 -0.375 0.179688 -0.367188 0.171875 -0.359375 C 0.160156 -0.359375 0.144531 -0.351562 0.125 -0.34375 Z M 0.125 -0.34375 "/></g></g><g transform="translate(106.521121, 73.83425)"><g><path d="M 0.109375 -0.03125 C 0.0859375 -0.0390625 0.0703125 -0.0507812 0.0625 -0.0625 C 0.0507812 -0.0820312 0.0390625 -0.101562 0.03125 -0.125 C 0.03125 -0.144531 0.03125 -0.164062 0.03125 -0.1875 C 0.03125 -0.207031 0.0351562 -0.226562 0.046875 -0.25 C 0.046875 -0.269531 0.0507812 -0.285156 0.0625 -0.296875 C 0.0703125 -0.316406 0.0820312 -0.332031 0.09375 -0.34375 C 0.101562 -0.363281 0.113281 -0.378906 0.125 -0.390625 C 0.144531 -0.398438 0.164062 -0.40625 0.1875 -0.40625 C 0.195312 -0.414062 0.210938 -0.421875 0.234375 -0.421875 C 0.253906 -0.421875 0.273438 -0.414062 0.296875 -0.40625 C 0.304688 -0.40625 0.316406 -0.40625 0.328125 -0.40625 C 0.335938 -0.40625 0.347656 -0.398438 0.359375 -0.390625 C 0.359375 -0.398438 0.359375 -0.40625 0.359375 -0.40625 C 0.367188 -0.414062 0.378906 -0.421875 0.390625 -0.421875 C 0.398438 -0.421875 0.410156 -0.414062 0.421875 -0.40625 C 0.429688 -0.40625 0.4375 -0.398438 0.4375 -0.390625 C 0.4375 -0.359375 0.4375 -0.328125 0.4375 -0.296875 C 0.4375 -0.265625 0.4375 -0.234375 0.4375 -0.203125 C 0.4375 -0.179688 0.429688 -0.15625 0.421875 -0.125 C 0.421875 -0.09375 0.425781 -0.0625 0.4375 -0.03125 C 0.4375 -0.0195312 0.429688 -0.0078125 0.421875 0 C 0.410156 0 0.398438 0 0.390625 0 C 0.378906 0 0.367188 0 0.359375 0 C 0.359375 -0.0078125 0.359375 -0.0195312 0.359375 -0.03125 C 0.316406 -0.0195312 0.273438 -0.0078125 0.234375 0 C 0.191406 0 0.148438 -0.0078125 0.109375 -0.03125 Z M 0.125 -0.234375 C 0.113281 -0.222656 0.109375 -0.207031 0.109375 -0.1875 C 0.109375 -0.175781 0.109375 -0.164062 0.109375 -0.15625 C 0.109375 -0.144531 0.109375 -0.128906 0.109375 -0.109375 C 0.117188 -0.0976562 0.132812 -0.09375 0.15625 -0.09375 C 0.1875 -0.0820312 0.21875 -0.078125 0.25 -0.078125 C 0.289062 -0.0859375 0.320312 -0.101562 0.34375 -0.125 C 0.351562 -0.15625 0.359375 -0.1875 0.359375 -0.21875 C 0.359375 -0.25 0.359375 -0.273438 0.359375 -0.296875 C 0.347656 -0.304688 0.335938 -0.3125 0.328125 -0.3125 C 0.316406 -0.320312 0.300781 -0.328125 0.28125 -0.328125 C 0.269531 -0.335938 0.253906 -0.34375 0.234375 -0.34375 C 0.222656 -0.34375 0.210938 -0.34375 0.203125 -0.34375 C 0.203125 -0.34375 0.195312 -0.335938 0.1875 -0.328125 C 0.1875 -0.328125 0.179688 -0.328125 0.171875 -0.328125 C 0.171875 -0.328125 0.164062 -0.320312 0.15625 -0.3125 C 0.15625 -0.300781 0.148438 -0.289062 0.140625 -0.28125 C 0.128906 -0.269531 0.125 -0.253906 0.125 -0.234375 Z M 0.125 -0.234375 "/></g></g><g transform="translate(107.002289, 73.83425)"><g><path d="M 0.0625 -0.390625 C 0.0625 -0.410156 0.0625 -0.421875 0.0625 -0.421875 C 0.0703125 -0.429688 0.0820312 -0.4375 0.09375 -0.4375 C 0.101562 -0.4375 0.113281 -0.429688 0.125 -0.421875 C 0.132812 -0.421875 0.140625 -0.410156 0.140625 -0.390625 C 0.140625 -0.390625 0.140625 -0.382812 0.140625 -0.375 C 0.160156 -0.382812 0.179688 -0.390625 0.203125 -0.390625 C 0.222656 -0.398438 0.242188 -0.40625 0.265625 -0.40625 C 0.285156 -0.414062 0.304688 -0.414062 0.328125 -0.40625 C 0.359375 -0.40625 0.378906 -0.394531 0.390625 -0.375 C 0.398438 -0.363281 0.40625 -0.351562 0.40625 -0.34375 C 0.40625 -0.332031 0.398438 -0.320312 0.390625 -0.3125 C 0.390625 -0.3125 0.382812 -0.3125 0.375 -0.3125 C 0.363281 -0.3125 0.351562 -0.316406 0.34375 -0.328125 C 0.332031 -0.328125 0.320312 -0.328125 0.3125 -0.328125 C 0.300781 -0.335938 0.289062 -0.34375 0.28125 -0.34375 C 0.28125 -0.34375 0.273438 -0.335938 0.265625 -0.328125 C 0.253906 -0.328125 0.242188 -0.328125 0.234375 -0.328125 C 0.191406 -0.316406 0.160156 -0.300781 0.140625 -0.28125 C 0.140625 -0.25 0.140625 -0.21875 0.140625 -0.1875 C 0.140625 -0.15625 0.140625 -0.125 0.140625 -0.09375 C 0.148438 -0.0703125 0.15625 -0.0507812 0.15625 -0.03125 C 0.164062 -0.0078125 0.164062 0 0.15625 0 C 0.15625 0.0078125 0.148438 0.015625 0.140625 0.015625 C 0.128906 0.0234375 0.117188 0.0234375 0.109375 0.015625 C 0.0976562 0.015625 0.09375 0.0078125 0.09375 0 C 0.0820312 -0.0195312 0.078125 -0.0351562 0.078125 -0.046875 C 0.078125 -0.0664062 0.078125 -0.0820312 0.078125 -0.09375 C 0.0664062 -0.113281 0.0625 -0.128906 0.0625 -0.140625 C 0.0625 -0.160156 0.0625 -0.175781 0.0625 -0.1875 C 0.0625 -0.21875 0.0546875 -0.25 0.046875 -0.28125 C 0.046875 -0.320312 0.0507812 -0.359375 0.0625 -0.390625 Z M 0.0625 -0.390625 "/></g></g><g transform="translate(107.407941, 73.83425)"><g><path d="M 0.109375 -0.03125 C 0.0859375 -0.0390625 0.0703125 -0.0507812 0.0625 -0.0625 C 0.0507812 -0.0820312 0.0390625 -0.101562 0.03125 -0.125 C 0.03125 -0.144531 0.03125 -0.164062 0.03125 -0.1875 C 0.03125 -0.207031 0.0351562 -0.226562 0.046875 -0.25 C 0.046875 -0.269531 0.0507812 -0.285156 0.0625 -0.296875 C 0.0703125 -0.316406 0.0820312 -0.332031 0.09375 -0.34375 C 0.101562 -0.363281 0.113281 -0.378906 0.125 -0.390625 C 0.144531 -0.398438 0.164062 -0.40625 0.1875 -0.40625 C 0.195312 -0.414062 0.210938 -0.421875 0.234375 -0.421875 C 0.253906 -0.421875 0.273438 -0.414062 0.296875 -0.40625 C 0.304688 -0.40625 0.316406 -0.40625 0.328125 -0.40625 C 0.335938 -0.40625 0.347656 -0.398438 0.359375 -0.390625 C 0.359375 -0.398438 0.359375 -0.40625 0.359375 -0.40625 C 0.367188 -0.414062 0.378906 -0.421875 0.390625 -0.421875 C 0.398438 -0.421875 0.410156 -0.414062 0.421875 -0.40625 C 0.429688 -0.40625 0.4375 -0.398438 0.4375 -0.390625 C 0.4375 -0.359375 0.4375 -0.328125 0.4375 -0.296875 C 0.4375 -0.265625 0.4375 -0.234375 0.4375 -0.203125 C 0.4375 -0.179688 0.429688 -0.15625 0.421875 -0.125 C 0.421875 -0.09375 0.425781 -0.0625 0.4375 -0.03125 C 0.4375 -0.0195312 0.429688 -0.0078125 0.421875 0 C 0.410156 0 0.398438 0 0.390625 0 C 0.378906 0 0.367188 0 0.359375 0 C 0.359375 -0.0078125 0.359375 -0.0195312 0.359375 -0.03125 C 0.316406 -0.0195312 0.273438 -0.0078125 0.234375 0 C 0.191406 0 0.148438 -0.0078125 0.109375 -0.03125 Z M 0.125 -0.234375 C 0.113281 -0.222656 0.109375 -0.207031 0.109375 -0.1875 C 0.109375 -0.175781 0.109375 -0.164062 0.109375 -0.15625 C 0.109375 -0.144531 0.109375 -0.128906 0.109375 -0.109375 C 0.117188 -0.0976562 0.132812 -0.09375 0.15625 -0.09375 C 0.1875 -0.0820312 0.21875 -0.078125 0.25 -0.078125 C 0.289062 -0.0859375 0.320312 -0.101562 0.34375 -0.125 C 0.351562 -0.15625 0.359375 -0.1875 0.359375 -0.21875 C 0.359375 -0.25 0.359375 -0.273438 0.359375 -0.296875 C 0.347656 -0.304688 0.335938 -0.3125 0.328125 -0.3125 C 0.316406 -0.320312 0.300781 -0.328125 0.28125 -0.328125 C 0.269531 -0.335938 0.253906 -0.34375 0.234375 -0.34375 C 0.222656 -0.34375 0.210938 -0.34375 0.203125 -0.34375 C 0.203125 -0.34375 0.195312 -0.335938 0.1875 -0.328125 C 0.1875 -0.328125 0.179688 -0.328125 0.171875 -0.328125 C 0.171875 -0.328125 0.164062 -0.320312 0.15625 -0.3125 C 0.15625 -0.300781 0.148438 -0.289062 0.140625 -0.28125 C 0.128906 -0.269531 0.125 -0.253906 0.125 -0.234375 Z M 0.34375 -0.640625 C 0.351562 -0.648438 0.363281 -0.65625 0.375 -0.65625 C 0.382812 -0.65625 0.394531 -0.648438 0.40625 -0.640625 C 0.414062 -0.640625 0.421875 -0.628906 0.421875 -0.609375 C 0.421875 -0.597656 0.414062 -0.59375 0.40625 -0.59375 C 0.351562 -0.550781 0.300781 -0.519531 0.25 -0.5 C 0.238281 -0.488281 0.226562 -0.484375 0.21875 -0.484375 C 0.21875 -0.492188 0.210938 -0.503906 0.203125 -0.515625 C 0.203125 -0.523438 0.203125 -0.535156 0.203125 -0.546875 C 0.203125 -0.554688 0.207031 -0.5625 0.21875 -0.5625 C 0.238281 -0.570312 0.257812 -0.582031 0.28125 -0.59375 C 0.300781 -0.613281 0.320312 -0.628906 0.34375 -0.640625 Z M 0.34375 -0.640625 "/></g></g><g transform="translate(107.889108, 73.83425)"><g><path d="M 0.046875 0.25 C 0.0664062 0.257812 0.0820312 0.265625 0.09375 0.265625 C 0.113281 0.273438 0.132812 0.28125 0.15625 0.28125 C 0.175781 0.28125 0.191406 0.273438 0.203125 0.265625 C 0.222656 0.253906 0.238281 0.242188 0.25 0.234375 C 0.28125 0.203125 0.296875 0.164062 0.296875 0.125 C 0.304688 0.0820312 0.3125 0.0390625 0.3125 0 C 0.28125 0 0.242188 0 0.203125 0 C 0.171875 0 0.144531 -0.00390625 0.125 -0.015625 C 0.101562 -0.0234375 0.0859375 -0.03125 0.078125 -0.03125 C 0.0664062 -0.0390625 0.0546875 -0.0546875 0.046875 -0.078125 C 0.0351562 -0.0976562 0.03125 -0.125 0.03125 -0.15625 C 0.03125 -0.1875 0.0351562 -0.210938 0.046875 -0.234375 C 0.0546875 -0.265625 0.0664062 -0.296875 0.078125 -0.328125 C 0.078125 -0.335938 0.078125 -0.347656 0.078125 -0.359375 C 0.0859375 -0.378906 0.101562 -0.394531 0.125 -0.40625 C 0.132812 -0.414062 0.144531 -0.425781 0.15625 -0.4375 C 0.164062 -0.445312 0.179688 -0.453125 0.203125 -0.453125 C 0.203125 -0.460938 0.203125 -0.46875 0.203125 -0.46875 C 0.203125 -0.476562 0.207031 -0.488281 0.21875 -0.5 C 0.226562 -0.5 0.238281 -0.5 0.25 -0.5 C 0.257812 -0.5 0.265625 -0.492188 0.265625 -0.484375 C 0.273438 -0.472656 0.28125 -0.460938 0.28125 -0.453125 C 0.28125 -0.453125 0.28125 -0.445312 0.28125 -0.4375 C 0.300781 -0.40625 0.316406 -0.367188 0.328125 -0.328125 C 0.335938 -0.296875 0.347656 -0.265625 0.359375 -0.234375 C 0.367188 -0.191406 0.375 -0.144531 0.375 -0.09375 C 0.382812 -0.0507812 0.390625 -0.0078125 0.390625 0.03125 C 0.390625 0.0625 0.382812 0.0859375 0.375 0.109375 C 0.375 0.140625 0.367188 0.164062 0.359375 0.1875 C 0.347656 0.21875 0.335938 0.242188 0.328125 0.265625 C 0.316406 0.285156 0.300781 0.304688 0.28125 0.328125 C 0.257812 0.335938 0.234375 0.34375 0.203125 0.34375 C 0.179688 0.351562 0.15625 0.359375 0.125 0.359375 C 0.101562 0.359375 0.0820312 0.351562 0.0625 0.34375 C 0.0390625 0.332031 0.0195312 0.320312 0 0.3125 C -0.0078125 0.300781 -0.015625 0.289062 -0.015625 0.28125 C -0.015625 0.269531 -0.0078125 0.257812 0 0.25 C 0.0078125 0.238281 0.015625 0.234375 0.015625 0.234375 C 0.0234375 0.234375 0.0351562 0.238281 0.046875 0.25 Z M 0.15625 -0.09375 C 0.175781 -0.0820312 0.195312 -0.078125 0.21875 -0.078125 C 0.25 -0.078125 0.273438 -0.078125 0.296875 -0.078125 C 0.296875 -0.109375 0.289062 -0.140625 0.28125 -0.171875 C 0.28125 -0.203125 0.273438 -0.234375 0.265625 -0.265625 C 0.253906 -0.285156 0.242188 -0.300781 0.234375 -0.3125 C 0.234375 -0.332031 0.234375 -0.351562 0.234375 -0.375 C 0.222656 -0.375 0.21875 -0.375 0.21875 -0.375 C 0.195312 -0.375 0.179688 -0.363281 0.171875 -0.34375 C 0.160156 -0.332031 0.15625 -0.320312 0.15625 -0.3125 C 0.144531 -0.300781 0.140625 -0.296875 0.140625 -0.296875 C 0.128906 -0.265625 0.117188 -0.238281 0.109375 -0.21875 C 0.109375 -0.195312 0.109375 -0.175781 0.109375 -0.15625 L 0.109375 -0.140625 C 0.109375 -0.140625 0.109375 -0.132812 0.109375 -0.125 C 0.109375 -0.125 0.109375 -0.117188 0.109375 -0.109375 C 0.117188 -0.109375 0.125 -0.101562 0.125 -0.09375 C 0.132812 -0.09375 0.140625 -0.09375 0.140625 -0.09375 C 0.148438 -0.09375 0.15625 -0.09375 0.15625 -0.09375 Z M 0.15625 -0.09375 "/></g></g><g transform="translate(108.295729, 73.83425)"><g><path d="M 0.0625 -0.390625 C 0.0625 -0.410156 0.0625 -0.421875 0.0625 -0.421875 C 0.0703125 -0.429688 0.0820312 -0.4375 0.09375 -0.4375 C 0.101562 -0.4375 0.113281 -0.429688 0.125 -0.421875 C 0.132812 -0.421875 0.140625 -0.410156 0.140625 -0.390625 C 0.140625 -0.390625 0.140625 -0.382812 0.140625 -0.375 C 0.160156 -0.382812 0.179688 -0.390625 0.203125 -0.390625 C 0.222656 -0.398438 0.242188 -0.40625 0.265625 -0.40625 C 0.285156 -0.414062 0.304688 -0.414062 0.328125 -0.40625 C 0.359375 -0.40625 0.378906 -0.394531 0.390625 -0.375 C 0.398438 -0.363281 0.40625 -0.351562 0.40625 -0.34375 C 0.40625 -0.332031 0.398438 -0.320312 0.390625 -0.3125 C 0.390625 -0.3125 0.382812 -0.3125 0.375 -0.3125 C 0.363281 -0.3125 0.351562 -0.316406 0.34375 -0.328125 C 0.332031 -0.328125 0.320312 -0.328125 0.3125 -0.328125 C 0.300781 -0.335938 0.289062 -0.34375 0.28125 -0.34375 C 0.28125 -0.34375 0.273438 -0.335938 0.265625 -0.328125 C 0.253906 -0.328125 0.242188 -0.328125 0.234375 -0.328125 C 0.191406 -0.316406 0.160156 -0.300781 0.140625 -0.28125 C 0.140625 -0.25 0.140625 -0.21875 0.140625 -0.1875 C 0.140625 -0.15625 0.140625 -0.125 0.140625 -0.09375 C 0.148438 -0.0703125 0.15625 -0.0507812 0.15625 -0.03125 C 0.164062 -0.0078125 0.164062 0 0.15625 0 C 0.15625 0.0078125 0.148438 0.015625 0.140625 0.015625 C 0.128906 0.0234375 0.117188 0.0234375 0.109375 0.015625 C 0.0976562 0.015625 0.09375 0.0078125 0.09375 0 C 0.0820312 -0.0195312 0.078125 -0.0351562 0.078125 -0.046875 C 0.078125 -0.0664062 0.078125 -0.0820312 0.078125 -0.09375 C 0.0664062 -0.113281 0.0625 -0.128906 0.0625 -0.140625 C 0.0625 -0.160156 0.0625 -0.175781 0.0625 -0.1875 C 0.0625 -0.21875 0.0546875 -0.25 0.046875 -0.28125 C 0.046875 -0.320312 0.0507812 -0.359375 0.0625 -0.390625 Z M 0.0625 -0.390625 "/></g></g><g transform="translate(108.701381, 73.83425)"><g><path d="M 0.109375 -0.03125 C 0.0859375 -0.0390625 0.0703125 -0.0507812 0.0625 -0.0625 C 0.0507812 -0.0820312 0.0390625 -0.101562 0.03125 -0.125 C 0.03125 -0.144531 0.03125 -0.164062 0.03125 -0.1875 C 0.03125 -0.207031 0.0351562 -0.226562 0.046875 -0.25 C 0.046875 -0.269531 0.0507812 -0.285156 0.0625 -0.296875 C 0.0703125 -0.316406 0.0820312 -0.332031 0.09375 -0.34375 C 0.101562 -0.363281 0.113281 -0.378906 0.125 -0.390625 C 0.144531 -0.398438 0.164062 -0.40625 0.1875 -0.40625 C 0.195312 -0.414062 0.210938 -0.421875 0.234375 -0.421875 C 0.253906 -0.421875 0.273438 -0.414062 0.296875 -0.40625 C 0.304688 -0.40625 0.316406 -0.40625 0.328125 -0.40625 C 0.335938 -0.40625 0.347656 -0.398438 0.359375 -0.390625 C 0.359375 -0.398438 0.359375 -0.40625 0.359375 -0.40625 C 0.367188 -0.414062 0.378906 -0.421875 0.390625 -0.421875 C 0.398438 -0.421875 0.410156 -0.414062 0.421875 -0.40625 C 0.429688 -0.40625 0.4375 -0.398438 0.4375 -0.390625 C 0.4375 -0.359375 0.4375 -0.328125 0.4375 -0.296875 C 0.4375 -0.265625 0.4375 -0.234375 0.4375 -0.203125 C 0.4375 -0.179688 0.429688 -0.15625 0.421875 -0.125 C 0.421875 -0.09375 0.425781 -0.0625 0.4375 -0.03125 C 0.4375 -0.0195312 0.429688 -0.0078125 0.421875 0 C 0.410156 0 0.398438 0 0.390625 0 C 0.378906 0 0.367188 0 0.359375 0 C 0.359375 -0.0078125 0.359375 -0.0195312 0.359375 -0.03125 C 0.316406 -0.0195312 0.273438 -0.0078125 0.234375 0 C 0.191406 0 0.148438 -0.0078125 0.109375 -0.03125 Z M 0.125 -0.234375 C 0.113281 -0.222656 0.109375 -0.207031 0.109375 -0.1875 C 0.109375 -0.175781 0.109375 -0.164062 0.109375 -0.15625 C 0.109375 -0.144531 0.109375 -0.128906 0.109375 -0.109375 C 0.117188 -0.0976562 0.132812 -0.09375 0.15625 -0.09375 C 0.1875 -0.0820312 0.21875 -0.078125 0.25 -0.078125 C 0.289062 -0.0859375 0.320312 -0.101562 0.34375 -0.125 C 0.351562 -0.15625 0.359375 -0.1875 0.359375 -0.21875 C 0.359375 -0.25 0.359375 -0.273438 0.359375 -0.296875 C 0.347656 -0.304688 0.335938 -0.3125 0.328125 -0.3125 C 0.316406 -0.320312 0.300781 -0.328125 0.28125 -0.328125 C 0.269531 -0.335938 0.253906 -0.34375 0.234375 -0.34375 C 0.222656 -0.34375 0.210938 -0.34375 0.203125 -0.34375 C 0.203125 -0.34375 0.195312 -0.335938 0.1875 -0.328125 C 0.1875 -0.328125 0.179688 -0.328125 0.171875 -0.328125 C 0.171875 -0.328125 0.164062 -0.320312 0.15625 -0.3125 C 0.15625 -0.300781 0.148438 -0.289062 0.140625 -0.28125 C 0.128906 -0.269531 0.125 -0.253906 0.125 -0.234375 Z M 0.125 -0.234375 "/></g></g><g transform="translate(109.182548, 73.83425)"><g><path d="M 0.09375 -0.578125 C 0.09375 -0.617188 0.101562 -0.65625 0.125 -0.6875 C 0.15625 -0.71875 0.1875 -0.75 0.21875 -0.78125 C 0.238281 -0.789062 0.257812 -0.796875 0.28125 -0.796875 C 0.300781 -0.804688 0.320312 -0.804688 0.34375 -0.796875 C 0.363281 -0.785156 0.378906 -0.773438 0.390625 -0.765625 C 0.410156 -0.753906 0.425781 -0.738281 0.4375 -0.71875 C 0.4375 -0.707031 0.4375 -0.695312 0.4375 -0.6875 C 0.4375 -0.675781 0.429688 -0.664062 0.421875 -0.65625 C 0.410156 -0.65625 0.398438 -0.65625 0.390625 -0.65625 C 0.378906 -0.65625 0.375 -0.660156 0.375 -0.671875 C 0.363281 -0.679688 0.351562 -0.6875 0.34375 -0.6875 C 0.34375 -0.695312 0.34375 -0.703125 0.34375 -0.703125 C 0.332031 -0.703125 0.320312 -0.703125 0.3125 -0.703125 C 0.3125 -0.710938 0.304688 -0.722656 0.296875 -0.734375 C 0.285156 -0.734375 0.273438 -0.726562 0.265625 -0.71875 C 0.265625 -0.71875 0.257812 -0.710938 0.25 -0.703125 C 0.25 -0.703125 0.242188 -0.695312 0.234375 -0.6875 C 0.210938 -0.65625 0.191406 -0.625 0.171875 -0.59375 C 0.160156 -0.570312 0.15625 -0.546875 0.15625 -0.515625 C 0.15625 -0.484375 0.160156 -0.457031 0.171875 -0.4375 C 0.191406 -0.4375 0.207031 -0.4375 0.21875 -0.4375 C 0.238281 -0.445312 0.257812 -0.453125 0.28125 -0.453125 C 0.289062 -0.453125 0.300781 -0.445312 0.3125 -0.4375 C 0.320312 -0.425781 0.328125 -0.414062 0.328125 -0.40625 C 0.328125 -0.394531 0.320312 -0.382812 0.3125 -0.375 C 0.300781 -0.375 0.289062 -0.375 0.28125 -0.375 C 0.257812 -0.375 0.238281 -0.367188 0.21875 -0.359375 C 0.207031 -0.359375 0.195312 -0.359375 0.1875 -0.359375 C 0.1875 -0.347656 0.1875 -0.335938 0.1875 -0.328125 C 0.1875 -0.316406 0.1875 -0.304688 0.1875 -0.296875 C 0.195312 -0.253906 0.207031 -0.207031 0.21875 -0.15625 C 0.226562 -0.113281 0.234375 -0.0664062 0.234375 -0.015625 C 0.234375 -0.00390625 0.226562 0 0.21875 0 C 0.207031 0.0078125 0.195312 0.015625 0.1875 0.015625 C 0.175781 0.015625 0.164062 0.0078125 0.15625 0 C 0.15625 0 0.15625 -0.00390625 0.15625 -0.015625 C 0.15625 -0.0664062 0.148438 -0.117188 0.140625 -0.171875 C 0.128906 -0.222656 0.117188 -0.273438 0.109375 -0.328125 C 0.109375 -0.335938 0.109375 -0.347656 0.109375 -0.359375 C 0.0859375 -0.359375 0.0664062 -0.359375 0.046875 -0.359375 C 0.0234375 -0.359375 0.00390625 -0.359375 -0.015625 -0.359375 C -0.0234375 -0.359375 -0.03125 -0.359375 -0.03125 -0.359375 C -0.0390625 -0.367188 -0.046875 -0.378906 -0.046875 -0.390625 C -0.046875 -0.398438 -0.0390625 -0.410156 -0.03125 -0.421875 C -0.03125 -0.429688 -0.0234375 -0.4375 -0.015625 -0.4375 C 0.0234375 -0.4375 0.0625 -0.4375 0.09375 -0.4375 C 0.09375 -0.457031 0.0859375 -0.476562 0.078125 -0.5 C 0.078125 -0.519531 0.0820312 -0.546875 0.09375 -0.578125 Z M 0.09375 -0.578125 "/></g></g><g transform="translate(109.503972, 73.83425)"><g><path d="M 0.28125 -0.453125 C 0.300781 -0.453125 0.320312 -0.453125 0.34375 -0.453125 C 0.363281 -0.453125 0.382812 -0.445312 0.40625 -0.4375 C 0.425781 -0.4375 0.445312 -0.425781 0.46875 -0.40625 C 0.488281 -0.394531 0.503906 -0.378906 0.515625 -0.359375 C 0.515625 -0.335938 0.515625 -0.316406 0.515625 -0.296875 C 0.515625 -0.285156 0.507812 -0.269531 0.5 -0.25 C 0.5 -0.238281 0.492188 -0.226562 0.484375 -0.21875 C 0.484375 -0.207031 0.472656 -0.195312 0.453125 -0.1875 C 0.429688 -0.164062 0.40625 -0.144531 0.375 -0.125 C 0.34375 -0.101562 0.304688 -0.0859375 0.265625 -0.078125 C 0.253906 -0.078125 0.238281 -0.0703125 0.21875 -0.0625 C 0.207031 -0.0625 0.191406 -0.0625 0.171875 -0.0625 C 0.160156 -0.0625 0.144531 -0.0625 0.125 -0.0625 C 0.113281 -0.0703125 0.0976562 -0.0820312 0.078125 -0.09375 C 0.0664062 -0.101562 0.0625 -0.109375 0.0625 -0.109375 C 0.0625 -0.128906 0.0546875 -0.140625 0.046875 -0.140625 C 0.046875 -0.148438 0.0390625 -0.160156 0.03125 -0.171875 C 0.03125 -0.179688 0.03125 -0.191406 0.03125 -0.203125 C 0.03125 -0.210938 0.03125 -0.222656 0.03125 -0.234375 C 0.03125 -0.265625 0.03125 -0.285156 0.03125 -0.296875 C 0.0390625 -0.316406 0.0546875 -0.335938 0.078125 -0.359375 C 0.109375 -0.378906 0.140625 -0.394531 0.171875 -0.40625 C 0.210938 -0.425781 0.25 -0.441406 0.28125 -0.453125 Z M 0.390625 -0.359375 C 0.367188 -0.367188 0.351562 -0.375 0.34375 -0.375 C 0.3125 -0.375 0.285156 -0.367188 0.265625 -0.359375 C 0.242188 -0.359375 0.222656 -0.351562 0.203125 -0.34375 C 0.191406 -0.34375 0.175781 -0.332031 0.15625 -0.3125 C 0.132812 -0.300781 0.117188 -0.289062 0.109375 -0.28125 C 0.109375 -0.269531 0.109375 -0.257812 0.109375 -0.25 C 0.109375 -0.238281 0.109375 -0.226562 0.109375 -0.21875 C 0.109375 -0.207031 0.109375 -0.195312 0.109375 -0.1875 C 0.117188 -0.175781 0.128906 -0.164062 0.140625 -0.15625 C 0.148438 -0.15625 0.15625 -0.15625 0.15625 -0.15625 C 0.175781 -0.144531 0.191406 -0.144531 0.203125 -0.15625 C 0.203125 -0.15625 0.207031 -0.15625 0.21875 -0.15625 C 0.238281 -0.15625 0.253906 -0.15625 0.265625 -0.15625 C 0.285156 -0.164062 0.300781 -0.175781 0.3125 -0.1875 C 0.332031 -0.195312 0.347656 -0.203125 0.359375 -0.203125 C 0.378906 -0.210938 0.390625 -0.222656 0.390625 -0.234375 C 0.398438 -0.242188 0.410156 -0.25 0.421875 -0.25 C 0.421875 -0.257812 0.421875 -0.265625 0.421875 -0.265625 C 0.429688 -0.273438 0.4375 -0.28125 0.4375 -0.28125 C 0.4375 -0.28125 0.4375 -0.285156 0.4375 -0.296875 L 0.4375 -0.3125 C 0.4375 -0.3125 0.4375 -0.316406 0.4375 -0.328125 C 0.4375 -0.328125 0.4375 -0.332031 0.4375 -0.34375 C 0.4375 -0.34375 0.429688 -0.34375 0.421875 -0.34375 L 0.421875 -0.359375 C 0.410156 -0.359375 0.40625 -0.359375 0.40625 -0.359375 C 0.40625 -0.359375 0.398438 -0.359375 0.390625 -0.359375 Z M 0.390625 -0.359375 "/></g></g></g></svg>