<svg xmlns="http://www.w3.org/2000/svg" xmlns:xlink="http://www.w3.org/1999/xlink" width="148" zoomAndPan="magnify" viewBox="0 0 110.88 64.499998" height="86" preserveAspectRatio="xMidYMid meet" version="1.0"><defs><clipPath id="b5110a549a"><path d="M 3 3 L 107.089844 3 L 107.089844 60.609375 L 3 60.609375 Z M 3 3 " clip-rule="nonzero"/></clipPath><clipPath id="4c0a72d24c"><path d="M 66.222656 52.910156 C 89.519531 37.726562 98.226562 32.667969 102.023438 31.996094 C 103.585938 31.773438 104.625 31.847656 105.445312 32.445312 C 106.339844 33.039062 107.007812 34.601562 107.082031 35.570312 C 107.082031 36.386719 106.785156 37.503906 106.113281 38.027344 C 105.148438 38.769531 102.914062 38.992188 100.90625 38.398438 C 97.40625 37.207031 92.941406 31.476562 87.882812 27.753906 C 81.628906 23.140625 70.316406 16.589844 65.851562 13.167969 C 63.769531 11.605469 62.28125 10.636719 61.535156 9.371094 C 61.015625 8.40625 60.867188 7.363281 61.015625 6.46875 C 61.238281 5.578125 61.90625 4.535156 62.578125 4.015625 C 63.097656 3.566406 63.695312 3.269531 64.363281 3.195312 C 65.183594 3.121094 66.523438 3.34375 67.191406 3.714844 C 67.863281 4.089844 68.679688 4.609375 68.605469 5.128906 C 68.457031 6.246094 62.726562 9.746094 61.683594 9.222656 C 61.089844 8.925781 61.015625 7.289062 61.238281 6.394531 C 61.386719 5.503906 61.980469 4.460938 62.726562 3.867188 C 63.472656 3.34375 64.660156 3.046875 65.480469 3.046875 C 66.222656 3.046875 66.820312 3.34375 67.414062 3.640625 C 67.9375 4.015625 68.605469 4.386719 68.753906 5.054688 C 69.050781 6.023438 67.710938 7.734375 67.863281 9.074219 C 67.9375 10.414062 69.203125 11.382812 69.5 13.019531 C 69.871094 15.550781 69.648438 20.386719 68.457031 22.84375 C 67.636719 24.777344 66.671875 26.042969 64.363281 27.160156 C 59.378906 29.46875 45.609375 28.425781 36.230469 29.390625 C 27.003906 30.359375 9.214844 34.304688 8.621094 32.890625 C 8.398438 32.371094 10.855469 29.839844 11.671875 30.136719 C 13.457031 30.730469 16.136719 46.0625 15.019531 46.734375 C 14.5 47.105469 11.449219 44.945312 11.671875 44.203125 C 12.191406 42.191406 30.800781 41.597656 38.835938 40.035156 C 45.386719 38.84375 52.457031 36.460938 56.476562 36.015625 C 58.558594 35.71875 59.898438 35.421875 61.3125 36.015625 C 62.652344 36.535156 63.84375 37.875 64.734375 39.363281 C 65.925781 41.375 66.296875 44.5 66.820312 47.328125 C 67.414062 50.378906 68.679688 54.84375 67.9375 57.078125 C 67.488281 58.492188 66.222656 59.609375 65.257812 60.128906 C 64.585938 60.5 63.917969 60.5 63.246094 60.351562 C 62.355469 60.203125 61.089844 59.683594 60.492188 58.9375 C 59.824219 58.195312 59.824219 56.332031 59.378906 56.035156 C 59.152344 55.886719 58.855469 56.183594 58.707031 56.035156 C 58.335938 55.8125 58.113281 54.175781 58.410156 53.28125 C 58.707031 52.242188 59.898438 50.601562 61.015625 50.15625 C 62.132812 49.710938 64.140625 49.933594 65.109375 50.601562 C 66.074219 51.273438 66.96875 53.058594 67.042969 54.175781 C 67.117188 55.144531 66.671875 56.183594 66.148438 56.855469 C 65.628906 57.523438 64.660156 58.195312 63.84375 58.417969 C 63.023438 58.640625 61.90625 58.640625 61.089844 58.269531 C 60.269531 57.972656 59.378906 57.300781 58.929688 56.484375 C 58.410156 55.441406 58.1875 53.503906 58.707031 52.390625 C 59.230469 51.273438 60.867188 50.15625 61.980469 49.933594 C 62.875 49.710938 63.917969 49.933594 64.734375 50.378906 C 65.480469 50.75 66.074219 51.570312 66.597656 52.390625 C 67.265625 53.355469 68.085938 54.84375 68.085938 56.035156 C 68.085938 57.003906 67.710938 58.195312 67.042969 58.9375 C 66.222656 59.757812 64.363281 60.425781 63.246094 60.351562 C 62.207031 60.277344 61.089844 59.535156 60.492188 58.9375 C 59.972656 58.417969 59.824219 58.046875 59.453125 57.078125 C 58.632812 54.546875 55.65625 43.90625 57.144531 42.492188 C 57.890625 41.746094 61.535156 43.085938 61.609375 43.457031 C 61.609375 43.757812 59.75 43.980469 57.816406 44.425781 C 51.5625 45.839844 24.84375 51.71875 18.148438 52.464844 C 15.914062 52.6875 15.246094 52.761719 13.683594 52.539062 C 11.96875 52.316406 9.515625 52.015625 8.324219 50.902344 C 7.132812 49.859375 7.058594 48.222656 6.460938 46.0625 C 5.421875 42.117188 2.445312 32.519531 3.335938 28.945312 C 3.859375 27.011719 4.601562 26.117188 6.535156 25.074219 C 11.078125 22.472656 25.515625 22.023438 34.742188 21.058594 C 43.523438 20.238281 56.699219 23.4375 60.566406 19.570312 C 63.472656 16.667969 60.121094 8.03125 61.535156 5.429688 C 62.207031 4.089844 63.472656 3.34375 64.511719 3.121094 C 65.480469 2.898438 66.671875 3.269531 67.414062 3.640625 C 68.011719 3.941406 68.828125 4.535156 68.753906 5.054688 C 68.605469 6.171875 62.652344 9.820312 61.535156 9.371094 C 60.941406 9.074219 60.867188 7.363281 61.015625 6.46875 C 61.238281 5.578125 61.90625 4.535156 62.578125 4.015625 C 63.097656 3.566406 63.695312 3.269531 64.363281 3.195312 C 65.183594 3.121094 66.296875 3.195312 67.191406 3.714844 C 68.53125 4.460938 69.125 6.320312 71.136719 7.957031 C 75.230469 11.382812 86.839844 17.632812 92.496094 21.578125 C 96.367188 24.257812 99.640625 26.640625 101.949219 28.722656 C 103.511719 30.0625 105.667969 31.773438 105.445312 32.519531 C 105.148438 33.1875 100.609375 33.335938 100.535156 33.039062 C 100.457031 32.816406 101.425781 32.21875 102.023438 31.996094 C 102.765625 31.773438 103.957031 31.773438 104.699219 31.996094 C 105.296875 32.21875 105.742188 32.59375 106.113281 33.039062 C 106.636719 33.632812 107.082031 34.75 107.082031 35.570312 C 107.082031 36.386719 106.933594 37.207031 106.113281 38.027344 C 104.03125 40.183594 95.695312 42.117188 90.1875 45.097656 C 83.492188 48.667969 72.773438 57.523438 69.203125 58.566406 C 68.160156 58.9375 67.5625 58.863281 66.894531 58.640625 C 66.222656 58.34375 65.554688 57.746094 65.183594 57.078125 C 64.808594 56.484375 64.734375 55.515625 64.882812 54.84375 C 65.035156 54.101562 66.222656 52.910156 66.222656 52.910156 " clip-rule="nonzero"/></clipPath><clipPath id="2f31e79b75"><path d="M 63.609375 29 L 85.164062 29 L 85.164062 53.328125 L 63.609375 53.328125 Z M 63.609375 29 " clip-rule="nonzero"/></clipPath><clipPath id="72556e6ca1"><path d="M 85.066406 34.253906 C 85.066406 34.253906 85.066406 34.328125 85.066406 34.402344 C 85.066406 34.402344 85.066406 34.402344 85.066406 34.476562 C 85.066406 34.550781 84.992188 34.625 84.992188 34.699219 C 84.992188 34.847656 84.917969 35.21875 84.917969 35.21875 C 84.84375 35.21875 84.769531 35.441406 84.695312 35.589844 C 84.695312 35.667969 84.695312 35.667969 84.695312 35.742188 C 84.621094 35.816406 84.621094 35.890625 84.546875 35.890625 C 84.546875 36.039062 84.546875 36.929688 84.324219 37.304688 C 84.097656 37.75 83.578125 37.972656 83.355469 38.417969 C 82.984375 39.015625 83.132812 39.832031 82.609375 40.503906 C 81.941406 41.398438 80.378906 42.066406 79.335938 43.035156 C 78.21875 44.074219 77.027344 45.9375 76.136719 46.605469 C 75.6875 47.054688 75.019531 47.128906 74.871094 47.351562 C 74.796875 47.425781 74.871094 47.5 74.796875 47.648438 C 74.648438 48.242188 73.160156 50.996094 73.011719 50.996094 C 73.011719 50.996094 73.011719 50.921875 73.011719 50.921875 C 73.011719 50.921875 72.859375 51.144531 72.785156 51.21875 C 72.710938 51.371094 72.488281 51.59375 72.488281 51.59375 C 72.488281 51.59375 72.191406 51.816406 72.042969 51.890625 C 71.96875 52.039062 71.671875 52.1875 71.671875 52.1875 C 71.671875 52.261719 71.371094 52.335938 71.222656 52.410156 C 71.074219 52.484375 70.777344 52.632812 70.703125 52.632812 C 70.703125 52.632812 70.40625 52.710938 70.257812 52.710938 C 70.109375 52.710938 70.03125 52.710938 69.957031 52.710938 C 69.808594 52.785156 69.660156 52.859375 69.4375 52.933594 C 69.289062 53.007812 68.992188 53.082031 68.992188 53.082031 C 68.992188 53.082031 68.617188 53.15625 68.46875 53.15625 C 68.320312 53.15625 67.949219 53.230469 67.949219 53.230469 C 67.949219 53.230469 67.652344 53.15625 67.429688 53.15625 C 67.28125 53.082031 66.980469 53.082031 66.980469 53.082031 C 66.90625 53.082031 66.609375 52.933594 66.460938 52.859375 C 66.3125 52.859375 66.015625 52.710938 66.015625 52.710938 C 66.015625 52.710938 65.714844 52.484375 65.566406 52.410156 C 65.417969 52.335938 65.121094 52.113281 65.121094 52.113281 C 65.121094 52.113281 64.898438 51.816406 64.824219 51.742188 C 64.675781 51.59375 64.453125 51.371094 64.453125 51.296875 C 64.453125 51.296875 64.300781 50.996094 64.226562 50.847656 C 64.152344 50.699219 64.003906 50.402344 64.003906 50.402344 C 64.003906 50.402344 63.929688 50.105469 63.855469 49.882812 C 63.855469 49.730469 63.78125 49.433594 63.78125 49.433594 C 63.78125 49.433594 63.78125 49.0625 63.78125 48.914062 C 63.78125 48.765625 63.78125 48.390625 63.78125 48.390625 C 63.78125 48.390625 63.855469 48.019531 63.929688 47.871094 C 63.929688 47.722656 64.003906 47.574219 64.003906 47.425781 C 64.152344 46.976562 64.453125 45.863281 64.527344 45.789062 C 64.527344 45.789062 64.527344 45.789062 64.527344 45.714844 C 64.527344 45.714844 64.375 45.339844 64.300781 44.96875 C 64.078125 44 63.558594 41.324219 63.707031 39.757812 C 63.929688 38.269531 64.375 36.78125 65.269531 35.667969 C 66.164062 34.550781 68.097656 33.0625 68.992188 33.0625 C 69.585938 33.136719 70.109375 34.101562 70.257812 34.101562 C 70.257812 34.101562 70.554688 34.027344 70.703125 34.027344 C 70.851562 34.027344 71.074219 33.953125 71.074219 33.953125 C 71.074219 33.953125 71.371094 33.953125 71.523438 33.953125 C 71.671875 33.953125 71.894531 33.953125 71.894531 33.953125 C 71.894531 33.953125 72.191406 34.027344 72.339844 34.027344 C 72.414062 34.101562 72.710938 34.175781 72.710938 34.175781 C 72.785156 34.175781 73.828125 32.464844 74.796875 31.722656 C 76.0625 30.679688 79.1875 28.96875 80.230469 29.042969 C 80.675781 29.117188 80.972656 29.785156 81.121094 29.785156 C 81.195312 29.785156 81.269531 29.859375 81.34375 29.859375 C 81.417969 29.859375 81.644531 29.859375 81.644531 29.859375 C 81.644531 29.859375 82.015625 30.011719 82.164062 30.011719 C 82.238281 30.011719 82.238281 30.085938 82.3125 30.085938 C 82.3125 30.085938 82.460938 30.085938 82.460938 30.085938 C 82.535156 30.085938 82.535156 30.160156 82.535156 30.160156 C 82.535156 30.160156 82.609375 30.160156 82.609375 30.160156 C 82.609375 30.160156 82.910156 30.382812 83.058594 30.457031 C 83.207031 30.53125 83.503906 30.679688 83.503906 30.679688 C 83.503906 30.679688 83.503906 30.753906 83.578125 30.753906 C 83.578125 30.753906 83.578125 30.828125 83.652344 30.828125 C 83.652344 30.828125 83.726562 30.902344 83.726562 30.976562 C 83.800781 30.976562 83.800781 31.050781 83.875 31.050781 C 83.949219 31.125 84.171875 31.425781 84.171875 31.425781 C 84.171875 31.425781 84.324219 31.648438 84.398438 31.722656 C 84.398438 31.796875 84.472656 31.796875 84.472656 31.871094 C 84.546875 31.871094 84.546875 31.945312 84.546875 32.019531 C 84.621094 32.09375 84.695312 32.242188 84.695312 32.242188 C 84.695312 32.242188 84.84375 32.613281 84.84375 32.761719 C 84.917969 32.839844 84.917969 32.914062 84.917969 32.914062 C 84.917969 32.988281 84.917969 32.988281 84.917969 32.988281 C 84.917969 32.988281 85.066406 33.0625 85.066406 33.0625 C 85.066406 33.136719 84.992188 33.285156 84.992188 33.359375 C 84.992188 33.433594 84.992188 33.582031 85.066406 33.730469 C 85.066406 33.878906 85.066406 34.253906 85.066406 34.253906 " clip-rule="nonzero"/></clipPath><clipPath id="ea4f541f6f"><path d="M 8.585938 14.777344 L 98.292969 14.777344 L 98.292969 50.527344 L 8.585938 50.527344 Z M 8.585938 14.777344 " clip-rule="nonzero"/></clipPath><clipPath id="71f0afcd2d"><path d="M 98.238281 32.839844 C 98.164062 33.507812 98.164062 33.804688 98.164062 33.804688 C 98.164062 33.804688 98.089844 34.101562 98.015625 34.328125 C 97.941406 34.476562 97.867188 34.773438 97.867188 34.773438 C 97.867188 34.773438 97.71875 35.070312 97.644531 35.21875 C 97.496094 35.367188 97.347656 35.589844 97.347656 35.667969 C 97.347656 35.667969 97.125 35.890625 96.972656 35.964844 C 96.898438 36.113281 96.675781 36.335938 96.675781 36.335938 C 96.601562 36.335938 96.378906 36.484375 96.230469 36.632812 C 96.082031 36.707031 96.007812 36.78125 95.785156 36.855469 C 95.410156 37.082031 94.667969 37.527344 94.144531 37.675781 C 93.625 37.898438 93.03125 37.675781 92.65625 37.972656 C 92.210938 38.269531 92.359375 39.238281 91.839844 39.609375 C 91.09375 40.207031 88.5625 40.058594 88.117188 40.28125 C 87.96875 40.28125 87.894531 40.429688 87.894531 40.429688 C 87.894531 40.429688 87.074219 40.875 86.851562 41.097656 C 86.777344 41.171875 86.777344 41.246094 86.703125 41.398438 C 86.332031 41.695312 85.066406 42.289062 84.472656 42.585938 C 84.097656 42.8125 83.875 42.886719 83.578125 43.183594 C 83.132812 43.480469 82.757812 43.851562 82.164062 44.449219 C 81.121094 45.414062 79.484375 47.5 77.921875 48.46875 C 76.433594 49.433594 74.574219 50.625 73.085938 50.476562 C 71.671875 50.253906 69.363281 48.46875 69.140625 47.5 C 68.992188 46.828125 70.480469 45.863281 70.332031 45.488281 C 70.257812 45.191406 69.511719 45.339844 69.289062 45.042969 C 68.992188 44.523438 69.585938 42.4375 69.4375 42.363281 C 69.363281 42.289062 69.214844 42.511719 69.214844 42.511719 C 69.214844 42.511719 68.917969 42.585938 68.769531 42.660156 C 68.617188 42.734375 68.320312 42.8125 68.320312 42.8125 C 68.246094 42.8125 67.949219 42.886719 67.800781 42.886719 C 67.652344 42.886719 67.355469 42.960938 67.355469 42.960938 C 67.355469 42.960938 66.980469 42.886719 66.832031 42.886719 C 66.683594 42.886719 66.386719 42.8125 66.386719 42.8125 C 66.386719 42.8125 66.089844 42.734375 65.941406 42.660156 C 65.789062 42.585938 65.492188 42.511719 65.492188 42.511719 C 65.492188 42.511719 65.195312 42.289062 65.046875 42.214844 C 64.972656 42.140625 64.675781 41.992188 64.675781 41.917969 C 64.675781 41.917969 64.453125 41.695312 64.375 41.621094 C 64.226562 41.472656 64.078125 41.246094 64.003906 41.246094 C 64.003906 41.246094 63.855469 40.949219 63.78125 40.800781 C 63.707031 40.652344 63.558594 40.355469 63.558594 40.355469 C 63.558594 40.355469 63.484375 40.058594 63.484375 39.910156 C 63.410156 39.757812 63.335938 39.460938 63.335938 39.460938 C 63.335938 39.460938 63.335938 39.089844 63.335938 38.941406 C 63.335938 38.792969 63.335938 38.496094 63.335938 38.496094 C 63.335938 38.496094 63.410156 38.34375 63.410156 38.34375 C 63.410156 38.269531 63.335938 38.269531 63.335938 38.269531 C 63.335938 38.269531 63.039062 38.195312 62.886719 38.121094 C 62.738281 38.046875 62.441406 37.898438 62.441406 37.898438 C 62.441406 37.898438 62.144531 37.675781 61.996094 37.601562 C 61.996094 37.527344 61.921875 37.453125 61.847656 37.453125 C 61.847656 37.527344 61.625 37.898438 61.625 37.898438 C 61.625 37.898438 61.398438 38.121094 61.324219 38.269531 C 61.175781 38.417969 60.953125 38.644531 60.953125 38.644531 C 60.953125 38.644531 60.730469 38.792969 60.582031 38.941406 C 60.433594 39.015625 60.210938 39.164062 60.136719 39.164062 C 60.136719 39.164062 59.835938 39.3125 59.6875 39.386719 C 59.539062 39.386719 59.242188 39.535156 59.242188 39.535156 C 59.242188 39.535156 58.945312 39.609375 58.722656 39.609375 C 58.570312 39.609375 58.273438 39.683594 58.273438 39.683594 C 58.273438 39.683594 57.53125 39.609375 56.933594 39.609375 C 55.894531 39.609375 53.734375 39.683594 52.691406 39.609375 C 52.097656 39.535156 51.800781 39.3125 51.203125 39.3125 C 50.460938 39.3125 49.492188 39.683594 48.375 39.832031 C 46.886719 40.058594 43.015625 40.355469 43.015625 40.355469 C 43.015625 40.355469 42.71875 40.355469 42.496094 40.355469 C 42.347656 40.355469 42.050781 40.355469 42.050781 40.355469 C 42.050781 40.355469 41.753906 40.28125 41.527344 40.28125 C 41.378906 40.207031 41.082031 40.132812 41.082031 40.132812 C 41.082031 40.132812 40.710938 39.910156 40.636719 39.910156 C 40.5625 39.910156 40.339844 39.984375 40.113281 40.058594 C 39.890625 40.132812 39.445312 40.132812 39.222656 40.207031 C 39.148438 40.207031 39 40.207031 39 40.207031 C 38.925781 40.207031 38.925781 40.28125 38.925781 40.28125 C 38.925781 40.28125 38.699219 40.503906 38.625 40.652344 C 38.550781 40.726562 38.328125 41.023438 38.328125 41.023438 C 38.328125 41.023438 38.03125 41.171875 37.882812 41.324219 C 37.734375 41.398438 37.511719 41.621094 37.511719 41.621094 C 37.511719 41.621094 37.210938 41.695312 37.0625 41.769531 C 36.914062 41.84375 36.617188 41.992188 36.617188 41.992188 C 36.542969 41.992188 36.246094 41.992188 36.097656 41.992188 C 35.949219 42.066406 35.574219 42.066406 35.574219 42.066406 C 35.574219 42.066406 35.054688 42.066406 34.535156 42.140625 C 33.492188 42.140625 31.257812 42.214844 29.472656 42.363281 C 27.386719 42.511719 23.070312 42.960938 22.996094 42.960938 C 22.996094 42.960938 22.699219 42.960938 22.550781 42.960938 C 22.402344 42.960938 22.402344 42.960938 22.253906 43.035156 C 21.734375 43.035156 19.351562 43.40625 17.9375 43.628906 C 16.597656 43.777344 14.886719 44.148438 14.066406 44.226562 C 13.621094 44.300781 13.398438 44.300781 13.097656 44.300781 C 12.949219 44.300781 12.800781 44.300781 12.652344 44.300781 C 12.503906 44.300781 12.207031 44.300781 12.132812 44.300781 C 12.132812 44.300781 11.835938 44.226562 11.683594 44.226562 C 11.535156 44.148438 11.238281 44.074219 11.238281 44.074219 C 11.238281 44.074219 10.941406 43.925781 10.792969 43.851562 C 10.644531 43.777344 10.347656 43.628906 10.347656 43.628906 C 10.347656 43.628906 10.121094 43.40625 9.972656 43.257812 C 9.898438 43.183594 9.675781 42.960938 9.675781 42.960938 C 9.675781 42.960938 9.453125 42.660156 9.378906 42.585938 C 9.304688 42.4375 9.082031 42.140625 9.082031 42.140625 C 9.082031 42.140625 9.007812 41.84375 8.933594 41.695312 C 8.855469 41.546875 8.78125 41.246094 8.78125 41.246094 C 8.78125 41.246094 8.707031 40.949219 8.707031 40.800781 C 8.707031 40.578125 8.632812 40.28125 8.632812 40.28125 C 8.632812 40.28125 8.707031 39.984375 8.707031 39.832031 C 8.78125 39.609375 8.78125 39.3125 8.78125 39.3125 C 8.78125 39.3125 8.933594 39.015625 8.933594 38.867188 C 9.007812 38.71875 9.15625 38.417969 9.15625 38.417969 C 9.15625 38.417969 9.304688 38.121094 9.453125 38.046875 C 9.527344 37.898438 9.675781 37.601562 9.675781 37.601562 C 9.675781 37.601562 10.046875 37.378906 10.046875 37.304688 C 10.121094 37.15625 10.121094 34.996094 10.71875 34.253906 C 11.238281 33.433594 12.800781 33.285156 13.324219 32.613281 C 13.769531 32.09375 13.472656 31.347656 13.992188 30.753906 C 14.664062 29.933594 16.671875 28.96875 17.789062 28.671875 C 18.457031 28.445312 19.203125 28.820312 19.574219 28.523438 C 19.871094 28.296875 19.574219 27.554688 19.945312 27.183594 C 20.765625 26.511719 23.59375 26.585938 25.453125 26.4375 C 27.386719 26.289062 30.140625 26.214844 31.332031 26.511719 C 31.929688 26.734375 32.003906 27.109375 32.523438 27.257812 C 33.417969 27.480469 35.277344 27.03125 36.246094 26.882812 C 36.914062 26.808594 37.511719 26.808594 37.957031 26.660156 C 38.253906 26.585938 38.402344 26.511719 38.699219 26.4375 C 39 26.363281 39.742188 26.4375 39.890625 26.363281 C 39.964844 26.363281 39.964844 26.363281 40.039062 26.363281 C 40.339844 26.363281 42.941406 26.214844 42.941406 26.214844 C 43.015625 26.214844 43.316406 26.289062 43.464844 26.289062 C 43.613281 26.289062 43.984375 26.363281 43.984375 26.363281 C 43.984375 26.363281 44.28125 26.4375 44.429688 26.511719 C 44.582031 26.585938 44.878906 26.660156 44.878906 26.660156 C 44.953125 26.660156 44.953125 26.660156 44.953125 26.660156 C 44.953125 26.660156 45.027344 26.808594 45.175781 26.808594 C 45.695312 26.957031 47.558594 26.289062 48.898438 26.363281 C 50.460938 26.363281 53.808594 27.183594 53.882812 27.183594 C 53.882812 27.183594 54.179688 27.183594 54.328125 27.183594 C 54.480469 27.183594 54.851562 27.183594 54.851562 27.183594 C 54.851562 27.183594 55.148438 27.257812 55.296875 27.332031 C 55.445312 27.40625 55.742188 27.480469 55.742188 27.480469 C 55.742188 27.480469 55.96875 27.628906 56.117188 27.703125 C 56.488281 27.703125 57.679688 27.183594 58.199219 27.183594 C 58.570312 27.183594 58.722656 27.40625 59.09375 27.332031 C 59.761719 27.183594 60.804688 25.769531 61.773438 25.46875 C 62.738281 25.171875 63.929688 25.917969 64.75 25.542969 C 65.640625 25.171875 66.535156 23.980469 66.832031 23.238281 C 67.128906 22.640625 67.128906 21.527344 67.128906 21.527344 C 67.128906 21.527344 67.054688 21.152344 67.054688 21.003906 C 66.980469 20.855469 66.980469 20.558594 66.980469 20.484375 C 66.980469 20.484375 66.980469 20.1875 67.054688 20.039062 C 67.054688 19.886719 67.054688 19.515625 67.054688 19.515625 C 67.054688 19.515625 67.203125 19.21875 67.28125 19.070312 C 67.28125 18.921875 67.429688 18.546875 67.429688 18.546875 C 67.429688 18.546875 67.578125 18.324219 67.726562 18.175781 C 67.800781 18.027344 67.949219 17.730469 67.949219 17.730469 C 68.023438 17.730469 68.246094 17.507812 68.320312 17.433594 C 68.46875 17.285156 68.695312 17.058594 68.695312 17.058594 C 68.695312 17.058594 68.992188 16.910156 69.140625 16.835938 C 69.289062 16.761719 69.585938 16.613281 69.585938 16.613281 C 69.585938 16.613281 69.957031 16.539062 70.109375 16.464844 C 70.257812 16.390625 70.40625 16.464844 70.554688 16.316406 C 71 16.09375 71.523438 14.976562 72.265625 14.828125 C 73.457031 14.605469 75.839844 15.945312 77.328125 16.835938 C 78.742188 17.804688 80.003906 19.144531 81.046875 20.261719 C 81.867188 21.152344 82.910156 22.789062 83.058594 22.941406 C 83.207031 23.015625 86.109375 25.46875 87.148438 26.511719 C 87.820312 27.183594 88.265625 28.074219 88.714844 28.222656 C 88.863281 28.296875 89.085938 28.074219 89.160156 28.148438 C 89.308594 28.296875 89.234375 28.746094 89.308594 28.894531 C 89.382812 29.117188 89.53125 29.339844 89.753906 29.488281 C 90.277344 29.636719 92.359375 29.265625 92.359375 29.265625 C 92.359375 29.265625 92.730469 29.191406 92.882812 29.117188 C 93.03125 29.042969 93.328125 28.96875 93.328125 28.96875 C 93.328125 28.96875 93.699219 28.96875 93.847656 28.96875 C 93.996094 28.894531 94.296875 28.894531 94.371094 28.894531 C 94.371094 28.894531 94.667969 28.96875 94.816406 28.96875 C 94.964844 29.042969 95.335938 29.117188 95.335938 29.117188 C 95.335938 29.117188 95.632812 29.265625 95.785156 29.265625 C 95.933594 29.339844 96.230469 29.488281 96.230469 29.488281 C 96.230469 29.488281 96.527344 29.710938 96.601562 29.785156 C 96.75 29.933594 97.046875 30.085938 97.046875 30.160156 C 97.046875 30.160156 97.199219 30.382812 97.347656 30.53125 C 97.421875 30.679688 97.644531 30.902344 97.644531 30.902344 C 97.644531 30.902344 97.792969 31.199219 97.867188 31.347656 C 97.941406 31.5 98.015625 31.796875 98.015625 31.796875 C 98.089844 31.871094 98.089844 32.167969 98.164062 32.316406 C 98.164062 32.464844 98.238281 32.839844 98.238281 32.839844 " clip-rule="nonzero"/></clipPath></defs><g clip-path="url(#b5110a549a)"><g clip-path="url(#4c0a72d24c)"><path fill="#1e1e1e" d="M 110.058594 63.328125 L 0.460938 63.328125 L 0.460938 -0.00390625 L 110.058594 -0.00390625 Z M 110.058594 63.328125 " fill-opacity="1" fill-rule="nonzero"/></g></g><g clip-path="url(#2f31e79b75)"><g clip-path="url(#72556e6ca1)"><path fill="#1e1e1e" d="M 88.042969 56.207031 L 60.730469 56.207031 L 60.730469 26.011719 L 88.042969 26.011719 Z M 88.042969 56.207031 " fill-opacity="1" fill-rule="nonzero"/></g></g><g clip-path="url(#ea4f541f6f)"><g clip-path="url(#71f0afcd2d)"><path fill="#1e1e1e" d="M 101.214844 53.453125 L 5.660156 53.453125 L 5.660156 11.851562 L 101.214844 11.851562 Z M 101.214844 53.453125 " fill-opacity="1" fill-rule="nonzero"/></g></g></svg>