<svg xmlns="http://www.w3.org/2000/svg" xmlns:xlink="http://www.w3.org/1999/xlink" width="48" zoomAndPan="magnify" viewBox="0 0 36 36.750001" height="49" preserveAspectRatio="xMidYMid meet" version="1.0"><defs><g/><clipPath id="e508151830"><path d="M 3 7.21875 L 32.253906 7.21875 L 32.253906 33.371094 L 3 33.371094 Z M 3 7.21875 " clip-rule="nonzero"/></clipPath><clipPath id="8ee5181c68"><path d="M 13.679688 14.1875 C 5.1875 19.699219 4.515625 19.625 3.996094 19.253906 C 3.472656 18.804688 2.878906 17.761719 3.101562 16.945312 C 3.472656 15.304688 8.09375 11.878906 9.65625 11.207031 C 10.253906 10.910156 10.699219 10.835938 11.148438 10.984375 C 11.667969 11.058594 12.191406 11.28125 12.488281 11.804688 C 13.082031 12.773438 13.082031 15.527344 12.5625 17.464844 C 11.964844 19.699219 9.953125 23.722656 8.539062 24.394531 C 7.792969 24.765625 6.601562 24.46875 6.082031 24.019531 C 5.632812 23.574219 5.335938 22.457031 5.632812 21.5625 C 6.082031 19.996094 9.582031 18.0625 11.222656 16.125 C 12.859375 14.261719 14.199219 11.132812 15.46875 10.3125 C 16.136719 9.867188 16.734375 9.792969 17.253906 9.867188 C 17.703125 9.941406 18.222656 10.238281 18.445312 10.6875 C 18.671875 11.207031 18.746094 11.953125 18.371094 12.921875 C 17.554688 15.527344 11.59375 24.839844 9.433594 25.660156 C 8.539062 25.957031 7.644531 25.511719 7.199219 25.0625 C 6.824219 24.542969 6.75 23.722656 6.976562 22.753906 C 7.570312 20.371094 12.488281 13.292969 14.273438 11.804688 C 14.945312 11.207031 15.46875 10.984375 15.988281 10.984375 C 16.511719 10.984375 17.03125 11.207031 17.328125 11.582031 C 17.703125 12.027344 18 12.621094 17.925781 13.441406 C 17.703125 15.453125 14.050781 22.15625 12.191406 23.425781 C 11.222656 24.09375 9.878906 24.242188 9.285156 23.796875 C 8.6875 23.425781 8.390625 22.234375 8.613281 21.039062 C 8.984375 18.433594 14.125 10.761719 15.988281 9.269531 C 16.660156 8.75 17.253906 8.527344 17.777344 8.601562 C 18.371094 8.675781 19.117188 9.121094 19.339844 9.71875 C 19.714844 10.761719 18.96875 12.621094 18.148438 14.632812 C 16.734375 18.359375 12.113281 28.789062 9.878906 29.757812 C 8.984375 30.128906 8.019531 29.683594 7.570312 29.160156 C 7.125 28.714844 7.050781 27.96875 7.273438 26.851562 C 8.019531 23.648438 15.988281 10.910156 18.746094 8.972656 C 19.714844 8.300781 20.605469 8.152344 21.203125 8.375 C 21.726562 8.675781 22.171875 9.417969 22.246094 10.3125 C 22.394531 12.101562 20.234375 17.242188 19.042969 18.65625 C 18.371094 19.402344 17.628906 19.773438 16.957031 19.773438 C 16.4375 19.699219 15.691406 19.179688 15.394531 18.730469 C 15.167969 18.210938 15.09375 17.539062 15.394531 16.792969 C 16.0625 15.15625 20.234375 11.65625 22.023438 10.3125 C 23.140625 9.496094 24.035156 8.527344 24.851562 8.675781 C 25.523438 8.75 26.566406 9.570312 26.640625 10.613281 C 27.015625 13.515625 19.640625 26.328125 17.105469 28.117188 C 16.136719 28.714844 15.09375 28.789062 14.574219 28.488281 C 14.050781 28.117188 13.753906 27.074219 13.902344 26.03125 C 14.351562 23.425781 20.382812 14.933594 22.394531 13.589844 C 23.066406 13.144531 23.585938 13.070312 24.109375 13.21875 C 24.554688 13.367188 25.152344 13.964844 25.375 14.410156 C 25.523438 14.785156 25.523438 15.082031 25.300781 15.75 C 24.703125 17.761719 20.160156 25.136719 18.222656 27.523438 C 17.328125 28.714844 16.585938 29.757812 15.765625 29.980469 C 15.242188 30.054688 14.5 29.757812 14.199219 29.308594 C 13.828125 28.863281 13.753906 28.117188 13.976562 27.222656 C 14.5 24.765625 19.5625 16.421875 21.054688 14.859375 C 21.574219 14.335938 21.800781 14.1875 22.246094 14.113281 C 22.765625 14.039062 23.585938 14.261719 23.960938 14.632812 C 24.332031 15.007812 24.554688 15.601562 24.554688 16.421875 C 24.40625 18.285156 22.171875 24.167969 20.605469 25.585938 C 19.863281 26.328125 18.671875 26.777344 18.074219 26.480469 C 17.402344 26.253906 16.808594 25.136719 16.882812 24.019531 C 17.03125 21.636719 24.554688 13.515625 24.109375 13.070312 C 23.4375 12.546875 10.773438 26.925781 7.792969 27.894531 C 6.902344 28.191406 6.15625 28.042969 5.707031 27.671875 C 5.335938 27.371094 5.113281 26.777344 5.113281 26.105469 C 5.1875 24.765625 6.75 22.382812 8.242188 20.519531 C 10.402344 17.761719 15.46875 12.546875 17.703125 11.953125 C 18.671875 11.730469 19.640625 12.101562 20.085938 12.546875 C 20.382812 12.847656 20.382812 13.21875 20.382812 13.816406 C 20.308594 15.007812 19.488281 17.242188 18.671875 19.253906 C 17.628906 22.007812 15.691406 27.820312 14.125 28.714844 C 13.382812 29.085938 12.414062 28.714844 11.964844 28.339844 C 11.59375 28.042969 11.371094 27.445312 11.371094 26.703125 C 11.371094 25.210938 12.859375 20.890625 14.050781 19.773438 C 14.722656 19.179688 15.691406 18.953125 16.285156 19.105469 C 16.734375 19.179688 17.179688 19.550781 17.402344 19.996094 C 17.628906 20.445312 17.777344 21.339844 17.480469 21.933594 C 17.105469 22.605469 15.765625 22.753906 14.796875 23.574219 C 13.234375 24.914062 11.296875 28.863281 9.730469 29.609375 C 8.910156 29.980469 7.945312 29.980469 7.421875 29.609375 C 6.824219 29.160156 6.378906 28.042969 6.75 26.925781 C 7.644531 23.648438 19.863281 12.398438 23.214844 11.207031 C 24.332031 10.835938 25.300781 10.984375 25.746094 11.429688 C 26.195312 11.804688 26.34375 12.546875 26.195312 13.589844 C 25.597656 16.421875 19.339844 27.746094 17.03125 28.566406 C 16.285156 28.863281 15.394531 28.414062 15.019531 27.96875 C 14.648438 27.523438 14.574219 26.777344 14.871094 25.808594 C 15.691406 23.199219 23.363281 14.039062 25.523438 12.699219 C 26.269531 12.25 26.714844 12.175781 27.164062 12.324219 C 27.683594 12.398438 28.28125 12.773438 28.429688 13.441406 C 28.875 15.75 22.171875 29.085938 19.714844 30.949219 C 18.894531 31.617188 17.851562 31.691406 17.328125 31.394531 C 16.808594 31.097656 16.359375 30.054688 16.511719 29.085938 C 16.957031 26.851562 22.320312 20.222656 24.332031 19.105469 C 25.226562 18.65625 26.046875 18.582031 26.566406 18.878906 C 27.164062 19.253906 27.535156 20.296875 27.460938 21.339844 C 27.3125 23.351562 24.40625 28.265625 23.140625 29.832031 C 22.46875 30.652344 22.023438 31.246094 21.351562 31.320312 C 20.683594 31.394531 19.640625 30.949219 19.265625 30.425781 C 18.96875 29.980469 18.894531 29.457031 19.117188 28.566406 C 19.789062 26.179688 25.746094 17.390625 27.757812 15.976562 C 28.503906 15.453125 29.023438 15.304688 29.546875 15.453125 C 30.066406 15.527344 30.8125 15.976562 30.960938 16.644531 C 31.335938 17.6875 30.367188 20.074219 29.695312 21.785156 C 28.949219 23.574219 27.609375 26.402344 26.492188 27.074219 C 25.894531 27.445312 25.078125 27.445312 24.628906 27.222656 C 24.109375 26.925781 23.511719 26.402344 23.4375 25.734375 C 23.214844 24.167969 25.300781 19.847656 26.34375 17.988281 C 27.089844 16.792969 27.683594 15.527344 28.503906 15.230469 C 29.175781 15.007812 30.367188 15.230469 30.8125 15.675781 C 31.261719 16.125 31.484375 17.09375 31.261719 17.988281 C 30.664062 20.074219 25.671875 25.957031 23.734375 26.703125 C 22.84375 27 21.875 26.777344 21.351562 26.402344 C 20.90625 26.03125 20.683594 25.511719 20.683594 24.617188 C 20.832031 21.859375 26.789062 10.015625 28.726562 8.078125 C 29.324219 7.484375 29.84375 7.335938 30.367188 7.335938 C 30.886719 7.335938 31.632812 7.707031 31.855469 8.226562 C 32.300781 9.121094 31.78125 10.761719 31.484375 12.546875 C 30.8125 15.828125 28.800781 24.09375 27.238281 26.03125 C 26.640625 26.777344 25.894531 27.148438 25.300781 27.074219 C 24.628906 26.925781 23.734375 25.882812 23.585938 25.136719 C 23.4375 24.394531 24.035156 23.574219 24.628906 22.605469 C 25.523438 20.964844 27.757812 17.316406 29.25 16.71875 C 30.066406 16.347656 31.109375 16.570312 31.632812 17.019531 C 32.078125 17.464844 32.300781 18.285156 32.226562 19.328125 C 31.929688 21.636719 28.355469 28.191406 26.9375 29.980469 C 26.417969 30.726562 26.046875 31.097656 25.449219 31.246094 C 24.851562 31.46875 24.035156 31.394531 23.585938 31.023438 C 23.066406 30.652344 22.691406 29.90625 22.765625 28.863281 C 22.84375 26.480469 26.566406 18.507812 28.429688 16.71875 C 29.25 15.902344 30.21875 15.453125 30.886719 15.675781 C 31.484375 15.902344 32.152344 16.867188 32.152344 17.910156 C 32.226562 20.667969 26.714844 31.097656 24.480469 32.660156 C 23.660156 33.257812 22.542969 33.332031 22.023438 33.035156 C 21.5 32.660156 21.277344 31.46875 21.425781 30.574219 C 21.574219 29.382812 22.765625 27.222656 23.660156 26.628906 C 24.183594 26.179688 24.929688 26.105469 25.375 26.253906 C 25.894531 26.402344 26.492188 27 26.714844 27.445312 C 26.863281 27.96875 26.714844 28.789062 26.34375 29.234375 C 26.046875 29.683594 25.300781 29.980469 24.777344 29.980469 C 24.257812 29.90625 23.511719 29.457031 23.214844 29.011719 C 22.992188 28.566406 22.917969 27.671875 23.140625 27.222656 C 23.4375 26.703125 24.628906 26.105469 25.226562 26.179688 C 25.820312 26.253906 26.714844 27.148438 26.789062 27.894531 C 26.9375 29.085938 24.851562 32.660156 23.734375 33.183594 C 23.214844 33.480469 22.46875 33.332031 22.023438 33.035156 C 21.574219 32.660156 21.203125 31.992188 21.203125 31.023438 C 21.351562 28.414062 26.566406 18.730469 28.429688 16.71875 C 29.175781 15.976562 29.769531 15.527344 30.367188 15.601562 C 30.960938 15.601562 31.707031 15.976562 31.929688 16.570312 C 32.300781 17.390625 31.855469 19.03125 31.335938 20.59375 C 30.515625 23.277344 28.054688 29.457031 26.269531 30.726562 C 25.375 31.320312 24.183594 31.394531 23.585938 31.023438 C 22.992188 30.726562 22.691406 29.90625 22.765625 28.863281 C 22.84375 26.554688 26.566406 18.953125 28.503906 17.390625 C 29.398438 16.644531 30.589844 16.421875 31.183594 16.71875 C 31.78125 17.019531 32.378906 18.285156 32.226562 19.328125 C 31.929688 21.191406 28.132812 25.882812 26.640625 26.703125 C 25.972656 27.148438 25.375 27.148438 24.851562 26.925781 C 24.332031 26.703125 23.734375 26.105469 23.585938 25.136719 C 23.140625 22.457031 26.789062 10.6875 28.503906 8.453125 C 29.097656 7.707031 29.769531 7.335938 30.367188 7.335938 C 30.886719 7.335938 31.632812 7.78125 31.855469 8.226562 C 32.152344 8.675781 32.152344 9.195312 32.003906 10.015625 C 31.484375 12.699219 26.566406 24.09375 24.40625 26.03125 C 23.660156 26.777344 22.84375 27.074219 22.246094 26.851562 C 21.574219 26.628906 20.683594 25.585938 20.683594 24.617188 C 20.757812 22.605469 26.121094 16.496094 28.054688 15.453125 C 28.949219 15.007812 29.917969 15.007812 30.441406 15.378906 C 31.035156 15.75 31.335938 16.867188 31.261719 17.988281 C 31.109375 19.996094 28.652344 25.0625 27.164062 26.402344 C 26.34375 27.074219 25.226562 27.445312 24.628906 27.222656 C 23.960938 26.925781 23.4375 25.808594 23.511719 24.765625 C 23.511719 22.753906 25.972656 17.613281 27.460938 16.273438 C 28.28125 15.601562 29.398438 15.304688 29.992188 15.601562 C 30.589844 15.902344 31.109375 17.019531 31.035156 17.988281 C 30.886719 19.921875 28.132812 23.425781 26.417969 25.660156 C 24.851562 27.820312 22.765625 31.023438 21.351562 31.320312 C 20.53125 31.46875 19.640625 30.949219 19.265625 30.425781 C 18.96875 29.980469 18.96875 29.382812 19.117188 28.566406 C 19.488281 26.628906 22.394531 20.742188 24.035156 19.476562 C 24.851562 18.804688 25.972656 18.65625 26.566406 18.878906 C 27.089844 19.105469 27.460938 19.921875 27.609375 20.445312 C 27.683594 20.890625 27.535156 21.191406 27.238281 21.785156 C 26.34375 23.574219 21.5 30.351562 19.414062 31.246094 C 18.445312 31.691406 17.402344 31.542969 16.957031 31.171875 C 16.511719 30.726562 16.359375 30.054688 16.511719 29.085938 C 16.957031 26.179688 23.289062 14.933594 25.226562 12.996094 C 25.820312 12.472656 26.269531 12.25 26.789062 12.25 C 27.164062 12.25 27.683594 12.398438 27.980469 12.699219 C 28.28125 13.21875 28.503906 14.113281 28.207031 15.082031 C 27.386719 17.835938 20.160156 26.703125 17.851562 28.117188 C 16.957031 28.640625 16.210938 28.789062 15.691406 28.488281 C 15.167969 28.265625 14.648438 27.296875 14.648438 26.253906 C 14.796875 23.425781 21.128906 12.699219 23.214844 11.207031 C 23.886719 10.761719 24.480469 10.761719 25.003906 10.910156 C 25.523438 11.058594 26.121094 11.65625 26.269531 12.175781 C 26.417969 12.699219 26.34375 13.21875 25.894531 13.964844 C 24.703125 16.273438 18.222656 22.382812 15.019531 25.210938 C 12.710938 27.222656 10.402344 29.832031 8.835938 29.980469 C 7.945312 30.054688 7.050781 29.457031 6.75 28.863281 C 6.453125 28.414062 6.453125 27.671875 6.75 26.925781 C 7.125 25.734375 8.910156 24.019531 10.179688 22.753906 C 11.519531 21.488281 13.234375 19.921875 14.425781 19.402344 C 15.09375 19.105469 15.765625 18.878906 16.285156 19.105469 C 16.882812 19.402344 17.628906 20.445312 17.628906 21.414062 C 17.777344 23.125 15.765625 27.523438 14.5 28.414062 C 13.828125 28.863281 12.859375 28.9375 12.339844 28.640625 C 11.816406 28.265625 11.445312 27.371094 11.519531 26.253906 C 11.59375 23.574219 15.617188 13.742188 17.328125 12.25 C 17.925781 11.730469 18.519531 11.65625 18.96875 11.804688 C 19.488281 11.953125 20.085938 12.472656 20.234375 12.921875 C 20.457031 13.441406 20.457031 13.890625 20.085938 14.632812 C 19.042969 16.71875 11.148438 22.382812 9.433594 24.839844 C 8.613281 25.957031 8.835938 27.222656 8.167969 27.671875 C 7.570312 28.042969 6.230469 28.042969 5.707031 27.671875 C 5.261719 27.296875 4.964844 26.554688 5.261719 25.660156 C 6.082031 22.828125 17.402344 13.664062 21.203125 11.058594 C 23.066406 9.792969 24.554688 8.898438 25.746094 8.824219 C 26.640625 8.75 27.535156 8.972656 27.90625 9.570312 C 28.503906 10.460938 27.980469 12.996094 27.238281 15.082031 C 26.121094 18.285156 22.023438 25.285156 19.9375 26.328125 C 19.117188 26.777344 18.148438 26.554688 17.628906 26.253906 C 17.179688 25.957031 16.808594 25.363281 16.808594 24.542969 C 16.734375 22.679688 19.640625 16.792969 20.832031 15.230469 C 21.351562 14.558594 21.726562 14.261719 22.246094 14.113281 C 22.691406 14.039062 23.289062 14.039062 23.585938 14.335938 C 24.109375 14.785156 24.480469 15.828125 24.40625 16.867188 C 24.183594 18.804688 21.425781 22.828125 19.9375 25.136719 C 18.671875 27 17.402344 29.457031 16.210938 29.832031 C 15.542969 30.054688 14.574219 29.757812 14.199219 29.308594 C 13.828125 28.863281 13.753906 28.117188 13.976562 27.222656 C 14.5 24.617188 20.234375 15.601562 22.097656 13.890625 C 22.691406 13.367188 23.140625 13.144531 23.660156 13.144531 C 24.183594 13.144531 24.929688 13.515625 25.152344 13.964844 C 25.449219 14.484375 25.375 15.15625 25.078125 16.125 C 24.332031 18.582031 19.265625 26.703125 17.105469 28.117188 C 16.136719 28.714844 15.09375 28.789062 14.574219 28.488281 C 14.050781 28.117188 13.753906 27.148438 13.902344 26.03125 C 14.273438 23.199219 21.277344 14.632812 22.46875 11.804688 C 22.917969 10.761719 22.617188 9.941406 23.066406 9.417969 C 23.4375 8.898438 24.257812 8.601562 24.851562 8.675781 C 25.449219 8.75 26.417969 9.570312 26.566406 10.164062 C 26.789062 10.6875 26.566406 11.355469 26.195312 12.027344 C 25.671875 12.996094 24.480469 13.964844 23.289062 15.007812 C 21.574219 16.496094 18.296875 19.625 16.957031 19.773438 C 16.4375 19.773438 15.988281 19.476562 15.691406 19.105469 C 15.394531 18.65625 15.167969 18.0625 15.242188 17.316406 C 15.394531 15.453125 17.554688 9.71875 19.042969 8.75 C 19.863281 8.226562 21.054688 8.300781 21.574219 8.675781 C 22.097656 9.046875 22.320312 9.71875 22.171875 10.761719 C 21.648438 13.964844 12.488281 28.488281 9.878906 29.757812 C 9.0625 30.128906 8.390625 29.832031 7.945312 29.53125 C 7.496094 29.234375 7.050781 28.566406 7.050781 27.820312 C 6.976562 26.402344 8.761719 23.796875 9.878906 21.339844 C 11.519531 17.910156 14.273438 10.835938 15.988281 9.269531 C 16.660156 8.75 17.253906 8.527344 17.777344 8.601562 C 18.371094 8.675781 19.117188 9.195312 19.339844 9.71875 C 19.640625 10.238281 19.5625 10.910156 19.339844 11.65625 C 18.96875 13.070312 17.402344 15.527344 16.136719 17.464844 C 14.722656 19.625 12.785156 23.5 11.296875 24.019531 C 10.476562 24.320312 9.433594 23.945312 8.910156 23.5 C 8.464844 23.050781 8.316406 22.382812 8.390625 21.5625 C 8.6875 19.476562 12.414062 13.070312 14.273438 11.804688 C 15.167969 11.132812 16.359375 10.910156 16.957031 11.28125 C 17.554688 11.65625 17.925781 12.773438 17.777344 13.890625 C 17.328125 16.496094 11.519531 24.914062 9.433594 25.660156 C 8.539062 25.957031 7.644531 25.511719 7.199219 25.0625 C 6.824219 24.542969 6.75 23.722656 6.976562 22.753906 C 7.644531 20.222656 13.679688 11.65625 15.46875 10.3125 C 15.988281 9.867188 16.359375 9.792969 16.808594 9.792969 C 17.328125 9.867188 18.148438 10.238281 18.445312 10.6875 C 18.746094 11.132812 18.820312 11.804688 18.597656 12.546875 C 18.222656 14.039062 15.914062 16.945312 14.199219 18.953125 C 12.5625 20.890625 10.179688 23.871094 8.539062 24.394531 C 7.644531 24.691406 6.601562 24.46875 6.082031 24.019531 C 5.632812 23.574219 5.484375 22.605469 5.632812 21.5625 C 5.859375 19.921875 8.167969 16.867188 8.761719 14.933594 C 9.136719 13.664062 8.6875 12.175781 9.210938 11.503906 C 9.507812 11.058594 10.105469 10.910156 10.625 10.910156 C 11.222656 10.910156 12.191406 11.28125 12.488281 11.804688 C 12.859375 12.398438 13.007812 13.441406 12.636719 14.335938 C 11.890625 15.828125 8.167969 18.582031 6.527344 19.253906 C 5.558594 19.550781 4.589844 19.625 3.996094 19.253906 C 3.398438 18.878906 2.878906 17.761719 3.101562 16.945312 C 3.398438 15.453125 6.902344 12.921875 8.6875 11.730469 C 9.878906 10.910156 11.222656 10.164062 12.191406 10.015625 C 12.785156 9.867188 13.308594 9.941406 13.753906 10.238281 C 14.199219 10.460938 14.648438 10.984375 14.796875 11.429688 C 14.945312 11.878906 14.945312 12.546875 14.796875 12.996094 C 14.574219 13.441406 13.679688 14.1875 13.679688 14.1875 " clip-rule="nonzero"/></clipPath></defs><g fill="#000000" fill-opacity="1"><g transform="translate(23.740589, 17.117449)"><g><path d="M 1.03125 -0.71875 C 1.03125 -1.019531 1.097656 -1.25 1.234375 -1.40625 C 1.378906 -1.5625 1.578125 -1.640625 1.828125 -1.640625 C 2.097656 -1.640625 2.304688 -1.5625 2.453125 -1.40625 C 2.597656 -1.25 2.671875 -1.019531 2.671875 -0.71875 C 2.671875 -0.425781 2.59375 -0.195312 2.4375 -0.03125 C 2.289062 0.125 2.085938 0.203125 1.828125 0.203125 C 1.597656 0.203125 1.40625 0.128906 1.25 -0.015625 C 1.101562 -0.160156 1.03125 -0.394531 1.03125 -0.71875 Z M 1.03125 -0.71875 "/></g></g></g><g clip-path="url(#e508151830)"><g clip-path="url(#8ee5181c68)"><path fill="#ffffff" d="M 0.121094 4.355469 L 35.242188 4.355469 L 35.242188 36.238281 L 0.121094 36.238281 Z M 0.121094 4.355469 " fill-opacity="1" fill-rule="nonzero"/></g></g></svg>